<?xml version="1.0" encoding="utf-8"?>
<!-- Generator: Adobe Illustrator 24.1.1, SVG Export Plug-In . SVG Version: 6.00 Build 0)  -->
<svg version="1.1" id="Capa_1" xmlns="http://www.w3.org/2000/svg" xmlns:xlink="http://www.w3.org/1999/xlink" x="0px" y="0px"
	 viewBox="0 0 550 300" style="enable-background:new 0 0 550 300;" xml:space="preserve">
<style type="text/css">
	.st0{opacity:0.6;fill:#CAE7F5;enable-background:new    ;}
	.st1{fill:#B3D9E8;}
	.st2{fill:#96C6ED;}
	.st3{fill:#E9EFFF;}
	.st4{opacity:5.000000e-02;fill:#4727A0;enable-background:new    ;}
	.st5{opacity:5.000000e-02;fill:#F8FCFF;enable-background:new    ;}
	.st6{fill:#A4A3FA;}
	.st7{fill:#A4D6FF;}
	.st8{fill:#90D1FC;}
	.st9{fill:#B0DFFF;}
	.st10{fill:#89C9F4;}
	.st11{fill:#FFFFFF;}
	.st12{fill:#9CD1EF;}
	.st13{fill:#8EB7E8;}
	.st14{fill:#0F113D;}
	.st15{fill:#5372C9;}
	.st16{fill:#FFC639;}
	.st17{fill:#FFDF5A;}
	.st18{fill:#EB8E6C;}
	.st19{fill:#FCB81F;}
	.st20{fill:#DD7C5E;}
	.st21{fill:#D66B49;}
	.st22{fill:#C36252;}
	.st23{fill:#1C2546;}
	.st24{fill:#DD8064;}
	.st25{fill:#6680DD;}
	.st26{fill:#5977D8;}
	.st27{fill:#8EA3ED;}
	.st28{fill:#A8B4EF;}
	.st29{fill:#7391E5;}
	.st30{fill:#DCDCF9;}
	.st31{fill:#4459B2;}
	.st32{fill:#BBCAF9;}
	.st33{fill:#543434;}
	.st34{fill:#F2F1F0;}
	.st35{fill:#FCFCFC;}
	.st36{fill:#F2F3F4;}
	.st37{fill:#E3E6E8;}
	.st38{fill:#F8FAFF;}
	.st39{opacity:0.59;fill:#FFFFFF;enable-background:new    ;}
	.st40{fill:#0E2342;}
	.st41{fill:#152B4C;}
	.st42{fill:#46466B;}
	.st43{fill:#1E3863;}
	.st44{fill:#29416D;}
	.st45{fill:#6898DD;}
	.st46{fill:#608ED8;}
	.st47{fill:#132C51;}
	.st48{fill:#79AEE2;}
	.st49{fill:#F9F9F9;}
	.st50{fill:#4E5475;}
	.st51{fill:#EDEFF4;}
	.st52{fill:#88BDE5;}
	.st53{fill:#3D5586;}
	.st54{fill:#676791;}
	.st55{fill:#55557F;}
	.st56{fill:#7E7EA3;}
	.st57{fill:#DB765E;}
	.st58{fill:#D36C57;}
	.st59{fill:#E28366;}
	.st60{fill:#E59477;}
	.st61{fill:#FFDBB6;}
	.st62{fill:#FFEBD9;}
	.st63{fill:#FFC239;}
	.st64{fill:#FFD147;}
	.st65{fill:#152E51;}
	.st66{fill:#CFD8F9;}
	.st67{fill:#E1EAFF;}
	.st68{fill:#D8745D;}
	.st69{fill:#442138;}
	.st70{fill:#041649;}
	.st71{fill:#0D266D;}
	.st72{fill:#061F56;}
	.st73{fill:#C0C0FC;}
	.st74{fill:#B5B5F4;}
	.st75{fill:#FFD817;}
	.st76{fill:#F4940B;}
	.st77{fill:#FFDE1A;}
	.st78{fill:#F29100;}
	.st79{fill:#E5E5E5;}
	.st80{fill:#F1CA89;}
	.st81{fill:#F1B873;}
	.st82{fill:#ED963E;}
	.st83{fill:#F2F3F7;}
	.st84{fill:#F9C393;}
	.st85{opacity:0.19;fill:#F9C393;enable-background:new    ;}
	.st86{fill:#F7CCAD;}
	.st87{fill:#54C147;}
	.st88{fill:#0079C4;}
	.st89{fill:#F39A00;}
</style>
<path class="st0" d="M401.8,132.8c-33.4,1-65.7-3.7-90-22.3c-12.3-9.4-94.6-72.1-193.7-24.7c-13,6.2-46.9,20.7-64.7,56
	c-38,75.7,3.8,107.7,23.2,113.7c4.9,1.5,396.5,0.6,398.7-0.7C546.5,214.1,501,129.8,401.8,132.8z"/>
<ellipse class="st1" cx="275.5" cy="252.4" rx="219.9" ry="14.4"/>
<g>
	<circle class="st2" cx="370.3" cy="208.3" r="49.8"/>
	<path class="st3" d="M391.2,166.2c-0.2-0.4-0.9,0-2.3-0.4c-0.9-0.3-1.2-0.6-1.8-0.5c-0.5,0.1-1.2,0.5-1.3,1
		c-0.1,0.5,0.6,0.9,1.1,1.3c0.6,0.4,1.7,1.2,2.9,0.7C390.8,167.8,391.5,166.7,391.2,166.2z"/>
	<path class="st3" d="M366.8,212.1c0-0.1-0.3-0.2-2.1-0.3c-2.8-0.1-4.2-0.2-4.3,0.1c-0.1,0.5,1.6,1.7,3.4,1.7
		C365.3,213.6,366.9,212.5,366.8,212.1z"/>
	<path class="st3" d="M409,214.4c-0.4,0.1-0.8,0.8-1,1.3c0,0.1-0.2,0.5-0.3,1.3c-0.1,0.7-0.2,1.6,0.1,2.6c0.2,0.6,0.4,1.3,1,1.5
		c0.7,0.2,1.8-0.7,2.2-1.7C411.9,217.2,409.9,214.3,409,214.4z"/>
	<path class="st3" d="M393.3,230.3c-1.2-0.6-2.1,0.6-5.8,1.4c-2.7,0.6-3.4,0.2-3.8-0.1c-0.3-0.3-0.3-0.5-0.8-2.2
		c-0.8-2.8-1-3-1.3-3.3c-0.9-0.8-2.3-0.9-3.3-0.5c-1,0.3-1,0.9-2.2,1.4c-0.4,0.2-1.6,0.6-2.6,0.2c-1.4-0.6-1-2.3-2.4-3.4
		c-1.2-0.9-2,0-4.6-0.6c-1.5-0.4-1.4-0.7-4.6-2.1c-2.3-1-2.5-0.9-4.3-1.8c-3.3-1.6-3.6-2.5-3.7-2.9c-0.3-1,0.4-1.9-0.2-2.5
		c-0.3-0.4-0.9-0.5-1.4-0.4c-1.4,0.2-1.4,2-2.7,2.4c-1,0.3-2.3-0.4-3-1.2c-0.8-0.9-0.7-2.1-0.5-4.4c0.2-2.1,0.2-3.2,1.1-3.7
		c0.6-0.4,1.3-0.3,2.9,0c1.3,0.2,2.6,0.6,3.6,1c1.9,0.7,2.6,1.1,3.5,0.8c0.2,0,0.9-0.3,1.3-1c0.5-0.9-0.1-1.6-0.4-3.8
		c-0.2-1.2-0.3-1.9,0-2.9c0.2-0.7,0.4-0.9,1.4-2.3c1.8-2.7,1.5-2.8,2.4-3.7c0.3-0.3,1-0.9,2.3-2.1c1.1-1,1.5-1.3,1.6-1.8
		c0.2-0.9-0.4-1.2-0.4-2.5c0-0.3,0-1.3,0.6-2.1s1.5-1,2.1-1.2c1.6-0.4,2,0.2,3.9,0c0.9-0.1,2.4-0.3,3.5-1.4c0.2-0.3,0.6-0.7,0.7-1.4
		c0.1-0.9-0.4-2-1.2-2.4c-0.9-0.6-1.5,0.1-2.9-0.4c-0.8-0.3-0.7-0.6-2-1.4c-0.6-0.4-1.2-0.7-2-1c-0.3-0.1-1.3-0.4-2.5-0.2
		c-2.1,0.3-2.6,1.7-4,1.5c-0.3-0.1-0.8-0.4-1.7-1.1c-1.5-1.1-1.6-1.5-2.3-1.6c-0.8-0.1-1.8,0.2-2.3,0.8c-0.6,0.7-0.6,1.6-0.5,3.2
		c0.1,2.2,0.7,3.2,0.1,3.7c-0.5,0.4-1.4,0.1-1.7,0c-1-0.3-1.2-1-2.1-1.8c-1.4-1.3-2-0.8-3.1-1.9c-0.1-0.1-1.7-1.8-1.2-3.1
		c0.2-0.5,0.8-0.8,2-1.4c1.3-0.6,2.4-0.9,2.7-1c2-0.5,2.9-0.3,3.1-0.7c0.1-0.5-1-0.7-1.5-2c-0.1-0.4-0.2-0.9-0.2-1.9s-0.1-1.5,0-1.8
		c0.3-1.3,1.4-1.2,2.3-2.7c0.6-0.9,0.7-1.8,0.8-2.9c0.1-0.6,0.1-1.1,0.1-1.6c-3.9,1.2-7.5,2.8-11,4.8l0,0c0.4,1.5,1,2.5,1.6,3.2
		c1.1,1.3,2.4,2,2.2,3c-0.2,0.9-1.4,1.7-2.5,1.5c-0.9-0.2-1.4-0.9-1.5-1.1c-0.7-1.1,0-2.1-0.3-3.5c-0.1-0.5-0.4-1.2-1.2-2
		c0.3-0.2,0.6-0.4,0.8-0.5c-1.9,1.2-3.8,2.6-5.5,4c0.1,0.3,0.3,0.5,0.4,0.7c0.9,1.2,1.8,1.2,2.5,2.5c0.6,1.2,0.7,2.6,0.3,2.9
		c-0.3,0.2-0.9-0.4-2.1-1.5c-1-0.9-1.5-1.4-1.8-1.8c-0.2-0.3-0.5-0.9-0.7-1.7c0.4-0.4,0.9-0.8,1.3-1.1c-7,5.9-12.4,13.6-15.3,22.5
		c1.4,0.9,2.5,1.7,3.3,2.4c1.7,1.5,2.2,2.3,2.3,2.5c0.9,1.7,0.9,3.5,0.8,6c-0.1,3.1-0.6,3.7,0,4.5c0.9,1.3,2.5,0.5,5.2,1.8
		c2.8,1.4,4.5,3.9,4.9,4.5c1.4,2.4,0.9,3.5,2.3,4.4c0.7,0.5,1.2,0.3,4.5,0.4c2.9,0.1,4.3,0.1,5.2,0.3c2.6,0.7,2.4,1.7,5.3,2.6
		c2.7,0.9,3.9,0.3,4.9,1.5c0.9,1.1,0.6,2.8,0.5,3.3s-0.3,1.1-2,3.7c-1.6,2.4-1.9,2.7-2,3.5c-0.1,1.6,1,3,1.4,3.4
		c0.5,0.5,1.3,1.2,5.4,2.1c3.7,0.8,4.5,0.6,5.7,1.6c0.3,0.2,2.1,1.6,2.2,3.6c0.1,1.6-0.9,2-0.8,3.8c0.1,1.1,0.5,1,1.2,3.4
		c0.5,1.9,0.4,2.4,1.1,3.3c0.2,0.3,0.9,1.2,2.1,1.5c1.4,0.3,2.7-0.5,3.4-1c1.7-1.1,1.4-1.9,3.2-3.6c1.9-1.8,2.8-1.4,3.7-3
		c0.6-1.2,0.2-1.5,1-3c0.2-0.4,0.9-1.8,2.4-2.9c1.5-1.1,2.3-0.8,2.7-1.7c0.2-0.4,0.1-0.6-0.1-2.7c-0.1-1.6-0.2-2.4-0.1-2.7
		c0.4-1.5,1.6-1.5,1.9-2.7C394.8,232.4,394.3,230.8,393.3,230.3z"/>
	<path class="st3" d="M365.1,164.6c1.1,0.2,1.6-0.4,2.9,0c0.2,0.1,1.1,0.4,1.5,1.2c0.6,1-0.2,1.7,0.3,2.5c0.3,0.6,0.9,0.5,2.4,1.1
		c0.6,0.2,1.8,0.6,2.9,1.3c1.7,1,2,1.9,3.5,2.2c0.4,0.1,1,0.2,1.3-0.1c0.4-0.5-0.7-1.6-1.2-3.9c-0.2-0.8-0.4-2.1,0.1-2.4
		c0.5-0.3,1.1,0.4,2.3,0.4c0,0,1.3,0,2.6-1c1.3-0.9,1.9-2.8,1.7-5.1c-4.7-1.5-9.8-2.3-15-2.3c-3.3,0-6.5,0.3-9.6,0.9
		c0.5,1,1,1.7,1.4,2.3C363.4,163.5,364,164.4,365.1,164.6z"/>
	<path class="st3" d="M416.4,189.5c-0.2,0.3-0.3,0.5-0.4,0.8c-0.3,0.9-0.4,1.7-0.7,1.7c-0.5,0.1-0.6-1.6-2-3
		c-0.4-0.4-1.6-1.4-3.2-1.4c-1,0-1.9,0.4-2.5,0.7c-1,0.5-0.9,0.7-1.5,0.8c-1.5,0.4-2.6-0.7-3.2-0.1c-0.3,0.3-0.3,0.8-0.2,1.4
		c0.1,0.9,0.4,1.2,0.5,1.8c0.2,1.2-0.6,2.4-1.5,3.7s-1.3,1.4-1.4,2.1c0,0.7,0.5,0.9,1,2.1c0.2,0.7,0.7,1.8,0.3,2.9
		c-0.4,1.1-1.2,1.2-1.3,2.2c-0.1,0.9,0.5,1.5,0.6,1.7c0.5,0.6,1,0.6,2,1.2c1.1,0.6,1,0.9,2.1,1.7c0.9,0.6,1.8,1.2,2.9,1.3
		c1.5,0.1,2.8-0.8,3.4-1.2c1.2-0.8,1.5-1.6,2.1-1.5c0.7,0.1,0.5,1.3,1.6,1.9c0.9,0.5,1.5,0.1,1.9,0.6c0.4,0.6-0.4,1.2-0.2,2.4
		c0.1,1,0.8,1.2,1.2,2.2c0.5,1.4,0,2.7-0.2,3.4c-0.3,1-0.4,2.4,0,4.5c1.5-4.8,2.4-9.9,2.4-15.2C420.1,201.6,418.8,195.3,416.4,189.5
		z"/>
	<path class="st3" d="M400.7,168.8c-0.1,0.4-0.1,0.7,0,1c0.1,0.7,0.5,1.6,0.1,1.9c-0.4,0.3-1.3-0.8-2.2-0.4c-0.5,0.2-0.9,0.8-1,1.3
		c-0.1,0.6,0.2,0.7,0.1,1.1c-0.3,1-3.1,0.5-3.5,1.5c-0.3,0.7,0.7,2.1,1.4,2c0.6,0,0.6-1,1.7-1.6c0.2-0.1,0.9-0.5,1.5-0.2
		c0.7,0.3,0.4,1.2,1.2,1.9c0.6,0.5,1,0.3,1.8,0.6c1.3,0.6,2.4,2.2,2,2.9c-0.5,0.9-3.1-0.1-3.5,0.7c-0.2,0.5,0.6,0.8,1.1,2.3
		c0.4,1.2,0.1,1.7,0.5,2.1c0.5,0.4,1.3,0.2,2.2-0.1c1-0.3,1.6-0.5,2.1-1.1c0.9-1.1,0.1-2.5,1-3.1c0.6-0.4,1.7,0,2.2,0.3
		c0.8,0.5,0.8,1.1,1.7,2.1c0.4,0.4,1.2,1.3,2.1,1.5c0.5,0.1,1,0,1.4-0.1C411.2,178.9,406.4,173.2,400.7,168.8z M405,176.7
		c-0.4,0.3-1.7-0.2-2-1.3c-0.3-1,0.4-2.1,0.8-2.1C404.6,173.4,405.6,176.3,405,176.7z"/>
	<path class="st3" d="M353.6,169.2c0-0.6,1.1-1.1,2-1.2c1-0.1,1.2,0.4,3,1c0.8,0.2,1.9,0.6,3.4,0.5c0.9,0,1.3-0.2,1.8,0.1
		c0.6,0.4,1,1.3,0.8,2.1c-0.3,1.3-2.3,1.9-3.5,1.9c-1.5,0.1-2.7-0.6-3.6-1.2c-0.6-0.3-0.3-0.3-2.2-1.7
		C353.9,169.8,353.5,169.6,353.6,169.2z"/>
	<path class="st4" d="M395.9,165.5c4.7,7.6,7.4,16.6,7.4,26.2c0,27.5-22.3,49.8-49.8,49.8c-9.3,0-18.1-2.6-25.6-7.1
		c8.8,14.2,24.5,23.6,42.3,23.6c27.5,0,49.8-22.3,49.8-49.8C420.1,190.1,410.4,174.2,395.9,165.5z"/>
	<ellipse transform="matrix(0.5 -0.866 0.866 0.5 7.1206 393.7625)" class="st5" cx="344.6" cy="190.7" rx="16.2" ry="10.8"/>
</g>
<path class="st6" d="M190.4,106.4l-3,1.3c-0.9-1.1-1.9-2.2-3-3l1.2-3.1c0.4-1-0.1-2.2-1.1-2.6l-4.2-1.7c-1-0.4-2.2,0.1-2.6,1.1
	l-1.3,3.1c-1.4-0.2-2.9-0.1-4.2,0.1l-1.3-3c-0.4-1-1.4-1.3-2.4-0.8l-4.2,1.8c-1,0.4-1.8,1.4-1.4,2.4l1.3,3c-1.1,0.9-2,1.8-2.8,2.9
	l-3-1.2c-1-0.4-2.1,0.1-2.5,1.1l-1.7,4.2c-0.4,1,0.1,2.2,1.1,2.6l3.1,1.3c-0.2,1.4-0.1,2.9,0.1,4.2l-3,1.3c-1,0.4-1.7,1.5-1.3,2.5
	l1.8,4.2c0.4,1,1.9,1.6,2.9,1.2l3-1.3c0.9,1.1,1.8,2,2.9,2.8l-1.3,3c-0.4,1,0.1,2.1,1.1,2.5l4.2,1.7c1,0.4,2.2-0.1,2.6-1.1l1.1-3
	c1.4,0.2,2.7,0.2,4.1,0l1.3,3c0.4,1,1.9,1.6,2.9,1.2l4.2-1.8c1-0.4,1.3-1.8,0.8-2.8l-1.3-3c1.1-0.9,2.1-1.9,3-3l3.1,1.2
	c1,0.4,2.2-0.1,2.6-1.1l1.7-4.2c0.4-1-0.1-2.2-1.1-2.6l-3-1.1c0.2-1.4,0.2-2.7,0-4.1l3-1.3c1-0.4,1.1-1.7,0.7-2.7l-1.8-4.2
	C192.2,106.4,191.4,106,190.4,106.4z M178.1,126.1c-4.7,2-10.1-0.2-12.1-4.9c-2-4.7,0.2-10.1,4.9-12.1s10.1,0.2,12.1,4.9
	C185,118.7,182.8,124.1,178.1,126.1z"/>
<g>
	<path class="st7" d="M63.3,199.6c-2-2.3-19.5-21.8-32.2-13.7c-3.2,2-6.9,6.3-7,10.6c-0.2,8.3,13.6,9.4,26.3,17.8
		c18.7,12.3,24.3,33.3,27.4,40l3-0.2C82.6,245.9,79.3,217.9,63.3,199.6z"/>
	<path class="st8" d="M63.3,199.6c-2-2.3-19.5-21.8-32.2-13.7c-0.4,0.3-0.8,0.5-1.2,0.9c3.1-0.4,6.8-0.4,10.8,0.4
		c12.7,2.7,19.5,12.5,22.7,17c1.5,2.2,9.1,13.5,10.3,31.9c0.2,2.8,0.2,5.4,0.1,8c1.9,4.4,3.2,8,4.2,10.1l3-0.2
		C82.6,245.9,79.3,217.9,63.3,199.6z"/>
	<path class="st9" d="M45.2,135.8c-29.3-19.7-35.9-0.5-27.1,8.7c4.6,4.8,26.7,18.6,39.2,34.1c23.9,29.7,23.5,64.2,22.6,75.5l0.9-0.1
		C85.8,237.7,101.1,173.5,45.2,135.8z"/>
	<path class="st7" d="M45.2,135.8c-19.3-13-28.8-9.1-30.4-2.3c1.5-1.3,3.4-2.6,5.8-3.4c3.4-1.2,6.4-0.7,9.2,0.1
		c7.4,2.1,13.7,6.5,21.2,13.6c5.2,5,9.2,8.7,13.6,14.9c8.3,11.5,12.9,24.2,14.8,32.5c2.9,12.7,2,25.8-0.5,37.5
		c1.7,11.3,1.4,20.5,1,25.4L81,254C85.7,240.5,99.8,172.6,45.2,135.8z"/>
	<g>
		<path class="st7" d="M82.7,230.9c-0.2-9.1-1.5-23.1-7.1-38.2c-4-10.9-10-21.2-17.3-29.8c-5.7-6.7-12.2-12.5-19.4-17.1
			c-0.2-0.1-0.4,0-0.5,0.2l0,0c-0.1,0.2-0.1,0.5,0.1,0.6c7.1,4.6,13.6,10.3,19.2,17c7.2,8.5,13.2,18.7,17.2,29.5
			c5.6,15,6.9,28.9,7.1,37.9c0.1,2.9,0,5.8-0.2,8.8c0,0.2,0.1,0.4,0.4,0.4c0.2,0,0.4-0.2,0.4-0.5C82.7,236.8,82.7,233.8,82.7,230.9z
			"/>
	</g>
	<g>
		<path class="st10" d="M57.7,207.5c-5.1-4.7-11-8.4-17.4-10.9c-0.2,0.1-0.3,0.2-0.5,0.3c-0.1,0.2,0,0.5,0.2,0.5
			c6.3,2.5,12.1,6.1,17.2,10.8c10.7,9.8,16.1,22.2,18.7,30.9c0.1,0.2,0.3,0.3,0.5,0.2s0.3-0.4,0.2-0.6
			C73.9,229.9,68.5,217.4,57.7,207.5z"/>
	</g>
	<path class="st9" d="M80.7,106.9C69.4,108,68.1,127.7,68,130c-1,18.3,10.1,36.5,14.9,40.5l1.9-1.3c-1.2-5.4-7.7-20.5-2.3-36.5
		c3.6-10.9,11.3-18,7.3-22.8C87.7,107.4,83.5,106.6,80.7,106.9z"/>
	<path class="st7" d="M68,130c-1,18.3,10.1,36.5,14.9,40.5l1.9-1.3c-0.4-1.7-1.3-4.5-2.2-8c-1.3-1.5-2.5-3.1-3.7-4.8
		c-7.9-11.4-8.7-21.7-8.8-23.7c-0.2-4.2-0.7-13.1,5.5-20.6c2-2.4,4.2-4.1,6.2-5.3c-0.4,0-0.8,0-1.1,0.1C69.4,108,68.1,127.7,68,130z
		"/>
	<g>
		<path class="st7" d="M80.2,117.5c-2.6,4.5-4.4,9.4-5.3,14.6c-1.8,10.9,0.8,20.9,3.4,27.4c0.1,0.2,0.2,0.3,0.4,0.2
			c0.2,0,0.2-0.2,0.2-0.3c-2.5-6.4-5.1-16.3-3.3-27.1c0.9-5.1,2.6-10,5.2-14.4c0.1-0.1,0-0.3-0.1-0.4
			C80.5,117.4,80.4,117.5,80.2,117.5z"/>
	</g>
</g>
<g>
	<path class="st7" d="M484.4,205.2c1.7-1.7,16.2-16.1,25.8-9.2c2.4,1.7,5.1,5.3,5,8.6c-0.2,6.5-11.1,6.7-21.4,12.7
		c-15.2,8.8-20.6,24.9-23.4,30L468,247C467.1,240.5,471,218.8,484.4,205.2z"/>
	<path class="st8" d="M484.4,205.2c1.7-1.7,16.2-16.1,25.8-9.2c0.3,0.2,0.6,0.5,0.9,0.7c-2.4-0.4-5.3-0.7-8.5-0.2
		c-10.1,1.5-15.8,8.8-18.5,12.2c-1.3,1.6-7.8,10.1-9.5,24.5c-0.3,2.2-0.4,4.3-0.4,6.3c-1.7,3.3-2.9,6.1-3.8,7.7L468,247
		C467.1,240.5,471,218.8,484.4,205.2z"/>
	<path class="st9" d="M501.6,156.2c23.8-14,28.1,1.3,20.8,8.1c-3.8,3.5-21.7,13.2-32.3,24.8c-20.1,22.1-21.4,49.1-21.3,57.9
		l-0.7-0.1C465,234,456.1,183,501.6,156.2z"/>
	<path class="st7" d="M501.6,156.2c15.7-9.3,22.9-5.7,23.9-0.3c-1.1-1.1-2.5-2.2-4.3-2.9c-2.6-1.1-4.9-0.9-7.2-0.4
		c-5.8,1.3-11.1,4.4-17.2,9.6c-4.3,3.6-7.6,6.4-11.4,11c-7,8.6-11.2,18.3-13.1,24.7c-2.9,9.8-2.8,20.1-1.4,29.4
		c-1.9,8.7-2.1,16-2,19.8l-0.8-0.1C464.9,236.1,457.1,182.4,501.6,156.2z"/>
	<g>
		<path class="st7" d="M467.7,228.8c0.6-7.1,2.3-18,7.4-29.5c3.7-8.3,8.8-16.1,14.9-22.4c4.8-5,10.1-9.2,16-12.4
			c0.1-0.1,0.3,0,0.4,0.2l0,0c0.1,0.2,0,0.4-0.1,0.5c-5.8,3.3-11.1,7.4-15.8,12.4c-6.1,6.3-11.2,14-14.8,22.3
			c-5.1,11.4-6.8,22.3-7.3,29.3c-0.2,2.3-0.3,4.6-0.3,6.9c0,0.2-0.1,0.3-0.3,0.3c-0.2,0-0.3-0.2-0.3-0.4
			C467.5,233.4,467.6,231,467.7,228.8z"/>
	</g>
	<g>
		<path class="st10" d="M488.4,211.6c4.2-3.4,9-6,14.1-7.7c0.1,0.1,0.2,0.1,0.4,0.2c0.1,0.2,0,0.4-0.2,0.4c-5.1,1.7-9.8,4.2-14,7.6
			c-8.8,7.2-13.6,16.6-16.1,23.3c-0.1,0.2-0.2,0.2-0.4,0.1c-0.2-0.1-0.2-0.3-0.2-0.5C474.6,228.4,479.4,218.9,488.4,211.6z"/>
	</g>
	<path class="st9" d="M483.7,117c8.8,1.4,8.9,16.9,8.8,18.7c-0.1,14.4-9.6,28-13.6,31l-1.4-1.1c1.2-4.2,7-15.7,3.6-28.4
		c-2.3-8.7-8-14.6-4.7-18.2C478.2,117.1,481.5,116.6,483.7,117z"/>
	<path class="st7" d="M492.6,135.7c-0.1,14.4-9.6,28-13.6,31l-1.4-1.1c0.4-1.3,1.3-3.5,2.1-6.1c1.1-1.1,2.1-2.3,3.1-3.6
		c6.7-8.6,7.8-16.6,8-18.1c0.4-3.2,1.2-10.2-3.3-16.4c-1.4-1.9-3.1-3.4-4.6-4.4c0.3,0,0.6,0,0.9,0.1
		C492.5,118.4,492.6,133.9,492.6,135.7z"/>
	<g>
		<path class="st7" d="M483.6,125.3c1.8,3.6,3,7.6,3.4,11.7c0.9,8.6-1.6,16.3-3.9,21.2c-0.1,0.1-0.2,0.2-0.3,0.2
			c-0.1,0-0.2-0.2-0.1-0.3c2.3-4.9,4.8-12.5,3.9-21c-0.4-4.1-1.6-7.9-3.4-11.5c-0.1-0.1,0-0.2,0.1-0.3
			C483.4,125.3,483.5,125.3,483.6,125.3z"/>
	</g>
</g>
<path class="st11" d="M148.7,161l0.4-2.4c1-0.1,2.1-0.3,3-0.6l1.4,2c0.4,0.7,1.4,0.8,2,0.4l2.7-1.9c0.7-0.4,0.8-1.3,0.4-2l-1.3-2
	c0.7-0.8,1.2-1.7,1.7-2.6l2.4,0.4c0.8,0.1,1.3-0.3,1.5-1.1l0.6-3.2c0.1-0.8-0.1-1.7-0.9-1.8l-2.4-0.4c-0.1-1-0.3-1.9-0.6-2.9l2-1.3
	c0.7-0.4,0.8-1.3,0.4-2l-1.9-2.7c-0.4-0.7-1.3-0.8-2-0.4l-2,1.3c-0.8-0.7-1.7-1.2-2.6-1.7l0.4-2.4c0.1-0.8-0.2-1.7-1-1.8l-3.2-0.6
	c-0.8-0.1-1.7,0.5-1.9,1.3l-0.4,2.4c-1,0.1-1.9,0.3-2.9,0.6l-1.3-2c-0.4-0.7-1.3-0.8-2-0.4l-2.7,1.9c-0.7,0.4-0.8,1.3-0.4,2l1.4,1.9
	c-0.7,0.8-1.2,1.6-1.7,2.5l-2.4-0.4c-0.8-0.1-1.8,0.5-1.9,1.3l-0.6,3.2c-0.1,0.8,0.6,1.5,1.3,1.6l2.4,0.4c0.1,1,0.3,2.1,0.6,3
	l-2,1.4c-0.7,0.4-0.8,1.4-0.4,2l1.9,2.7c0.4,0.7,1.3,0.8,2,0.4l1.9-1.4c0.8,0.7,1.6,1.2,2.5,1.7l-0.4,2.4c-0.1,0.8,0.6,1.4,1.4,1.5
	l3.2,0.6C147.9,162.1,148.6,161.8,148.7,161z M141.7,145.6c0.7-3.7,4.2-6.1,7.9-5.4c3.7,0.7,6.1,4.2,5.4,7.9
	c-0.7,3.7-4.2,6.1-7.9,5.4C143.4,152.8,141,149.3,141.7,145.6z"/>
<path class="st12" d="M149.4,108.1l-1.5,0.6c-0.4-0.5-0.9-1.1-1.5-1.5l0.6-1.5c0.2-0.5,0-1.1-0.5-1.3l-2.1-0.8
	c-0.5-0.2-1.1,0-1.3,0.5l-0.6,1.5c-0.7-0.1-1.4-0.1-2.1,0l-0.6-1.5c-0.2-0.5-0.7-0.6-1.2-0.4l-2.1,0.9c-0.5,0.2-0.9,0.7-0.7,1.2
	l0.6,1.5c-0.5,0.4-1,0.9-1.4,1.4l-1.5-0.6c-0.5-0.2-1,0-1.2,0.5l-0.8,2.1c-0.2,0.5,0,1.1,0.5,1.3l1.5,0.6c-0.1,0.7,0,1.4,0,2.1
	l-1.5,0.6c-0.5,0.2-0.9,0.8-0.6,1.3l0.9,2.1c0.2,0.5,0.9,0.8,1.4,0.6l1.5-0.6c0.4,0.5,0.9,1,1.4,1.4l-0.6,1.5c-0.2,0.5,0,1,0.5,1.2
	l2.1,0.8c0.5,0.2,1.1,0,1.3-0.5l0.6-1.5c0.7,0.1,1.3,0.1,2,0l0.6,1.5c0.2,0.5,0.9,0.8,1.4,0.6l2.1-0.9c0.5-0.2,0.6-0.9,0.4-1.4
	l-0.6-1.5c0.5-0.4,1.1-0.9,1.5-1.5l1.5,0.6c0.5,0.2,1.1,0,1.3-0.5l0.8-2.1c0.2-0.5,0-1.1-0.5-1.3l-1.5-0.5c0.1-0.7,0.1-1.3,0-2
	l1.5-0.6c0.5-0.2,0.6-0.8,0.4-1.3l-0.9-2.1C150.3,108.1,149.9,107.9,149.4,108.1z M143.4,117.8c-2.3,1-5-0.1-6-2.4s0.1-5,2.4-6
	c2.3-1,5,0.1,6,2.4C146.8,114.1,145.7,116.8,143.4,117.8z"/>
<g>
	<g>
		<path class="st11" d="M345.1,112.1h-0.8c-0.9,0-1.6-0.7-1.6-1.6l-0.8-9.7c-0.1-1.6,1.2-3.1,2.8-3.1l0,0c1.7,0,3,1.4,2.8,3.1
			l-0.8,9.7C346.7,111.3,346,112.1,345.1,112.1z"/>
		<circle class="st11" cx="344.7" cy="116.5" r="2"/>
	</g>
</g>
<g>
	<ellipse class="st13" cx="199.7" cy="66.1" rx="16.1" ry="16.1"/>
	<path class="st11" d="M208.7,71.5c-1.2-0.8-4.2-2.8-4.8-2.8c-0.8,0-1.5,0.5-2,1c-0.4,0.4-1.1,0.5-1.5,0l-4.5-4.3
		c-0.4-0.4-0.5-1.1-0.1-1.5c0.4-0.5,0.9-1.2,1.1-1.9c0.1-0.4-2.9-5.1-3.3-5.1c-1.6-0.2-2.9,1.6-3.2,2.5c-0.2,0.6-0.1,1.2,0.1,1.9
		c1,3,2.6,5.2,2.7,5.3c1,1.3,1.9,2.2,3.1,3.3c2.7,2.5,4.5,3.6,5.1,3.9c0.8,0.4,2.2,1.2,4.1,1.4c0.7,0.1,1.3,0,1.8-0.2
		c0.9-0.4,1.4-1.2,1.5-1.5c0.1-0.1,0.2-0.4,0.4-0.8C209.2,72.3,209,71.8,208.7,71.5z"/>
</g>
<g>
	<g>
		<path class="st14" d="M307.3,102.5c-3.7-1.7-7.6-10.1-9-13.7c-2.8-7.1-9.6-10.8-11.6-12c-9.1-5.2-20.2-4.3-23.2-4
			c-7.1,0.7-19.1,3.8-20,9.6c-0.4,2.9,2,5.7,4.8,8.7c0.8,0.9,3.8,4.1,8.1,6.4c11.9,6.2,22.3-1.2,28.5,3.8c5.7,4.5,3.2,15.7,1.7,22.7
			c-1.8,8.2-7.3,9.7-3.8,12.8c2.3,2-3.8,0.7-2.6,3.2c0.8,1.7-2.5,2.3-4.1,3.6c-2,1.6,3.2,11.1,3.6,11.9c2.1,3.5-2.5,2.8,3.5,2.8
			c5.1,0,8.5,1,15.1-1.4c4.7-1.7,1.7-5.1,6.4-4c4.7,1.1,6.8,0.1,7.8-1.3c1.5-2.1,0.2-7,2.6-9c7.8-6.5,4-12.5,1.4-15.4
			c-2.5-2.8,0.2-6.5,2.7-10.8c1.7-2.8,1.4-6.9-1-9C315.5,105.1,312.3,104.8,307.3,102.5z"/>
		<ellipse class="st15" cx="312.9" cy="132.1" rx="3.2" ry="3.9"/>
		<path class="st14" d="M248.7,81.8c-4.8-0.6-37.5,11.8-29.3,29.6c1,2.2,0.3,8.6-2.6,14.7c-3.1,6.5,2.3,9.3,2.4,9.4
			c3.5,1.8,4.4,8.7,4.1,12.2c-0.1,0.8-0.1,1.8,0.3,2.9c0.7,1.6,2.8,4.7,8.7,6.1c7.9,1.9,19.3,1.6,22,0c4.1-2.5-1.7-12.7-2.6-18.6
			c-4-27.5-4.9-29-2.3-32.5c3.7-4.9,8.1-5.5,8.5-9.9C258.3,90.9,254.6,82.6,248.7,81.8z"/>
		<path class="st16" d="M237,261.6h69.6c-1-3.9-1.4-7.4-0.6-10.3c12.9-52.5,13.3-77.1,10.7-85.4c-0.4-1.1-36.8-11-57-8.7
			c-5.6,0.6-36.7,6.7-38,8.7s-1,40.5,13.6,80.8C237,251.3,237.4,256.4,237,261.6z"/>
		<path class="st17" d="M247.1,160.7c-2,2.2-3.9,4.3-4.6,6.9c-1.5,5.4,2.9,11,5.8,14.6c4.1,5.1,8.7,7.6,11.2,9
			c3.5,1.8,5.4,2.9,8.3,3.1c6.6,0.5,11.7-3.6,15-6.2c5.4-4.3,7.8-9.2,9-11.7c1.8-3.7,2.9-6,2.5-9c-0.5-3.9-3.3-6.6-5.8-8.4
			c-10-1.7-20.7-2.7-28.9-1.8c-1.7,0.2-6,0.9-11,1.9C248.2,159.6,247.7,160.1,247.1,160.7z"/>
		<path class="st18" d="M252.5,141.7c1.4,24.4,0.2,19.4-5.6,27.5c-1.6,2.2,14.3,20.3,23.1,20.3c6.2,0,20.9-17.4,19.2-21.3
			c-1.7-4.1-6.9-0.6-8-31.5c-0.1-2.3-4.3,6.5-10.8,8.3C262.5,147.4,252.3,138.1,252.5,141.7z"/>
		<path class="st19" d="M306.7,261.6c-1-3.9-1.4-7.4-0.6-10.3c3.1-12.6,5.5-23.6,7.3-33.2c0-8.1,1-11.1,0.1-11.3
			c-1.4-0.4-2.3,2-5.6,8.8c-6.6,13.7-8.5,23.8-9.1,27.1c-0.3,1.6-0.7,4-0.9,7.1c0,0-0.4,5.1,0.2,11.7L306.7,261.6L306.7,261.6z"/>
		<path class="st19" d="M235.3,246.7c1.7,4.6,2.1,9.8,1.7,14.9h8c0.1-5.9-0.4-10.3-0.4-10.3c-0.4-3.1-0.9-5.5-1.2-7.1
			c-0.7-3.3-3.1-13.4-10.4-26.7c-3.6-6.6-4.7-8.9-6-8.5c-0.9,0.3-0.5,0.1-0.1,8.3C228.8,225.8,232.1,237.7,235.3,246.7z"/>
		<path class="st20" d="M223.2,261.6c-2.8-3.9-3.9-4.8-5.6-4.9c-2.9-0.1-6.1,1.9-8.7,4.9H223.2z"/>
		<path class="st16" d="M225.8,261.6c-1.1-3-0.5-4.3-2.5-5.7c-5.9-4.4-23.7-3.4-25.6,5.7H225.8z"/>
		<path class="st20" d="M331.2,261.6c-2.6-3-5.9-5-8.7-4.9c-1.8,0.1-2.9,1-5.6,4.9H331.2z"/>
		<path class="st16" d="M342.4,261.6c-1.9-9.1-19.7-10.1-25.6-5.7c-1.9,1.4-1.4,2.7-2.5,5.7H342.4z"/>
		<path class="st21" d="M266.7,158.9c5.2,0.6,8.8-3.6,15.1-12.6c-0.3-6,0.8-8.9-0.6-9.5c-2.2-0.9-4.3,6.5-10.8,8.3
			c-8,2.2-14.6-6.9-17.3-4.3c-1,1-0.9,3.4-0.4,5.8C256.5,154.2,262.2,158.4,266.7,158.9z"/>
		<path class="st18" d="M246,124.1c0.1,1.1,0.6,4.7,2,9.2c1.3,4,2.6,8.3,6.2,12.6c1.9,2.2,5,5.9,10.1,7c1.9,0.4,3.4,0.3,3.9,0.3
			c4.6-0.3,7.7-2.9,9.2-4.2c3.3-2.7,10.1-10.2,12.3-23c1.2-6.7,3.8-21.6-5.9-31.1c-0.5-0.5-9.8-9.3-20.7-6.4
			c-7.5,2-11.4,8.3-13.2,11.2C244.3,108.9,245.4,118.8,246,124.1z"/>
		<path class="st14" d="M286.7,92.5c-7.5-6.8-18-7.4-25.4-4.1c-1.9,0.9-7.2,3.2-7.6,7.3c-0.4,4.3,4.7,8.4,8.8,9.9
			c5.1,1.9,11.9,0.7,12.8,0.6c1.8-0.3,3.4-0.8,5.7-0.3c0.2,0,3.2,0.7,5.6,3.1c5.4,5.3,3.3,14.8,4.5,14.9c1.1,0.1,4.9-8.3,3.1-17.5
			C293.7,103.3,291.9,97.3,286.7,92.5z"/>
		<g>
			<path class="st22" d="M270.8,128.7L270.8,128.7c-0.3,0.2-0.4,0.6-0.2,0.8c0.2,0.4,0.3,0.8,0.1,1c-0.3,0.4-1.5,0.8-3.1,0.7
				c-1.5-0.1-2.5-0.6-2.8-1c0,0-0.1-0.1-0.1-0.2c0-0.3-0.1-0.5-0.3-0.6h-0.1c-0.4-0.2-0.8,0.1-0.8,0.5c0,0.5,0.1,0.8,0.2,1
				c0.8,1.3,3.1,1.6,3.7,1.7c0.2,0,0.4,0,0.7,0c1,0,2.7-0.2,3.5-1.2c0.5-0.7,0.5-1.5,0.1-2.5C271.5,128.6,271.1,128.5,270.8,128.7z"
				/>
		</g>
		<g>
			<path class="st23" d="M261.9,114.8c-1.8-0.6-4.2-1.1-7-0.5c-0.9,0.2-1.8,0.5-2.7,0.9c-0.6,0.3-0.8,1-0.5,1.5s0.8,0.7,1.3,0.5
				c0.7-0.3,1.5-0.6,2.3-0.8c2.3-0.5,4.4-0.1,5.9,0.5c0.5,0.2,1.1-0.1,1.3-0.6l0,0C262.8,115.7,262.5,115,261.9,114.8z"/>
		</g>
		<g>
			<path class="st23" d="M282.6,115.2c-0.9-0.4-1.8-0.7-2.7-0.9c-2.8-0.6-5.2-0.1-7,0.5c-0.6,0.2-0.9,0.9-0.6,1.5l0,0
				c0.2,0.5,0.8,0.8,1.3,0.6c1.5-0.6,3.6-1,5.9-0.5c0.8,0.2,1.6,0.4,2.3,0.8c0.5,0.2,1.1,0,1.3-0.5
				C283.4,116.2,283.1,115.5,282.6,115.2z"/>
		</g>
		<path class="st24" d="M280.7,125.4c-2,0-3.6,0.9-3.6,1.9c0,1.1,1.6,1.9,3.6,1.9s3.6-0.9,3.6-1.9
			C284.3,126.3,282.7,125.4,280.7,125.4z"/>
		<path class="st24" d="M255.2,125.5c-2,0-3.6,0.9-3.6,1.9c0,1.1,1.6,1.9,3.6,1.9c2,0,3.6-0.9,3.6-1.9
			C258.8,126.4,257.2,125.5,255.2,125.5z"/>
		<path class="st22" d="M266.4,137.9c-3.4-0.1-4.7-2.2-5.3-0.7c-0.4,1,2.5,4.1,6.4,4.2c3.6,0,7.1-3.1,6.3-4.6
			C273.5,136.1,271,138,266.4,137.9z"/>
		<path class="st16" d="M197.5,261.6h28c0-4.9-3.3-18.8,2.7-49.1c0.6-3.1-2.9-48.6-6.5-46.6c-2.8,1.6-25.8,10.7-24.8,79
			C197,252.5,197.1,257.8,197.5,261.6z"/>
		<path class="st16" d="M314.6,261.6h28c0.4-3.8,0.5-9.1,0.6-16.7c0.9-68.3-24.6-78.4-27.8-79.6c-3.8-1.5-4.1,44.2-3.5,47.2
			C317.9,242.8,314.6,256.7,314.6,261.6z"/>
		<path class="st19" d="M225.8,261.6c-0.1-0.4-0.2-0.7-0.3-1.1c-0.4-5.7-2.9-19.7,2.7-48.1c0.1-0.3,0.6-1.2,0.6-2.3
			c-1.1-2-2.8-3.2-3.7-3c-1.4,0.3-1.5,3.9-2.3,12.3c-1.6,17.3-2.7,19.9-2.7,31c0,5.7,0.3,8.9,0.8,11.2H225.8z"/>
		<path class="st19" d="M314.6,260.5c-0.1,0.3-0.2,0.7-0.3,1.1h4.9c0.7-3.3,1-6.6,1.2-9.1c0.7-7.7,0.4-13.5,0-19
			c-0.1-1.4-0.7-10.8-3.7-22.5c-1-3.7-1.7-5.8-2.7-5.8c-0.8-0.1-2,1.8-2.7,3.3c0,2.5,0.5,3.4,0.6,3.9
			C317.5,240.8,315,254.8,314.6,260.5z"/>
		<g>
			<path class="st11" d="M307.1,128.1c0,0-0.8,0.4-1.1,0.4c-0.3-0.1-0.9-0.8-0.9-0.8s0.3,0.8,0.3,1c-0.1,0.3-0.7,0.9-0.7,0.9
				s0.8-0.3,1-0.3s0.9,0.7,0.9,0.7s-0.3-0.8-0.3-1C306.5,128.7,307.1,128.1,307.1,128.1z"/>
			
				<rect x="224.5" y="114.1" transform="matrix(0.9878 -0.1557 0.1557 0.9878 -17.1415 37.0836)" class="st25" width="7.3" height="27.7"/>
			
				<rect x="225.9" y="131.2" transform="matrix(0.9878 -0.1557 0.1557 0.9878 -18.4466 37.4045)" class="st26" width="7.3" height="10.5"/>
			
				<rect x="219" y="107.8" transform="matrix(0.1415 -0.9899 0.9899 0.1415 85.2194 315.6471)" class="st27" width="11.2" height="1.8"/>
			<path class="st28" d="M243.6,145.8l-5.3,0.9c-2.3,0.4-3.8-1.4-4.8-3.5c-3.7-7.8-5.5-27.8-5.1-30.9c0.3-2.3,1.2-4.5,3.5-4.8
				l5.3-0.9c5.2-0.4,4.7,1.2,5.2,2.7l5.2,32.4C247.9,143.9,247.8,145,243.6,145.8z"/>
			<path class="st27" d="M234.3,136.5c-0.8-0.7-1.8-1.8-3.1-6.7c-1.6-5.7-2-10.3-2.1-11.7c-0.2-2.1-0.3-4.8-0.1-8.1
				c-0.3,0.7-0.5,1.5-0.6,2.3c-0.4,3.1,1.4,23.1,5.1,30.9c1,2.1,2.6,3.8,4.8,3.5l5.3-0.9c4.3-0.8,4.3-1.9,3.9-4.1l-0.6-4
				c-1.7,0.7-3.8,1.2-6,1.2C239.6,138.8,236.6,138.6,234.3,136.5z"/>
			<path class="st28" d="M230.4,143.6c0.1,0.4-4.5-0.1-5-1c-2-3.1-5.2-20.9-4.4-26.3c0.3-1.8,3.5-8,3.6-6.2
				C224.7,118.2,227,132.9,230.4,143.6z"/>
			<path class="st29" d="M234.4,109.7c0-1,0.1-1.9,0.1-2.7l-1.2,0.2c-0.1,1.1-0.1,2.3-0.2,3.8c0,1.1-0.1,4.8,0.4,9.9
				c0.6,6,1.6,10.4,1.8,11.6c0.8,3.7,2.2,8.5,4.4,13.9l1.5-0.2c-1.8-5-3-9.3-3.8-12.6C235.9,127.2,234.1,119.6,234.4,109.7z"/>
			<path class="st30" d="M241.1,146.6L241.1,146.6c-0.4,0.1-0.7-0.2-0.8-0.6c-4.2-11-7.1-28.4-6.4-38.7c0-0.4,0.2-0.7,0.6-0.8l0,0
				c0.4-0.1,0.8,0.2,0.8,0.6c0.4,13.1,2.8,25.7,6.4,38.7C241.7,146.2,241.5,146.6,241.1,146.6z"/>
			<path class="st27" d="M230.4,143.6c-0.8-2.5-1.6-5.3-2.2-8.2c-0.5,0.1-1.1,0.1-1.7,0c-1.6-0.3-2.6-1.4-3.1-2
				c-0.4-0.5-0.7-1-1-1.6c0.9,4.9,2.1,9.3,3,10.7C225.9,143.5,230.5,144,230.4,143.6z"/>
			<path class="st30" d="M223.7,115.6c-0.2,0-0.4,0.9-0.5,1.2c-0.1,0.5-0.1,0.9-0.1,1.1c0.1,3.1,0.5,5.9,0.5,5.9
				c0.2,1.5,0.3,2.1,0.5,3c0.3,1.2,0.5,2.1,1.1,3.1c0.3,0.5,0.9,1.2,0.9,1C225.6,127.6,224.1,115.6,223.7,115.6z"/>
			<path class="st31" d="M226.4,91.1c1.3-5,3.5-8.5,4.8-10.6c4.1-6.5,9-10.1,12.5-12.7c1.4-1,3.2-2.2,5.3-3.5
				c-5.8,2.4-9.8,5.4-11.7,7.1c-6.9,5.8-10,12.2-10.9,14c-3.6,7.7-4,14.8-3.8,18.9c0,0.6,0.4,1,1,1.1l1.8,0.3c0.2,0,0.4,0,0.6-0.1
				C225.3,101.8,225,96.7,226.4,91.1z"/>
			
				<rect x="293.6" y="124.2" transform="matrix(0.1576 -0.9875 0.9875 0.1576 132.668 411.3187)" class="st25" width="27.7" height="7.3"/>
			
				<rect x="300.8" y="132.8" transform="matrix(0.1576 -0.9875 0.9875 0.1576 123.1253 417.2063)" class="st26" width="10.5" height="7.3"/>
			
				<rect x="310.2" y="103.2" transform="matrix(0.9902 -0.1396 0.1396 0.9902 -12.1414 44.4932)" class="st27" width="1.8" height="11.2"/>
			<path class="st28" d="M292,145.8l5.3,0.9c2.3,0.4,3.8-1.4,4.8-3.5c3.8-7.8,5.6-27.8,5.2-30.9c-0.3-2.3-1.2-4.5-3.5-4.8l-5.3-0.9
				c-5.2-0.4-4.7,1.2-5.2,2.7l-5.3,32.4C287.7,143.9,287.8,145,292,145.8z"/>
			<path class="st27" d="M301.4,136.5c0.8-0.7,1.8-1.8,3.1-6.7c1.6-5.7,2-10.3,2.1-11.7c0.2-2.1,0.3-4.8,0.1-8.1
				c0.3,0.7,0.5,1.5,0.6,2.3c0.4,3.1-1.4,23.1-5.2,30.9c-1,2.1-2.6,3.8-4.8,3.5l-5.3-0.9c-4.3-0.8-4.3-1.9-3.9-4.2l0.6-4
				c1.7,0.7,3.8,1.3,6,1.2C296,138.7,299,138.6,301.4,136.5z"/>
			<path class="st28" d="M305.2,143.6c-0.1,0.4,4.5-0.1,5-1c2-3.1,5.2-20.9,4.4-26.3c-0.3-1.8-3.5-8-3.5-6.2
				C311,118.2,308.7,132.9,305.2,143.6z"/>
			<path class="st29" d="M308.5,91.3c-3.1-9.1-9-14.4-11.5-16.5c-6.9-5.6-13.8-7-18.1-7.8c-4.5-0.9-8.5-1-11.8-0.8
				c-2.9-0.1-6.4,0.1-10.2,0.8c-4.2,0.8-11.2,2.3-18.1,7.8c-2.6,2.1-8.5,7.4-11.6,16.5c-1.8,5.4-2.7,11.3-2.6,14.3l1.7,0.2
				c0.8,0.1,1.4-0.5,1.5-1.2c0.2-3,0.8-7.4,2.6-11.8c3-7.5,7.6-11.9,8.6-12.9c6.1-5.7,12.7-7.4,15.8-8.4c6.1-1.9,20-1.9,26,0
				c3.1,1,9.7,2.7,15.8,8.4c1.1,1,5.6,5.4,8.6,12.9c1.8,4.4,2.4,8.8,2.6,11.8c0,0.8,0.7,1.3,1.5,1.2l1.7-0.2
				C311.2,102.6,310.3,96.7,308.5,91.3z"/>
			<path class="st32" d="M309.3,85.4c-0.8-1.8-4-8.2-10.8-14c-2.2-1.9-6.9-5.5-13.8-7.9c-6.7-2.4-22.9-3.9-33.7,0
				c-6.9,2.5-11.6,6-13.8,7.9c-6.9,5.8-10,12.2-10.9,14c-3.6,7.7-4,14.8-3.8,18.9c0,0.6,0.4,1,1,1.1l1.8,0.3
				c0.7,0.1,1.3-0.4,1.3-1.2c0-1.8,0.1-4,0.5-6.4c0.3-2.2,0.8-5.4,2.2-9.1c0.7-1.7,2.7-6.4,7.2-10.9c5-5.1,10.5-6.9,12.7-8
				c6.7-3.4,24-5.2,37.2,0c2.3,0.9,7.7,2.9,12.7,8.1c4.5,4.5,6.5,9.2,7.1,10.9c1.4,3.7,1.9,6.9,2.2,9.1c0.3,2.4,0.5,4.7,0.5,6.4
				c0,0.7,0.6,1.3,1.3,1.2l1.8-0.2c0.6-0.1,1-0.5,1-1.1C313.2,100.2,312.9,93.1,309.3,85.4z"/>
			<path class="st29" d="M301.3,109.7c0-1-0.1-1.9-0.1-2.7l1.2,0.2c0.1,1.1,0.1,2.3,0.2,3.8c0,1.1,0.1,4.8-0.4,9.9
				c-0.6,5.9-1.6,10.4-1.9,11.6c-0.9,3.7-2.2,8.5-4.5,13.9l-1.5-0.2c1.8-5,3-9.3,3.8-12.6C299.7,127.2,301.6,119.6,301.3,109.7z"/>
			<path class="st30" d="M294.5,146.6L294.5,146.6c0.4,0.1,0.7-0.2,0.8-0.5c4.2-11,7.1-28.4,6.5-38.7c0-0.4-0.2-0.7-0.6-0.8l0,0
				c-0.4-0.1-0.8,0.2-0.8,0.5c-0.5,13.1-2.8,25.7-6.5,38.7C293.9,146.2,294.2,146.6,294.5,146.6z"/>
			<path class="st30" d="M312,115.6c0.2,0,0.4,0.9,0.5,1.2c0.1,0.5,0.1,0.9,0.1,1.1c-0.1,3.1-0.5,5.9-0.5,5.9
				c-0.2,1.5-0.3,2.1-0.5,3c-0.3,1.2-0.5,2.1-1.1,3.1c-0.3,0.5-0.9,1.2-0.9,1C310,127.6,311.6,115.6,312,115.6z"/>
		</g>
		<g>
			<path class="st33" d="M258.2,118.8c-1,0-1.8,1.2-1.8,2.7s0.8,2.7,1.8,2.7s1.8-1.2,1.8-2.7C260,119.9,259.2,118.8,258.2,118.8z"/>
			<path class="st33" d="M276.3,118.8c-1,0-1.8,1.2-1.8,2.7s0.8,2.7,1.8,2.7s1.8-1.2,1.8-2.7C278.2,119.9,277.4,118.8,276.3,118.8z"
				/>
		</g>
		<g>
			<path class="st15" d="M305.5,151.2c-5.4,0-13.8-1.7-23.6-3.8c-2.2-0.5-4.2-0.9-6-1.3l0.3-1.7c1.8,0.4,3.8,0.8,6,1.3
				c5.4,1.2,11.6,2.5,16.9,3.2c7.3,1,9.9,0.4,10.8-0.3c0.1-0.1,0.9-1,2.1-7c0.7-3.6,1.3-7.5,1.5-9.4c0.1-0.6,0.1-1,0.2-1.2l1.7,0.3
				c0,0.1-0.1,0.6-0.2,1.1c-1.6,11.2-2.9,16.4-4.3,17.5C309.9,150.8,308.1,151.2,305.5,151.2z"/>
		</g>
		<ellipse class="st25" cx="278" cy="145.6" rx="4.5" ry="3.2"/>
		<path class="st15" d="M279.1,142.5c0.5,0.5,0.8,1.2,0.8,1.8c0,1.8-2,3.2-4.5,3.2c-0.4,0-0.8,0-1.1-0.1c0.8,0.8,2.2,1.4,3.7,1.4
			c2.5,0,4.5-1.4,4.5-3.2C282.5,144.1,281.1,142.9,279.1,142.5z"/>
	</g>
	<g>
		<rect x="217.6" y="253.9" class="st34" width="11.5" height="3.8"/>
		<rect x="304.8" y="253.9" class="st34" width="11.5" height="3.8"/>
		<path class="st35" d="M319.7,255.2H215.5c-2.4,0-4.3-1.9-4.3-4.3v-59.3c0-2.4,1.9-4.3,4.3-4.3h104.2c2.4,0,4.3,1.9,4.3,4.3v59.3
			C324,253.3,322.1,255.2,319.7,255.2z"/>
		<path class="st36" d="M321.7,261.6H213.5c-1.2,0-2.3-1-2.3-2.3v-0.6c0-1.2,1-2.3,2.3-2.3h108.3c1.2,0,2.3,1,2.3,2.3v0.6
			C324,260.6,323,261.6,321.7,261.6z"/>
		<path class="st37" d="M322.2,256.5H213c-0.8,0-1.5,0.5-1.7,1.3h105.8c1,0,1.8,0.8,1.8,1.8v1.5c0,0.2,0,0.4-0.1,0.5h3.4
			c1,0,1.8-0.8,1.8-1.8v-1.5C324,257.3,323.2,256.5,322.2,256.5z"/>
		<path class="st36" d="M319,187.4c-0.1,4-0.5,9-1.5,14.7c-2.1,12.3-3.8,22.3-11.7,31.2c-2.3,2.5-8.5,8.7-17.9,11.7
			c-2.3,0.7-5.3,1.2-11.1,2.1c-2.9,0.5-10.8,1.7-18.8,2.6c-15,1.6-35.7,2.3-45.5,2.6c1.2,1.7,3.1,2.8,5.3,2.8h99.8
			c3.6,0,6.5-2.9,6.5-6.5v-55C324,190.7,321.9,188.1,319,187.4z"/>
		<polygon class="st11" points="243.9,187.3 211.2,224.8 211.2,236.3 254,187.3 		"/>
		<circle class="st36" cx="267.6" cy="219.3" r="5.1"/>
		<path class="st37" d="M267.6,214.2c-1.7,0-3.3,0.9-4.2,2.2c0.8-0.6,1.8-0.9,2.9-0.9c2.8,0,5.1,2.3,5.1,5.1c0,1.1-0.3,2.1-0.9,2.9
			c1.3-0.9,2.2-2.5,2.2-4.2C272.7,216.5,270.5,214.2,267.6,214.2z"/>
	</g>
</g>
<g>
	<path class="st11" d="M175.6,193.6c0,0.8,0,1.8,0.1,3.1c0,0.7,0.1,1.3,0.2,2.2c0.1,1.4,0.3,2.7,0.8,4.3c0.2,0.7,0.4,1.2,0.6,1.6
		l0,0l0,0c0,0.4,1.4,0.6,3.2,0.6s3.2-0.3,3.2-0.6l0,0l0,0c0.2-0.3,0.4-0.9,0.6-1.6c0.5-1.6,0.6-2.9,0.8-4.3c0.1-0.9,0.1-1.6,0.2-2.2
		c0.1-1.3,0.1-2.3,0.1-3.1H175.6z"/>
	<path class="st38" d="M182.6,193.6c0.1,2.7,0,6-0.9,8.4c-0.6,1.6-1.4,2.2-1.9,2.5c-0.8,0.5-1.7,0.5-2.5,0.5
		c0.3,0.3,1.6,0.5,3.1,0.5c1.8,0,3.2-0.3,3.2-0.6l0,0l0,0c0.2-0.3,0.4-0.9,0.6-1.6c0.5-1.6,0.6-2.9,0.8-4.3c0.1-0.9,0.1-1.6,0.2-2.2
		c0.1-1.3,0.1-2.3,0.1-3.1L182.6,193.6L182.6,193.6z"/>
	<path class="st11" d="M187.7,195.3c-0.5-0.3-0.9-0.3-1.3-0.3c-0.3,0-0.7,0-1.1,0.2c-0.2,0.1-0.4,0.2-0.6,0.4
		c-0.4,0.5-0.3,1.2,0,1.4c0.2,0.1,0.4-0.1,0.5-0.2c0.1-0.1,0.1-0.2,0.3-0.4c0.1-0.1,0.2-0.2,0.3-0.3c0.2-0.2,0.5-0.2,0.6-0.2
		s0.5,0,0.8,0.1c0.6,0.3,0.8,0.8,0.8,0.9c0.2,0.6,0.1,1.2,0,1.4c-0.1,0.4-0.3,0.6-0.5,0.9c-0.2,0.3-0.4,0.4-0.7,0.8
		c-1.1,1-1.9,1.6-2.1,1.6c-0.2,0-0.3-0.3-0.4-0.3c-0.3,0-0.9,2-0.5,2.1c0.1,0,0.2,0,0.8-0.6c0.7-0.6,1.2-1.1,1.6-1.4
		c0.6-0.6,0.7-0.6,1.1-1c0.6-0.6,0.8-1,0.9-1.1c0.2-0.3,0.4-0.6,0.5-1.1c0-0.2,0.1-0.7-0.1-1.3C188.6,196.4,188.4,195.7,187.7,195.3
		z"/>
	<path class="st39" d="M181.2,182.3c-0.5-1.2,0.8-2.4,0.7-2.5c-0.2-0.1-2.3,1.9-1.8,3.6c0.4,1.3,1.9,1.3,2.2,2.7
		c0.1,0.8-0.2,1.8-0.8,2.2c-0.3,0.3-2.5,1.1-2.5,3c0,1.4,1.2,2.6,1.2,2.6s-0.2-2,0.9-3.1c0.7-0.7,1.3-0.2,2.3-0.9
		c1.1-0.8,1.8-2.4,1.3-3.5C183.6,183.9,181.7,183.9,181.2,182.3z"/>
	<path class="st39" d="M177,175.2c-0.1,0.1,0.3,0.4,0.5,1.1c0.1,0.4,0.3,1,0.1,1.6c-0.2,0.9-0.8,0.9-1.1,1.6
		c-0.6,1.6,1.3,3.5,1.4,3.5c0.1,0-1-1.5-0.6-3.1c0.3-1.3,1.4-1.4,1.5-2.4C178.9,176.2,177.1,175.1,177,175.2z"/>
	<g>
		<g>
			<path class="st40" d="M121.1,252.9L121.1,252.9c0.6-0.1,1-0.6,0.9-1.2l-4.2-29.9c-0.1-0.6-0.6-1-1.2-0.9l0,0
				c-0.6,0.1-1,0.6-0.9,1.2l4.2,29.9C120,252.6,120.5,253,121.1,252.9z"/>
		</g>
		<g>
			<path class="st40" d="M101.2,252.1l4-30c0.1-0.6-0.3-1.1-0.9-1.2l0,0c-0.6-0.1-1.1,0.3-1.2,0.9l-4,30c-0.1,0.6,0.3,1.1,0.9,1.2
				l0,0C100.6,253.1,101.1,252.7,101.2,252.1z"/>
		</g>
	</g>
	<rect x="100.5" y="238.1" class="st41" width="18.7" height="2.4"/>
	<g>
		<polygon class="st42" points="134.9,251.4 133.2,251.1 137.9,206.2 141.5,206.7 		"/>
	</g>
	<g>
		<polygon class="st42" points="177.4,251.4 179.1,251.1 174.4,206.2 170.8,206.7 		"/>
	</g>
	<g>
		<g>
			<path class="st43" d="M122.6,257.2L122.6,257.2c0.6-0.1,1-0.6,0.9-1.2l-4.2-29.9c-0.1-0.6-0.6-1-1.2-0.9l0,0
				c-0.6,0.1-1,0.6-0.9,1.2l4.2,29.9C121.5,256.9,122,257.3,122.6,257.2z"/>
		</g>
		<g>
			<path class="st43" d="M99.6,256.4l4-30c0.1-0.6-0.3-1.1-0.9-1.2l0,0c-0.6-0.1-1.1,0.3-1.2,0.9l-4,30c-0.1,0.6,0.3,1.1,0.9,1.2
				l0,0C99,257.4,99.5,257,99.6,256.4z"/>
		</g>
	</g>
	<g>
		<g>
			<path class="st43" d="M122.6,257.2L122.6,257.2c0.6-0.1,1-0.6,0.9-1.2l-4.2-29.9c-0.1-0.6-0.6-1-1.2-0.9l0,0
				c-0.6,0.1-1,0.6-0.9,1.2l4.2,29.9C121.5,256.9,122,257.3,122.6,257.2z"/>
		</g>
		<g>
			<path class="st43" d="M99.6,256.4l4-30c0.1-0.6-0.3-1.1-0.9-1.2l0,0c-0.6-0.1-1.1,0.3-1.2,0.9l-4,30c-0.1,0.6,0.3,1.1,0.9,1.2
				l0,0C99,257.4,99.5,257,99.6,256.4z"/>
		</g>
	</g>
	<path class="st44" d="M116.5,224.1H99.9l-4.6-32.8h15.8c0.9,0,1.7,0.7,1.8,1.6L116.5,224.1z"/>
	<rect x="118.4" y="222.5" class="st43" width="17.8" height="3.5"/>
	<path class="st18" d="M112.6,252.5c-0.2-0.5,0.1-1.2,0.6-2.6c0.5-1.6,0.8-2.4,1.4-2.6c0.2-0.1,0.2-0.1,2.2,0.1
		c1.1,0.1,1.3,0.1,1.5,0.3c0.4,0.4,0.1,1.2,0,2.4c-0.2,2.3,0.6,2.9,0.1,3.6C117.5,254.9,113.3,254.3,112.6,252.5z"/>
	<path class="st18" d="M141.3,252.5c-0.2-0.5,0.1-1.2,0.6-2.6c0.5-1.6,0.8-2.4,1.4-2.6c0.2-0.1,0.2,0.4,0.9,0.5
		c1.1,0.2,1.6,3.3,3.4,5.4C148.6,254.4,141.9,254.3,141.3,252.5z"/>
	<path class="st45" d="M111.1,211c0.9,2,6.6-0.7,22.3,3.3c2.3,0.6,3.5,4.9,3.7,5.7c0,0,1.3,4.7,4.2,14c2.6,8.4,5.4,14.3,4.7,15.6
		c-0.4,0.7-3.9,1.8-4.6,0.7c-12-18.8-9-25.1-11.8-26.8c-1-0.6-1.5-0.6-3.4-1c0,0-6.1-1.5-11.6-5.4c-4.2-3-8.2-7.6-7.2-9.2
		c0.1-0.1,0.2-0.2,3.1-1c2.3-0.7,2.8-0.8,3.7-0.7C115.2,206.3,109.8,207.8,111.1,211z"/>
	<path class="st46" d="M127.6,218.1c1.4,0.3,3.5,0.6,4.7,2.2c0.9,1.2,0.9,2.6,1,3.2c0.2,6.5,4.8,15.8,7.2,20.8
		c0.8,1.6,1.9,3.7,3.5,6.3c-1,0.2-2.1,0.3-2.5-0.3c-12-18.8-9-25.1-11.8-26.8c-1-0.6-1.5-0.6-3.4-1c0,0-6.1-1.5-11.6-5.4
		c-4.2-3-8.2-7.6-7.2-9.2c0.1-0.1,0.1-0.2,2-0.7c4.6,4.1,8,6.1,9.8,7C124.3,216.7,126.8,218,127.6,218.1z"/>
	<path class="st43" d="M101.4,211.6c0.5-4.5,1-10,5.2-14.9c1.9-2.3,4-3.8,5.8-4.8c0.3,0.3,0.5,0.6,0.5,1.1l3.6,31.2H102
		C101.3,220.5,100.9,216.3,101.4,211.6z"/>
	<polygon class="st47" points="118.8,219.9 111.7,220.4 101.7,222.4 126.6,222.7 	"/>
	<path class="st13" d="M104.6,206.5c-1.2,1.2-2.3,2.1-2.7,4.2c-0.3,1.7,0.1,4.1,0.8,5.9c1.2,3.1,5.1,4.2,6.9,4.7
		c6.7,1.9,12.5,0.9,12.5,0.9s-0.1,1.6-2,6.3c-1.7,4.2-5.8,15.4-6.7,19c-0.2,1,3.6,2.3,5,1.9c1.7-0.4,7.4-11.9,11.5-21.1
		c2.6-6,4.4-10.4,0.3-13.3c-3.5-2.5-15-3.6-16.5-5.2c-0.8-0.8,1.9-2.4,1.3-3.1C113.1,204.4,107.3,203.8,104.6,206.5z"/>
	<path class="st48" d="M101.9,210.7c0.4-2.1,1.5-3,2.7-4.2c0.4-0.4,0.9-0.7,1.4-1c-0.6,1.8-1.4,5.3,0.4,8.6c1.6,2.8,4.4,4,5.5,4.4
		c1.8,0.8,3.4,0.9,5.5,1.2c4.8,0.5,7.1,0.6,7.1,0.6c1.2,1.4-0.4,4.4-2.6,9.3c0,0-0.5,1.1-5.4,13.2c-0.6,1.6-1.3,3.5-2,5.7
		c-0.6-0.3-1-0.7-0.9-1c0.9-3.7,5-14.9,6.7-19c1.9-4.7,2-6.3,2-6.3s-5.8,1-12.5-0.9c-1.7-0.5-5.7-1.6-6.9-4.7
		C102.1,214.9,101.6,212.4,101.9,210.7z"/>
	<g>
		<path class="st49" d="M111.9,252.5c0.2-0.7,0.2-1.2,0.4-1.2c1-0.2,5.1,0,5.1,0s-0.4-1.2-0.3-1.8c0.1-0.3,1.1-0.3,1.2-0.1
			c0.2,0.4-0.2,0.9,0,1.9c0.1,0.5,0.3,0.8,0.4,0.9c0.4,0.6,1.1,1,2.6,1.7c0.6,0.3,0.9,0.4,1.2,0.5c1,0.2,1.7,0.2,1.7,0.2
			c0.2,0,0.4,0,0.7,0.1c0.3,0.1,0.4,0.3,0.5,0.4c0.3,0.4,0.4,1.1,0.2,1.5c-0.2,0.4-0.7,0.5-1.6,0.5c-2.1,0.2-3.9,0.1-4.5,0
			c-1.6-0.1-1.5-0.2-2.3-0.2c-2-0.1-3.1,0-3.1,0c-0.3,0-1.1,0-2.2-0.2c-0.5-0.1-0.6-0.2-0.7-0.3c-0.3-0.4,0-0.9,0.4-2.5
			C111.8,253.4,111.8,253.2,111.9,252.5z"/>
		<g>
			<g>
				<path class="st50" d="M116.7,252c0.2-0.1,0.4-0.2,0.7-0.3c0.3-0.1,0.6-0.2,0.9-0.3c0.1,0,0.1,0,0.2,0.1l0,0c0,0.1,0,0.1-0.1,0.2
					c-0.3,0.1-0.6,0.2-0.8,0.3c-0.2,0.1-0.4,0.2-0.6,0.3c-0.1,0-0.1,0-0.2,0l0,0C116.6,252.1,116.7,252.1,116.7,252z"/>
			</g>
			<g>
				<path class="st50" d="M117.8,252.4c0.1-0.1,0.2-0.1,0.3-0.2c0.2-0.1,0.3-0.2,0.5-0.3c0.1,0,0.2,0,0.2,0.1l0,0
					c0,0.1,0,0.1-0.1,0.2c-0.2,0.1-0.3,0.2-0.5,0.2c-0.1,0-0.2,0.1-0.2,0.2c-0.1,0-0.1,0-0.2,0l0,0
					C117.7,252.6,117.7,252.5,117.8,252.4z"/>
			</g>
			<g>
				<path class="st50" d="M118.8,252.7c0.1-0.1,0.2-0.1,0.2-0.1c0.1,0,0.2,0,0.2,0.1l0,0c0,0.1,0,0.1-0.1,0.2
					c-0.1,0-0.1,0.1-0.2,0.1s-0.1,0.1-0.2,0.1c0,0.1-0.1,0.1-0.2,0l0,0c-0.1,0-0.1-0.1,0-0.2C118.7,252.8,118.7,252.7,118.8,252.7z"
					/>
			</g>
			<g>
				<path class="st50" d="M119.4,253l0.1-0.1c0.1,0,0.2,0,0.2,0.1l0,0c0,0.1,0,0.1,0,0.2c0,0-0.1,0-0.1,0.1l-0.1,0.1
					c-0.1,0-0.1,0-0.2,0l0,0c-0.1-0.1,0-0.1,0-0.2C119.3,253.1,119.3,253.1,119.4,253z"/>
			</g>
			<g>
				<path class="st50" d="M120.2,253.4C120.2,253.3,120.2,253.3,120.2,253.4c0.2-0.1,0.3,0,0.3,0.1l0,0c0,0.1,0,0.1-0.1,0.1l0,0
					c-0.1,0-0.1,0.1-0.1,0.1c0,0.1-0.1,0.1-0.2,0.1s-0.1-0.1-0.1-0.2C120,253.5,120.1,253.4,120.2,253.4z"/>
			</g>
		</g>
		<path class="st51" d="M111.9,252.5c0.2-0.7,0.2-1.2,0.4-1.2c0.2,0,0.5-0.1,0.9-0.1c-0.1,0.5-0.3,1.2,0.1,2.1
			c0.1,0.2,0.4,0.7,0.9,1.2c1.1,0.9,4.2,1.2,5,1.3c2.5,0.2,5.1,0,6.5-0.2c0.1,0.3,0.1,0.7,0,1c-0.2,0.4-0.7,0.5-1.6,0.5
			c-2.1,0.2-3.9,0.1-4.5,0c-1.6-0.1-1.5-0.2-2.3-0.2c-2-0.1-3.1,0-3.1,0c-0.3,0-1.1,0-2.2-0.2c-0.5-0.1-0.6-0.2-0.7-0.3
			c-0.3-0.4,0-0.9,0.4-2.5C111.8,253.4,111.8,253.2,111.9,252.5z"/>
		<path class="st52" d="M115.1,255.6c1.2,0.2,1.2,0.2,2.2,0.3c0.1,0,1.6,0.2,3.2,0.2c1.9,0,3.7-0.1,5.1-0.4c0.1,0.3,0,0.6-0.1,0.8
			c-0.2,0.4-0.7,0.5-1.6,0.5c-2.1,0.2-3.9,0.1-4.5,0c-1.6-0.1-1.5-0.2-2.3-0.2c-2-0.1-3.1,0-3.1,0c-0.3,0-1.1,0-2.2-0.2
			c-0.5-0.1-0.6-0.2-0.7-0.3c-0.2-0.3-0.1-0.6,0.1-1.3C112.3,255.3,114.2,255.5,115.1,255.6z"/>
	</g>
	<g>
		<path class="st49" d="M140.9,252.5c0.2-0.7,0.2-1.2,0.4-1.2c1-0.2,5.1,0,5.1,0s-0.4-1.2-0.3-1.8c0.1-0.3,1.1-0.3,1.2-0.1
			c0.2,0.4-0.2,0.9,0,1.9c0.1,0.5,0.3,0.8,0.4,0.9c0.4,0.6,1.1,1,2.6,1.7c0.6,0.3,0.9,0.4,1.2,0.5c1,0.2,1.7,0.2,1.7,0.2
			c0.2,0,0.4,0,0.7,0.1s0.4,0.3,0.5,0.4c0.3,0.4,0.4,1.1,0.2,1.5s-0.7,0.5-1.6,0.5c-2.1,0.2-3.9,0.1-4.5,0c-1.6-0.1-1.5-0.2-2.3-0.2
			c-2-0.1-3.1,0-3.1,0c-0.3,0-1.1,0-2.2-0.2c-0.5-0.1-0.6-0.2-0.7-0.3c-0.3-0.4,0-0.9,0.4-2.5C140.7,253.4,140.7,253.2,140.9,252.5z
			"/>
		<g>
			<g>
				<path class="st50" d="M145.7,252c0.2-0.1,0.4-0.2,0.7-0.3s0.6-0.2,0.9-0.3c0.1,0,0.1,0,0.2,0.1l0,0c0,0.1,0,0.1-0.1,0.2
					c-0.3,0.1-0.6,0.2-0.8,0.3s-0.4,0.2-0.6,0.3c-0.1,0-0.1,0-0.2,0l0,0C145.6,252.1,145.6,252.1,145.7,252z"/>
			</g>
			<g>
				<path class="st50" d="M146.7,252.4c0.1-0.1,0.2-0.1,0.3-0.2c0.2-0.1,0.3-0.2,0.5-0.3c0.1,0,0.2,0,0.2,0.1l0,0
					c0,0.1,0,0.1-0.1,0.2c-0.2,0.1-0.3,0.2-0.5,0.2c-0.1,0-0.2,0.1-0.2,0.2c-0.1,0-0.1,0-0.2,0l0,0
					C146.7,252.6,146.7,252.5,146.7,252.4z"/>
			</g>
			<g>
				<path class="st50" d="M147.7,252.7c0.1-0.1,0.2-0.1,0.2-0.1c0.1,0,0.2,0,0.2,0.1l0,0c0,0.1,0,0.1-0.1,0.2
					c-0.1,0-0.1,0.1-0.2,0.1c-0.1,0-0.1,0.1-0.2,0.1c0,0.1-0.1,0.1-0.2,0l0,0c-0.1,0-0.1-0.1,0-0.2
					C147.6,252.8,147.7,252.7,147.7,252.7z"/>
			</g>
			<g>
				<path class="st50" d="M148.3,253l0.1-0.1c0.1,0,0.2,0,0.2,0.1l0,0c0,0.1,0,0.1,0,0.2c0,0-0.1,0-0.1,0.1l-0.1,0.1
					c-0.1,0-0.1,0-0.2,0l0,0c-0.1-0.1,0-0.1,0-0.2C148.2,253.1,148.3,253.1,148.3,253z"/>
			</g>
			<g>
				<path class="st50" d="M149.1,253.4C149.2,253.3,149.2,253.3,149.1,253.4c0.2-0.1,0.3,0,0.3,0.1l0,0c0,0.1,0,0.1-0.1,0.1l0,0
					c-0.1,0-0.1,0.1-0.1,0.1c0,0.1-0.1,0.1-0.2,0.1c-0.1,0-0.1-0.1-0.1-0.2C149,253.5,149,253.4,149.1,253.4z"/>
			</g>
		</g>
		<path class="st51" d="M140.9,252.5c0.2-0.7,0.2-1.2,0.4-1.2s0.5-0.1,0.9-0.1c-0.1,0.5-0.3,1.2,0.1,2.1c0.1,0.2,0.4,0.7,0.9,1.2
			c1.1,0.9,4.2,1.2,5,1.3c2.5,0.2,5.1,0,6.5-0.2c0.1,0.3,0.1,0.7,0,1c-0.2,0.4-0.7,0.5-1.6,0.5c-2.1,0.2-3.9,0.1-4.5,0
			c-1.6-0.1-1.5-0.2-2.3-0.2c-2-0.1-3.1,0-3.1,0c-0.3,0-1.1,0-2.2-0.2c-0.5-0.1-0.6-0.2-0.7-0.3c-0.3-0.4,0-0.9,0.4-2.5
			C140.7,253.4,140.7,253.2,140.9,252.5z"/>
		<path class="st52" d="M144.1,255.6c1.2,0.2,1.2,0.2,2.2,0.3c0.1,0,1.6,0.2,3.2,0.2c1.9,0,3.7-0.1,5.1-0.4c0.1,0.3,0,0.6-0.1,0.8
			c-0.2,0.4-0.7,0.5-1.6,0.5c-2.1,0.2-3.9,0.1-4.5,0c-1.6-0.1-1.5-0.2-2.3-0.2c-2-0.1-3.1,0-3.1,0c-0.3,0-1.1,0-2.2-0.2
			c-0.5-0.1-0.6-0.2-0.7-0.3c-0.2-0.3-0.1-0.6,0.1-1.3C141.3,255.3,143.1,255.5,144.1,255.6z"/>
	</g>
	<path class="st53" d="M101.3,222.5h18.4c0.9,0,1.7,0.8,1.7,1.7v0.1c0,0.9-0.8,1.7-1.7,1.7h-18.4c-0.9,0-1.7-0.8-1.7-1.7v-0.1
		C99.6,223.3,100.4,222.5,101.3,222.5z"/>
	<path class="st53" d="M100.8,225.3h0.3c0.5-0.1,0.9-0.6,0.8-1.1l-4.4-32.1c-0.1-0.5-0.6-0.9-1.1-0.8h-0.3c-0.5,0.1-0.9,0.6-0.8,1.1
		l4.4,32.1C99.8,225,100.3,225.4,100.8,225.3z"/>
	<g>
		<polygon class="st54" points="180.3,257.5 182.2,257.3 176.8,206.4 172.9,206.9 		"/>
		<polygon class="st55" points="176.8,206.4 177.2,210 174.8,210.3 181.1,257.4 180.3,257.5 172.9,206.9 		"/>
	</g>
	<g>
		<polygon class="st54" points="132,257.5 130.1,257.3 135.5,206.4 139.4,206.9 		"/>
		<polygon class="st55" points="135.5,206.4 135.2,210 137.5,210.3 131.2,257.4 132,257.5 139.4,206.9 		"/>
	</g>
	<rect x="120.3" y="205.2" class="st56" width="71.7" height="2.7"/>
	<g>
		<path class="st18" d="M124.9,178.9c-3.3,1.7-4.3,4.6-5.5,4.5c-2.1,0-3.3-3-3.6-3.8c-0.2-0.5,0.2-0.3,0.6-0.8
			c0.3-0.3,1.4-0.7,1.8-1.2c1.3-1.6,2-2.9,3.3-2.5c0.7,0.2,0.4,0.9,1.7,2.1C124.2,178.2,125.4,178.7,124.9,178.9z"/>
		<path class="st57" d="M121.6,175.2L121.6,175.2c-0.3-0.1-0.5-0.1-0.8,0c0.2,1.1,0.8,2.8,2.1,4.3c0.1,0.2,0.3,0.3,0.4,0.5
			c0.4-0.3,0.8-0.6,1.3-0.9C123,177.6,122.1,176.1,121.6,175.2z"/>
		<path class="st57" d="M139,203.7c0.2,0.1,0.4,0,0.6,0.1c0.1,0,0.1,0.1,0.3,0.1c0.2,0.1,0.2,0.1,0.3,0.1c0.2,0.1,0.1,0.1,0.2,0.1
			c0.2,0,0.2,0,0.4,0c0,0,0.1,0,0.2,0.1c0.2,0.2,0.2,0.2,0.3,0.3c0,0,0.2,0.1,0.3,0.1s0.1,0,0.2,0c0.1,0,0.1,0,0.2,0
			c0.1,0,0.1,0,0.2,0c0.1,0,0.2,0,0.3-0.1s0-0.2,0-0.2s0-0.1-0.1-0.2c-0.4-0.6-1.4-1-1.4-1c-1.1-0.4-1.7-0.7-2-0.6
			c-0.6,0.2-1.1,0.5-1,0.7C138,203.4,138.4,203.5,139,203.7z"/>
		<g>
			<path class="st58" d="M139,203.3c0.2,0,0.3,0.1,0.5,0.1c0.2,0.1,0.3,0.2,0.4,0.2c0.1,0,0.1,0.1,0.1,0.1s0.1,0.1,0.2,0.1
				c0.1,0,0.1,0.1,0.1,0.1s0.1,0,0.1,0.1c0.1,0,0.1,0.1,0.2,0.2l0,0l0,0l0,0c-0.1-0.1-0.1-0.1-0.2-0.2c-0.1,0-0.1-0.1-0.1-0.1
				s-0.1,0-0.1-0.1c-0.1,0-0.1-0.1-0.2-0.1c0,0-0.1,0-0.1-0.1c-0.1,0-0.2-0.1-0.4-0.2C139.3,203.3,139.2,203.3,139,203.3
				C139,203.2,139,203.2,139,203.3L139,203.3L139,203.3z"/>
		</g>
		<path class="st59" d="M122.2,203.7c0.1,0,5.6,0.6,7.4,0.8c1.2,0.1,1.2,0.1,2,0.2c0.8,0.1,1.2,0.2,1.4,0.2c0.1,0,0.3,0.1,0.6,0.1
			c0,0,0.2,0,0.4,0c0.5,0,1-0.4,1.1-0.4c0.9-0.6,1.5-1,2.2-1.3c0.9-0.4,1.6-0.4,1.9-0.2c0.3,0.1,0.5,0.2,0.5,0.2
			c0.2,0.1,0.3,0.2,0.5,0.3c0.1,0,0.2,0,0.3,0.1s0.1,0.1,0.3,0.2c0.1,0.1,0.1,0.1,0.4,0.3c0.2,0.2,0.2,0.2,0.3,0.3
			c0.1,0,0.2,0.1,0.4,0c0,0,0.3-0.1,0.3-0.2c0-0.1-0.1-0.2-0.3-0.5s-0.1-0.3-0.3-0.4c-0.1-0.1-0.2-0.2-0.8-0.7
			c-0.3-0.3-0.4-0.4-0.6-0.5c-0.2-0.1-0.3-0.2-0.4-0.3c-0.1,0-0.2-0.1-0.8-0.3c-0.3-0.1-0.3-0.1-0.6-0.2c-0.3-0.1-0.5-0.2-0.7-0.3
			c-0.4-0.2-0.5-0.3-0.5-0.3c-0.1-0.1-0.2-0.2-0.3-0.2s-0.2,0-0.3,0s-0.1,0-0.3,0.1s-0.3,0.2-0.4,0.2c-0.1,0.1-0.4,0.2-0.8,0.4
			c-0.4,0.2-0.7,0.3-1.2,0.5c-0.1,0-0.4,0.2-0.8,0.3c-0.1,0-0.3,0.1-0.4,0.1c-0.1,0-0.2,0-0.4,0s-0.3,0-0.5-0.1
			c-0.5-0.1-0.8-0.2-1-0.2c-0.3,0-0.3,0-0.7-0.1c0,0-0.3,0-0.5-0.1c-0.6-0.2-1.4-0.4-1.9-0.6c-0.9-0.3-4.7-1.1-5.2-0.9
			C122.1,200.6,119.8,203.2,122.2,203.7z"/>
		<path class="st60" d="M136.7,201c0.3-0.1,0.4-0.1,0.6,0c0.1,0,0.2,0,0.4,0.2c0.4,0.2,0.5,0.3,0.7,0.4c0.2,0.1,0.2,0.1,0.8,0.3
			c0.5,0.2,0.8,0.3,0.9,0.4c0.3,0.2,0.3,0.3,0.7,0.6c0.3,0.2,0.5,0.3,0.6,0.4c0.2,0.1,0.4,0.3,0.7,0.6c-0.1-0.2-0.1-0.2-0.2-0.4
			c-0.1-0.1-0.2-0.2-0.8-0.7c-0.3-0.3-0.4-0.4-0.6-0.5c-0.2-0.1-0.3-0.2-0.4-0.3c-0.1,0-0.2-0.1-0.8-0.3c-0.3-0.1-0.3-0.1-0.6-0.2
			c-0.3-0.1-0.5-0.2-0.7-0.3c-0.4-0.2-0.5-0.3-0.5-0.3c-0.1-0.1-0.2-0.2-0.3-0.2s-0.2,0-0.3,0s-0.1,0-0.3,0.1s-0.3,0.2-0.4,0.2
			c-0.1,0.1-0.4,0.2-0.8,0.4c-0.3,0.2-0.6,0.3-1,0.4c0.8-0.2,1.2-0.4,1.5-0.5C136,201.2,136.3,201,136.7,201z"/>
		<path class="st58" d="M135.4,203.1c2.5-0.8,2.9-0.7,3-0.5c0.1,0.1,0.1,0.2,0.2,0.4c0.3,0,0.6,0,0.7,0.1c0.1,0.1,0.2,0.1,0.3,0.2
			c0.1-0.1,0.1-0.1,0.2-0.2c0-0.1,0.1-0.2,0.1-0.4c0-0.3-0.3-0.6-0.3-0.6c-0.2-0.1-0.4-0.2-0.7-0.2c-0.2,0-0.5,0-0.9,0
			c-0.5,0.1-0.9,0.3-1.1,0.4c-0.2,0.1-0.3,0.2-0.5,0.3c-0.3,0.1-0.6,0.1-0.6,0c-0.8-0.1-2.2,1-2.2,1.1
			C133.7,203.8,134.1,203.6,135.4,203.1z"/>
		<path class="st59" d="M134,205.1c0.3,0.1,0.5,0,0.6,0c0.2,0,0.3-0.1,0.6-0.1c0.4-0.1,0.6-0.2,0.8-0.3s0.3-0.2,0.5-0.3
			s0.2-0.2,0.3-0.3s0.3-0.2,0.5-0.3c0.1-0.1,0.3-0.1,0.4-0.1c0.2,0,0.3,0,0.5-0.1c0.3-0.1,0.6-0.1,0.9-0.3c0.1,0,0.2-0.1,0.4-0.2
			c0.1-0.1,0.2-0.1,0.3-0.2c0.1-0.1,0.2-0.3,0.2-0.4c0,0,0-0.3-0.1-0.5c-0.1-0.1-0.3-0.2-0.5-0.2s-0.4,0-0.7,0c-0.2,0-0.5,0-0.8,0.2
			c-0.2,0.1-0.2,0.1-0.6,0.3c-0.5,0.2-0.6,0.2-0.7,0.3c-0.2,0-0.4,0-0.6,0c-0.4,0-0.8,0.1-1.2,0.3c-0.6,0.2-0.9,0.3-1.1,0.6
			c-0.2,0.3-0.5,0.8-0.3,1.2C133.5,205,133.8,205.1,134,205.1z"/>
		<path class="st61" d="M139,203.1c0.2,0.1,0.4,0.1,0.6-0.1c0.2-0.2,0.2-0.5,0.1-0.7c0,0-0.1-0.2-0.3-0.2s-0.3,0.1-0.4,0.1
			c-0.1,0-0.1,0.1-0.2,0.1c-0.1,0.1,0,0.3,0,0.4C138.9,203,138.9,203.1,139,203.1z"/>
		<path class="st62" d="M139,203.1c0-0.1,0.1-0.1,0.1-0.2c0-0.2-0.1-0.3-0.3-0.5c0,0.1,0,0.2,0.1,0.4
			C138.9,203,138.9,203.1,139,203.1z"/>
		<path class="st62" d="M139.7,202.6c0,0.2-0.1,0.4-0.1,0.5c0,0,0.1,0,0.1-0.1c0.2-0.2,0.2-0.5,0.1-0.7c0,0-0.1-0.2-0.3-0.2h-0.1
			C139.5,202.2,139.6,202.4,139.7,202.6z"/>
		<path class="st18" d="M125.5,166.4c0.6,0.1,1.2,0.5,1.8,0.9c0.3,0.2,0.5,0.4,0.8,0.6c0,0,0.2,0.2,0.3,0.4c0.5,0.7,0.7,1.5,0.8,1.9
			c0.1,0.7,0.2,1.1,0.1,1.7c-0.1,0.4-0.2,0.7-0.2,1.2c0,0.2,0,0.4,0.1,0.7c0.2,0.6,0.6,1.1,0.8,1.2c0.2,0.2,0.4,0.3,0.4,0.6
			s-0.2,0.5-0.2,0.5c-0.2,0.3-0.6,0.3-0.8,0.2c-0.3,0-0.3-0.1-0.5,0c-0.1,0.1-0.2,0.3-0.2,0.6c0,0-0.1,0.8-0.4,1.6
			c-0.1,0.2-0.1,0.2-0.2,0.4c-0.2,0.6-0.2,0.8-0.3,1c-0.3,0.4-0.9,0.3-1.1,0.3c-1.7-0.1-3.5-1.9-3.8-2.2c-1.7-1.7-2.6-2.6-2.9-3.9
			c-0.7-2.8,0.9-5.7,2.9-7C123.4,166.8,124.4,166.2,125.5,166.4z"/>
		<path class="st63" d="M120.7,197.7c-0.8,0.8-1.1,1.7-1.4,2.9c-0.5,1.9-0.6,9.1-0.7,10.7c-2.5,0-15.4-0.7-16.8-1.6
			c0.5-1.9,3.4-11.3,3.8-12.3c0.6-1.6,0.9-3,1.2-4c0.3-1.2,0.2-1.4,0.7-3.6c0.1-0.6,0.3-1.2,0.4-1.8c0.7-2.8,1-4.2,1.7-5.3
			c1.2-1.8,2.8-2.8,3.3-3c1.2-0.7,2.3-0.9,2.6-0.9c1-0.2,1.4-0.3,1.8-0.1c0.2,0.1,0.3,0.2,1.1,0.9c1,1,1.1,1.2,1.6,1.7
			c0.5,0.4,1.1,1,1.4,1.4s1,2.5,0.9,6.3C122.1,192.7,120.7,197.7,120.7,197.7z"/>
		<path class="st19" d="M115.5,206.9c-0.1,0.2-0.4,4.2-0.5,4.4c1,0,2.6,0.1,3.6,0.1c0.1-1.3,0.1-7.6,0.5-9.5c-1.4-2.1-3-4.5-4.6-7.4
			c-2.1-3.7-3.1-6-3.4-5.9c-0.6,0.2,4.6,13.3,4.8,14.1C116.2,203.8,116.1,204.5,115.5,206.9z"/>
		<path class="st18" d="M118,200.8c-0.1,0.3,0.2,0.8,0.8,1.6c0.8,1.2,1.4,2.1,2.4,2.3c0.2,0,0.5,0.1,1,0c0.4-0.1,0.7-0.4,1-0.7
			c0.8-0.8,1.4-1.6,1.4-1.6c0.7-0.9,1-1.1,1.7-1.9c0.8-0.9,1.4-1.8,2.6-3.6c1.1-1.6,1.1-1.7,1.6-2.4c1.1-1.4,1.4-1.4,1.8-2.2
			c0.1-0.1,0.2-0.3,0.4-0.4c0.4-0.3,0.9-0.2,1.4-0.2c0.9,0.1,1.6,0.1,2.1,0c0.4,0,1,0,1.8-0.2c0.7-0.2,0.7-0.3,1.6-0.6
			c0.3-0.1,1-0.3,1.9-0.4c0.6-0.1,1,0,1.1-0.2s-0.1-0.3,0-0.4c0.1-0.2,0.7,0.1,0.8-0.1c0.1-0.1,0-0.6-0.8-0.7
			c-1.5-0.1-2.7,0.2-2.8,0.2c0,0,0.4-0.3,0.9-0.5c0.6-0.2,1.1-0.3,1.1-0.3c0.3-0.1,0.6-0.1,0.6-0.2c0.1-0.1,0-0.3,0-0.4
			c-0.1-0.1-0.2-0.2-0.9-0.2c-0.2,0-0.8,0.1-1.8,0.5c-0.3,0.1-0.4,0.2-0.6,0.2c-0.4,0.1-0.7,0.1-1,0.1c0,0-0.1,0-1.3,0.1
			s-1.7,0.2-1.8,0.1c0-0.1,0.3-0.3,0.6-0.4c0.2-0.1,0.3-0.1,0.9-0.1c0.1,0,0.5-0.1,1.2-0.2c0.3,0,0.4-0.1,0.5-0.2
			c0.2-0.2,0.3-0.5,0.2-0.6c-0.1-0.2-0.4-0.1-0.7-0.1c-0.6,0-1.2,0-1.7,0.1c-2.3,0.4-2.5,0.1-3.3,0.5c-0.4,0.2-0.7,0.6-1.3,1.3
			c-1,1.2-1.5,1.9-2,2.6c-0.8,1.1-0.7,0.7-3.7,3.8c-1.3,1.4-1.5,1.6-2.2,2.2c-0.7,0.5-1.5,1.2-2.6,1.8
			C119.2,200.3,118.2,200.2,118,200.8z"/>
		<path class="st64" d="M117.8,202.6c0,0-1.2-1.1-2.4-4c-0.6-1.6-1.3-2.8-2.5-5.3c-1.7-3.4-2.1-3.3-2.3-4.5c-0.1-0.4-0.6-3.5,1.3-6
			c0.4-0.5,0.9-1.3,1.9-1.7c0.2-0.1,0.8-0.3,1.6-0.4c0.1,0,1.5-0.1,2.5,0.6c0.8,0.5,1.3,1.3,1.9,3.8c0.7,2.6,0.4,3,1.1,6.7
			c0.5,2.5,0.7,3.7,1,4.5c0.4,1.1,0.8,1.5,0.8,2C122.8,200.2,118.4,202.9,117.8,202.6z"/>
		<path class="st16" d="M117.7,199.2c-0.9-1.9-1.8-3.7-2.6-5.6c-1.1-2.5-1.4-2.5-2.2-4.3c-0.6-1.3-1.2-3.1-1.6-5.4
			c-1.1,2.2-0.7,4.4-0.6,4.8c0.2,1.2,0.6,1.1,2.3,4.5c1.2,2.5,1.9,3.7,2.5,5.3c1.2,2.9,2.4,4,2.4,4c0.3,0.2,1.3-0.3,2.3-1
			c-0.2-0.1-0.4-0.1-0.6-0.3C118.4,200.7,117.9,199.7,117.7,199.2z"/>
		<path id="perruca_3_" class="st65" d="M130.4,170.3c0,0,1-0.6,0.5-2.3c-0.6-1.7-2.3-0.7-2.3-0.7s0.3-0.9,0-1.6s-1,0.7-1,0.7
			s0.1-2-2.3-2.1c-2.3-0.1-3.5,1.5-3.5,1.5s-2.1-1.5-2.7-1s1,1.2,1,1.2s-2.1-0.1-2.8,1c-0.7,1.1,0.3,1.9,0.3,1.9s-1.3,0.2-1.2,0.8
			c0.1,0.5,1,0.6,1,0.6s-1.5,0.7-1,1.8s0.8,1.3,0.8,1.3s-0.8,1.7,0,2.3s1.4,0.7,1.4,0.7s0.5,1.9,1.5,1.8c0.4,0,0.7-0.3,0.9-0.5
			c-0.2-0.5-0.4-1-0.4-1s0.1-0.9-0.5-1.6c-0.5-0.5-1.4-1.2-0.7-1.4c0.7-0.2,1.3,1,1.9,1s0.2-0.4,0.2-1.1c0-0.6-0.6-2.5-0.4-2.6
			c0.3-0.1,1.9,0.5,3.8,0.5s2.6-0.8,2.6-0.8h1.6c0,0,0.6,1.5,0.2,2.2c-0.1,0.2-0.2,0.4-0.2,0.7c0.3-0.1,1.6-0.7,2-1.7
			C131.5,170.6,130.4,170.3,130.4,170.3z"/>
		
			<ellipse transform="matrix(0.995 -0.1001 0.1001 0.995 -16.6968 13.0301)" class="st28" cx="121.5" cy="172.9" rx="2.8" ry="3.4"/>
		<path class="st66" d="M125.1,172.8c0.1,2.4-1.6,4-3.9,3.5c-1.2-0.3-2-1-2.2-2.9s1-3.7,2.7-3.8C123.5,169.3,125,170.8,125.1,172.8z
			"/>
		
			<ellipse transform="matrix(0.995 -0.1001 0.1001 0.995 -16.6968 13.0301)" class="st28" cx="121.5" cy="172.9" rx="2.8" ry="3.4"/>
		<path class="st67" d="M121.3,174.1L121.3,174.1c-0.5,0-0.9-0.4-0.9-0.9v-6.7c0-0.1,0.1-0.2,0.2-0.2h1.6c0.1,0,0.2,0.1,0.2,0.2v6.7
			C122.2,173.7,121.8,174.1,121.3,174.1z"/>
		<path class="st32" d="M121.1,174.1L121.1,174.1c-0.5,0-0.9-0.4-0.9-0.9v-6.7c0-0.1,0.1-0.2,0.2-0.2h1.6c0.1,0,0.2,0.1,0.2,0.2v6.7
			C122,173.7,121.6,174.1,121.1,174.1z"/>
		<path class="st66" d="M120.3,167.3c-0.1,0-0.2-0.1-0.2-0.2c0.1-0.5,0.3-1.9,1-2.1c0.1,0,2.3,0,2.4,0s0.1,0.2,0,0.2
			c-0.2,0.1-0.3,0.2-0.5,0.4c-0.3,0.3-0.4,1.1-0.4,1.5c0,0.1-0.1,0.2-0.2,0.2L120.3,167.3L120.3,167.3z"/>
		<path class="st28" d="M120,167.3c-0.1,0-0.2-0.1-0.2-0.2c0.1-0.5,0.4-2,1-2.2c0.1,0,2.7,0,2.6,0.1c-0.2,0.1-0.5,0.3-0.8,0.6
			s-0.4,1.2-0.4,1.5c0,0.1-0.1,0.1-0.2,0.1L120,167.3L120,167.3z"/>
	</g>
	<path class="st54" d="M192,205.2h-1c-0.2,0.3-0.4,0.6-0.6,0.9c-0.7,0.6-1.4,0.7-1.7,0.7c-1.3,0.1-15.9,0.5-38,1.1H192V205.2z"/>
	<g>
		<path class="st33" d="M127.9,173c0.2,0,0.2,0.3,0.2,0.6c-0.1,0.3-0.2,0.5-0.4,0.5c-0.2,0-0.2-0.3-0.2-0.6
			C127.6,173.2,127.8,173,127.9,173z"/>
		<path class="st68" d="M128.7,177c0.1,0-0.1,0.4-0.2,0.6c0,0.1-0.1,0.1-0.2,0.1c-0.7-0.1-1.2-1.1-1.1-1.2
			C127.3,176.4,128.1,177.1,128.7,177z"/>
		<g>
			<path class="st69" d="M127.4,172.1c0.2,0,0.5,0,0.7,0c0.3,0.1,0.6,0.2,0.7,0.3c0.1,0.1,0.1,0.2,0,0.3l0,0c-0.1,0.1-0.2,0.1-0.2,0
				c-0.1-0.1-0.3-0.2-0.6-0.3c-0.2,0-0.4-0.1-0.6,0c-0.1,0-0.2-0.1-0.2-0.1l0,0C127.2,172.2,127.3,172.1,127.4,172.1z"/>
		</g>
	</g>
	<g>
		<g>
			<g>
				<path class="st70" d="M165.9,205.2c0.7,0,1.7-0.1,2.5-0.8s1-1.7,1.1-2.1c0.1-0.7,0-1.2,0-1.4c-0.3-1.7-1.9-5.3-3.2-8.1
					c-0.5-1.1-1-2.1-1.3-2.8c-0.1-0.3-0.5-0.5-0.8-0.4l0,0c-0.3,0.1-0.5,0.5-0.4,0.9c0.3,0.7,0.8,1.7,1.3,2.8
					c1.2,2.7,2.9,6.3,3.1,7.8c0,0.1,0.1,0.5,0,1c0,0.2-0.2,1-0.7,1.4c-0.6,0.5-1.4,0.5-1.9,0.5l0,0c-1.8-0.1-4.2,0-7,0
					c-0.4,0-0.6,0.3-0.6,0.7l0,0c0,0.4,0.3,0.6,0.7,0.6c2.8,0,5.1,0,6.9,0l0,0C165.7,205.2,165.8,205.2,165.9,205.2z"/>
			</g>
			<path class="st71" d="M158.3,201l0.6-0.2c1-0.3,1.7-1,2.1-1.9l8.9-20.7c0.4-0.9,0.4-1.8,0-2.7l-0.3-0.8c-0.1-0.3-0.5-0.3-0.6,0
				l-11,25.8C157.8,200.8,158.1,201.1,158.3,201z"/>
			<path class="st72" d="M157.9,200.5l0.8-1.9l0.4-0.1c1-0.3,1.7-1,2.1-1.9L170,176c0.2,0.7,0.1,1.5-0.2,2.2l-8.9,20.7
				c-0.4,0.9-1.2,1.6-2.1,1.9l-0.6,0.2C158.1,201.1,157.8,200.8,157.9,200.5z"/>
		</g>
		<path class="st70" d="M150.9,205.2h-13c-0.3,0-0.5-0.2-0.5-0.5l0,0c0-0.3,0.2-0.5,0.5-0.5h13c0.3,0,0.5,0.2,0.5,0.5l0,0
			C151.4,205,151.2,205.2,150.9,205.2z"/>
	</g>
	<g>
		<path class="st13" d="M110.7,155.3c0.8,0,1.6-0.1,2.3-0.3l-1.8-8.8c1.8-2.3,2.8-5.2,2.8-8.3l0,0c0-7.6-6.1-13.7-13.7-13.7H81.5
			c-7.6,0-13.7,6.1-13.7,13.7l0,0c0,7.6,6.1,13.7,13.7,13.7h8.7c0-0.5,0-1,0-1.6c0,0.5,0,1,0,1.6h10c0.9,0,1.9-0.1,2.7-0.3l9.8,8
			c0.1-0.2,0.1-0.4,0.1-0.6c0,0.2-0.1,0.4-0.1,0.6l1.2,1l-1.1-5.3C112.2,155.2,111.5,155.3,110.7,155.3z"/>
		<path class="st11" d="M99.4,135.9c-1.5,0-2.6,1.2-2.6,2.6c0,1.5,1.2,2.6,2.6,2.6c1.5,0,2.6-1.2,2.6-2.6
			C102.1,137.1,100.9,135.9,99.4,135.9z"/>
		<path class="st11" d="M82.7,135.9c-1.5,0-2.6,1.2-2.6,2.6c0,1.5,1.2,2.6,2.6,2.6c1.5,0,2.6-1.2,2.6-2.6
			C85.3,137.1,84.1,135.9,82.7,135.9z"/>
		<ellipse class="st11" cx="91.1" cy="138.6" rx="2.6" ry="2.6"/>
	</g>
</g>
<g>
	<path class="st73" d="M400.2,52H326c-4.1,0-7.5,3-7.5,6.8v15.7c0,3.7,3.3,6.8,7.5,6.8h3.8v12.3l12-12.3h58.4c4.1,0,7.5-3,7.5-6.8
		V58.7C407.6,55,404.3,52,400.2,52z"/>
	<path class="st74" d="M401.4,52.1c0.3,2.5,0.2,5.8-1.1,9.4c-0.3,0.7-3.4,10.9-13.8,14c-12.2,3.6-33.9,3.4-42.3,3.2
		c-2.2-0.1-4.2,0.9-5.5,2.5c-2.2,2.9-5.8,7.6-8.9,11.8v0.5l12-12.3h58.4c4.1,0,7.5-3,7.5-6.8V58.7C407.6,55.4,405,52.6,401.4,52.1z"
		/>
</g>
<g>
	
		<rect x="147.2" y="60.7" transform="matrix(0.669 -0.7433 0.7433 0.669 -3.3052 140.5374)" class="st75" width="17.8" height="26.5"/>
	<path class="st76" d="M155.6,72.4l-15.3-0.7L160,89.4l-2.3-15.1C157.5,73.3,156.6,72.5,155.6,72.4z"/>
	<path class="st77" d="M155.1,72.9l-14.8-1.2L160,89.4l-2.8-14.6C157,73.8,156.2,73,155.1,72.9z"/>
	<path class="st76" d="M154.6,73.6c0.2,1,1.1,1.8,2.1,1.9l15.3,0.7l-19.7-17.7L154.6,73.6z"/>
	<path class="st77" d="M155,73c0.2,1,1.1,1.8,2.1,1.9l14.8,1.2l-19.7-17.7L155,73z"/>
</g>
<path class="st11" d="M352.5,60.9c-2.9,0-5.3,2.4-5.3,5.3s2.4,5.3,5.3,5.3s5.3-2.4,5.3-5.3S355.4,60.9,352.5,60.9z"/>
<path class="st11" d="M367.6,60.9c-2.9,0-5.3,2.4-5.3,5.3s2.4,5.3,5.3,5.3s5.3-2.4,5.3-5.3S370.5,60.9,367.6,60.9z"/>
<path class="st11" d="M337.4,60.9c-2.9,0-5.3,2.4-5.3,5.3s2.4,5.3,5.3,5.3s5.3-2.4,5.3-5.3S340.3,60.9,337.4,60.9z"/>
<g>
	<g>
		<path class="st78" d="M88.5,77.1l20.9-8.3c0.8-0.3,1.6-0.2,2.3,0.1c0.7,0.3,1.3,0.9,1.6,1.7l12.1,30.5c0.3,0.8,0.3,1.6,0,2.4
			c-0.3,0.7-0.8,1.3-1.6,1.6l-20.9,8.3c-0.8,0.3-1.6,0.2-2.3-0.1c-0.7-0.3-1.3-0.9-1.6-1.7L86.9,81.1c-0.3-0.8-0.3-1.6,0-2.4
			C87.2,78,87.7,77.4,88.5,77.1L88.5,77.1z"/>
		<path class="st79" d="M91.4,78.8l17-6.7c0.6-0.2,1.3-0.2,1.8,0c0.6,0.2,1,0.7,1.3,1.3l2.1,5.2c0.2,0.6,0.2,1.3,0,1.8
			c-0.2,0.6-0.7,1-1.3,1.3l-17,6.7c-0.6,0.2-1.3,0.2-1.8,0c-0.6-0.2-1-0.7-1.3-1.3l-2.1-5.2c-0.2-0.6-0.2-1.3,0-1.8
			S90.8,79,91.4,78.8L91.4,78.8z"/>
		<path class="st11" d="M95.3,90.3l2.7-1.1c0.5-0.2,1-0.2,1.4,0s0.8,0.5,1,1l1,2.5c0.2,0.5,0.2,1,0,1.4s-0.5,0.8-1,1l-2.7,1.1
			c-0.5,0.2-1,0.2-1.4,0s-0.8-0.5-1-1l-1-2.5c-0.2-0.5-0.2-1,0-1.4C94.5,90.8,94.9,90.5,95.3,90.3L95.3,90.3z"/>
		<path class="st11" d="M103,87.2l2.7-1.1c0.5-0.2,1-0.2,1.4,0s0.8,0.5,1,1l1,2.5c0.2,0.5,0.2,1,0,1.4s-0.5,0.8-1,1l-2.7,1.1
			c-0.5,0.2-1,0.2-1.4,0s-0.8-0.5-1-1l-1-2.5c-0.2-0.5-0.2-1,0-1.4C102.2,87.8,102.5,87.4,103,87.2L103,87.2z"/>
		<path class="st11" d="M110.7,84.2l2.7-1.1c0.5-0.2,1-0.2,1.4,0s0.8,0.5,1,1l1,2.5c0.2,0.5,0.2,1,0,1.4s-0.5,0.8-1,1l-2.8,1
			c-0.5,0.2-1,0.2-1.4,0s-0.8-0.5-1-1l-1-2.5c-0.2-0.5-0.2-1,0-1.4C109.9,84.7,110.2,84.4,110.7,84.2L110.7,84.2z"/>
		<path class="st11" d="M98.1,97.3l2.7-1.1c0.5-0.2,1-0.2,1.4,0s0.8,0.5,1,1l1,2.5c0.2,0.5,0.2,1,0,1.4s-0.5,0.8-1,1l-2.7,1.1
			c-0.5,0.2-1,0.2-1.4,0s-0.8-0.5-1-1l-1-2.5c-0.2-0.5-0.2-1,0-1.4C97.3,97.8,97.6,97.5,98.1,97.3L98.1,97.3z"/>
		<path class="st11" d="M105.8,94.2l2.7-1.1c0.5-0.2,1-0.2,1.4,0s0.8,0.5,1,1l1,2.5c0.2,0.5,0.2,1,0,1.4s-0.5,0.8-1,1l-2.7,1.1
			c-0.5,0.2-1,0.2-1.4,0s-0.8-0.5-1-1l-1-2.5c-0.2-0.5-0.2-1,0-1.4C105,94.8,105.3,94.4,105.8,94.2L105.8,94.2z"/>
		<path class="st11" d="M113.5,91.2l2.7-1.1c0.5-0.2,1-0.2,1.4,0s0.8,0.5,1,1l1,2.5c0.2,0.5,0.2,1,0,1.4s-0.5,0.8-1,1l-2.7,1.1
			c-0.5,0.2-1,0.2-1.4,0s-0.8-0.5-1-1l-1-2.5c-0.2-0.5-0.2-1,0-1.4C112.7,91.7,113,91.4,113.5,91.2L113.5,91.2z"/>
		<path class="st11" d="M100.9,104.3l2.7-1.1c0.5-0.2,1-0.2,1.4,0s0.8,0.5,1,1l1,2.5c0.2,0.5,0.2,1,0,1.4s-0.5,0.8-1,1l-2.7,1.1
			c-0.5,0.2-1,0.2-1.4,0s-0.8-0.5-1-1l-1-2.5c-0.2-0.5-0.2-1,0-1.4C100.1,104.8,100.4,104.5,100.9,104.3L100.9,104.3z"/>
		<path class="st11" d="M108.6,101.2l2.7-1.1c0.5-0.2,1-0.2,1.4,0s0.8,0.5,1,1l1,2.5c0.2,0.5,0.2,1,0,1.4s-0.5,0.8-1,1l-2.7,1.1
			c-0.5,0.2-1,0.2-1.4,0s-0.8-0.5-1-1l-1-2.5c-0.2-0.5-0.2-1,0-1.4C107.8,101.8,108.1,101.4,108.6,101.2L108.6,101.2z"/>
		<path class="st11" d="M116.3,98.2l2.7-1.1c0.5-0.2,1-0.2,1.4,0s0.8,0.5,1,1l1,2.5c0.2,0.5,0.2,1,0,1.4s-0.5,0.8-1,1l-2.7,1.1
			c-0.5,0.2-1,0.2-1.4,0s-0.8-0.5-1-1l-1-2.5c-0.2-0.5-0.2-1,0-1.4C115.5,98.7,115.8,98.4,116.3,98.2L116.3,98.2z"/>
	</g>
	<g>
		<rect x="96.6" y="79.3" transform="matrix(0.9295 -0.3689 0.3689 0.9295 -23.4663 41.5795)" width="0.8" height="5.7"/>
		<rect x="99.1" y="78.3" transform="matrix(0.9295 -0.3689 0.3689 0.9295 -22.9132 42.4223)" width="0.8" height="5.7"/>
		<rect x="102.8" y="76.9" transform="matrix(0.9295 -0.3689 0.3689 0.9295 -22.1308 43.6961)" width="0.8" height="5.7"/>
		<rect x="98.6" y="76.9" transform="matrix(0.9295 -0.3689 0.3689 0.9295 -21.4386 42.2998)" width="2.6" height="0.7"/>
		<rect x="101.2" y="83.3" transform="matrix(0.9295 -0.3689 0.3689 0.9295 -23.6213 43.7204)" width="2.6" height="0.7"/>
		<rect x="105.1" y="75.9" transform="matrix(0.9295 -0.3689 0.3689 0.9295 -21.6114 44.4694)" width="0.8" height="5.7"/>
		<rect x="108.8" y="74.5" transform="matrix(0.9295 -0.3689 0.3689 0.9295 -20.8289 45.7433)" width="0.8" height="5.7"/>
		<rect x="104.7" y="74.5" transform="matrix(0.9295 -0.3689 0.3689 0.9295 -20.1418 44.374)" width="2.6" height="0.7"/>
		<rect x="107.3" y="80.8" transform="matrix(0.9295 -0.3689 0.3689 0.9295 -22.2927 45.7744)" width="2.6" height="0.7"/>
	</g>
</g>
<g>
	<g>
		<polygon class="st80" points="486.2,122 469.7,125.2 469.7,105.5 486.2,102.3 		"/>
		<polygon class="st81" points="486.2,102.3 498.4,111.4 498.5,128.8 486.2,122 		"/>
		<polygon class="st82" points="469.7,125.2 488.6,130.7 498.5,128.8 486.2,122 		"/>
		<polygon class="st83" points="478.3,106.1 475.4,106.7 475.4,104.4 478.3,103.8 		"/>
		<polygon class="st83" points="478.3,123.5 475.4,124.1 475.4,121.8 478.3,121.2 		"/>
	</g>
	<polygon class="st84" points="478.3,123.5 480.5,124.2 477.1,124.8 475.4,124.1 	"/>
</g>
<g>
	<g>
		<polygon class="st80" points="369.8,97.2 369.8,121.3 388.8,126.8 388.4,106.8 		"/>
		<polygon class="st81" points="369.8,121.3 350.8,132.6 350.8,110.7 369.8,97.2 		"/>
		<polygon class="st82" points="369.8,121.3 388.8,126.8 366.6,134 350.8,132.6 		"/>
		<polygon class="st84" points="378.4,123.8 375.6,124.8 379.7,125.8 382.2,124.9 		"/>
		<polygon class="st83" points="382.2,124.9 378.4,123.8 378.4,101.6 381.9,103.4 		"/>
	</g>
	<polygon class="st81" points="375.3,107.9 371.1,106.6 371.1,99.3 375.5,101.4 	"/>
</g>
<g>
	<polygon class="st80" points="410,148.8 402.5,146 401.7,138.2 409.6,141.4 	"/>
	<polygon class="st81" points="393.4,154.4 402.5,146 401.7,138.2 392.8,148.3 	"/>
	<polygon class="st82" points="410,148.8 399.8,156.3 393.4,154.4 402.5,146 	"/>
	<polygon class="st11" points="407.1,141.9 405.3,141.2 405.2,139.6 406.9,140.3 	"/>
	<polygon class="st11" points="407.6,147.9 405.8,147.3 405.7,145.7 407.4,146.4 	"/>
	<polygon class="st84" points="405.8,147.3 404.8,148.2 406.5,148.8 407.6,147.9 	"/>
</g>
<g>
	<g>
		<polygon class="st80" points="497.5,79.3 475.7,76.3 487.6,66.8 508.9,68.9 		"/>
		<polygon class="st82" points="497.5,79.3 501.9,93.7 481.9,91.1 475.7,76.3 		"/>
		<polygon class="st81" points="508.9,68.9 512.6,82.5 501.9,93.7 497.5,79.3 		"/>
	</g>
	<path class="st83" d="M483.6,77.4l11.9-9.8l4.1,0.4c0,0-11.7,10-11.8,10C487.6,77.9,483.6,77.4,483.6,77.4z"/>
	<polygon class="st84" points="487.7,78 492.7,92.5 488.8,92 483.6,77.4 	"/>
	<polygon class="st83" points="483.4,70.1 504.9,72.5 502,75.1 481.3,71.9 	"/>
	<polygon class="st84" points="504.9,72.5 508.9,86.4 506.4,89 502,75.1 	"/>
	<polygon class="st85" points="492.9,73.7 495.5,71.5 496.4,71.6 493.9,73.8 	"/>
	<polygon class="st85" points="488.9,73.1 491.4,70.9 488.5,73 	"/>
</g>
<g>
	<g>
		<polygon class="st80" points="536.6,187.5 521.9,187.8 517.6,174.8 532.3,174.4 		"/>
		<polygon class="st81" points="517.6,174.8 513.8,186.3 516.5,195.5 521.9,187.8 		"/>
		<polygon class="st82" points="536.6,187.5 527.8,195.1 516.5,195.5 521.9,187.8 		"/>
	</g>
	<polygon class="st83" points="523.8,174.6 528,187.7 530.4,187.6 526.6,174.6 	"/>
	<polygon class="st84" points="528,187.7 521.5,195.3 523.3,195.3 530.4,187.6 	"/>
</g>
<g>
	<g>
		<polygon class="st81" points="519.2,126.5 531.7,131.9 525.2,145.8 512.7,140.4 		"/>
		<polygon class="st82" points="512.7,140.4 509,137.7 515.5,123.8 519.2,126.5 		"/>
		<polygon class="st80" points="531.7,131.9 528.7,129.6 515.5,123.8 519.2,126.5 		"/>
	</g>
	<polygon class="st86" points="524.1,128.6 522.7,131.5 525.6,132.8 527,129.9 	"/>
	<polygon class="st83" points="524.1,128.6 522.7,126.9 525.4,128.1 527,129.9 	"/>
</g>
<g>
	<g>
		<polygon class="st80" points="434.4,113 414.1,102.3 421,92.7 441.4,103.5 		"/>
		<polygon class="st82" points="414.1,102.3 419.1,110.2 436.2,119.5 434.4,113 		"/>
		<polygon class="st81" points="441.4,103.5 441.9,110.8 436.2,119.5 434.4,113 		"/>
	</g>
	<polygon class="st83" points="437.3,109.1 417.1,98.1 418.4,96.4 438.8,107 	"/>
	<polygon class="st84" points="438.8,107 439.2,108.8 437.8,110.9 437.3,109.1 	"/>
</g>
<g>
	<g>
		<polygon class="st81" points="343.3,136.1 345.3,140.3 345.3,153.1 343.3,149.4 		"/>
		<polygon class="st82" points="330.1,149.4 332.5,153.1 345.3,153.1 343.3,149.4 		"/>
		<rect x="330.1" y="136.1" class="st80" width="13.2" height="13.4"/>
	</g>
	<polygon class="st83" points="330.1,142.1 333.9,140.8 333.9,143.3 330.1,144.8 	"/>
	<polygon class="st83" points="344,150.8 344.1,149.2 344.8,150.6 344.8,152.1 	"/>
	<polygon class="st84" points="344,150.8 340.2,150.8 341.1,152.1 344.8,152.1 	"/>
	<rect x="338.9" y="137" class="st81" width="3.3" height="4.9"/>
</g>
<g>
	<g>
		<polygon class="st80" points="451,150.6 432,154.9 426.9,133.7 445.9,129.5 		"/>
		<polygon class="st81" points="445.9,129.5 452.6,129.5 457.7,150.6 451,150.6 		"/>
		<polygon class="st82" points="432,154.9 437.6,155 457.7,150.6 451,150.6 		"/>
	</g>
	<polygon class="st83" points="438.2,131.2 440.6,140.4 437.7,141.1 435.4,131.8 	"/>
	<polygon class="st81" points="428.3,134.6 434.3,133.3 436.3,141.4 430.3,142.8 	"/>
</g>
<g>
	
		<ellipse transform="matrix(0.2898 -0.9571 0.9571 0.2898 211.5418 417.4796)" class="st11" cx="387.1" cy="66.2" rx="8.3" ry="8.3"/>
	<polygon class="st87" points="386.2,67.3 390,61.8 391.9,63.2 386.8,70.7 382.3,67.2 383.6,65.3 	"/>
</g>
<g>
	<g>
		<path class="st88" d="M458.7,272.3h-62.1c-8.6,0-15.5-6.9-15.5-15.5v-62.1c0-8.6,6.9-15.5,15.5-15.5h62.1
			c8.6,0,15.5,6.9,15.5,15.5v62.1C474.2,265.4,467.3,272.3,458.7,272.3z"/>
	</g>
	<g>
		<path class="st11" d="M456.6,207.8c0,8-0.1,29.6-0.1,36.5l-1,0.5c-0.3,0.1-19.1,7.5-26.7,10.4v-36.9"/>
		<path class="st11" d="M400.6,205.8c-0.1,0-0.3-0.1-0.6-0.3c33.7-11.3,20.4-11.3,54.1-0.1c0,0.1,0,0.1,0,0.2
			c-6.2,2.1-25.3,8.8-27.1,9.4"/>
		<path class="st11" d="M425.4,255.4c0-13.4,0-24,0-37.3l-12.8-4.6v13.3l-5-1.8v-13.3l-9.3-3.6c0,5.5,0,36.2,0,36.2"/>
	</g>
	<g>
		<path class="st89" d="M467.4,248.3c-0.1,21.3-32.5,21.3-32.6,0C434.9,227,467.3,227,467.4,248.3z"/>
		<g>
			<g>
				<g>
					<path class="st11" d="M441.3,255.7c0,0.2,0.2,0.2,0.3,0.2l2.6-1.5c0.7,0.8,1.6,1.5,2.5,2c-0.9,4-1.6,2.8,1.1,3.4
						c2.7,1,1.4,1.6,2.7-2.3c1,0.1,2.1-0.1,3.1-0.4c2.1,3.5,0.8,3.2,3.2,1.6c2.6-1.2,2.1,0.1,0.3-3.6c0.8-0.7,1.5-1.6,2-2.5
						c4,0.9,2.8,1.7,3.4-1.1c0.9-2.7,1.6-1.4-2.3-2.7c0.1-1,0-2.1-0.4-3.1c3.4-2.1,3.1-0.8,1.6-3.2c-1.2-2.6,0.1-2.1-3.5-0.3
						c-0.7-0.8-1.6-1.5-2.5-2c0.9-3.9,1.6-2.8-1.1-3.4c-2.7-0.9-1.4-1.6-2.7,2.3c-1-0.1-2.1,0.1-3.2,0.4c-2.1-3.4-0.8-3.1-3.2-1.6
						c-2.6,1.2-2.1-0.1-0.3,3.5c-0.8,0.7-1.5,1.6-2,2.5c-3.9-0.9-2.7-1.6-3.3,1.1c-0.9,2.7-1.6,1.4,2.3,2.7c-0.1,1,0.1,2.1,0.4,3.2
						C437.5,253.5,440.6,251.7,441.3,255.7z"/>
				</g>
			</g>
		</g>
	</g>
	<path class="st89" d="M454.8,248.3c0,4.8-7.4,4.8-7.4,0C447.4,243.4,454.8,243.4,454.8,248.3z"/>
</g>
</svg>
