<?xml version="1.0" encoding="utf-8"?>
<!-- Generator: Adobe Illustrator 24.1.1, SVG Export Plug-In . SVG Version: 6.00 Build 0)  -->
<svg version="1.1" id="Capa_1" xmlns="http://www.w3.org/2000/svg" xmlns:xlink="http://www.w3.org/1999/xlink" x="0px" y="0px"
	 viewBox="0 0 550 300" style="enable-background:new 0 0 550 300;" xml:space="preserve">
<style type="text/css">
	.st0{fill:#9D5990;}
	.st1{opacity:0.3;}
	.st2{fill:#CAE7F5;}
	.st3{opacity:0.55;fill:url(#SVGID_1_);enable-background:new    ;}
	.st4{opacity:0.55;fill:url(#SVGID_2_);enable-background:new    ;}
	.st5{fill:#C1EDF4;}
	.st6{opacity:0.95;fill:#FFFFFF;enable-background:new    ;}
	.st7{fill:#3AB5D4;}
	.st8{opacity:0.3;fill:#3AB5D4;enable-background:new    ;}
	.st9{opacity:0.44;}
	.st10{fill-rule:evenodd;clip-rule:evenodd;fill:#1A4866;}
	.st11{fill:#54C7E2;}
	.st12{fill:#F7F7F7;}
	.st13{fill:#FBC030;}
	.st14{fill:#FFD364;}
	.st15{opacity:0.3;fill:#FBC030;enable-background:new    ;}
	.st16{fill:#103854;}
	.st17{fill:#004C60;}
	.st18{fill:#CCE6F2;}
	.st19{fill:#E1F0F6;}
	.st20{fill:#0A3C5E;}
	.st21{fill:#F49917;}
	.st22{fill:#1C5B82;}
	.st23{fill:#D2F0F9;}
	.st24{fill:#C1D7E8;}
	.st25{fill:#FABA0D;}
	.st26{fill:#F6A511;}
	.st27{fill:#FFCF3E;}
	.st28{fill:#6E563E;}
	.st29{fill:#0C1B2A;}
	.st30{fill:#E6B486;}
	.st31{fill:#7D6349;}
	.st32{fill:#543420;}
	.st33{fill:#EE7C05;}
	.st34{fill:#14364D;}
	.st35{fill:#4BBBE8;}
	.st36{fill:#4DC6E2;}
	.st37{fill:#F8B24A;}
	.st38{fill:#B8D2E8;}
	.st39{fill:#BBF7FF;}
	.st40{fill:#C2E5F5;}
	.st41{opacity:0.75;fill:#FFFFFF;enable-background:new    ;}
	.st42{opacity:0.55;fill:url(#SVGID_3_);enable-background:new    ;}
	.st43{fill:#1C222B;}
	.st44{fill:#3E4A5A;}
	.st45{fill:#687589;}
	.st46{fill:#D44851;}
	.st47{fill:#AF333D;}
	.st48{fill:#FEC47C;}
	.st49{fill:#B7814B;}
	.st50{fill:#9F673B;}
	.st51{fill:#0079C4;}
	.st52{fill:none;stroke:#914987;stroke-width:20;stroke-miterlimit:10;}
	.st53{fill:url(#SVGID_4_);}
	.st54{fill:#5FB5E0;}
	.st55{fill:#035882;}
	.st56{fill:#444444;}
	.st57{enable-background:new    ;}
	.st58{fill:#FFFFFF;}
	.st59{fill:#844500;}
	.st60{fill:#F29100;}
	.st61{fill:#E5E5E5;}
</style>
<g>
	<path class="st0" d="M248.4,254.1"/>
	<g class="st1">
		<g>
			<circle class="st2" cx="134.5" cy="175.7" r="88.6"/>
		</g>
		<g>
			<circle class="st2" cx="184.4" cy="75.4" r="9.8"/>
		</g>
		<g>
			<circle class="st2" cx="219" cy="59" r="28"/>
		</g>
		<g>
			<circle class="st2" cx="304.7" cy="59.1" r="19.5"/>
		</g>
		<g>
			
				<ellipse transform="matrix(0.7071 -0.7071 0.7071 0.7071 37.2865 269.6194)" class="st2" cx="344.1" cy="89.8" rx="44.9" ry="44.9"/>
		</g>
		<g>
			
				<ellipse transform="matrix(0.7071 -0.7071 0.7071 0.7071 26.9842 347.7003)" class="st2" cx="433.2" cy="141.3" rx="60.3" ry="60.3"/>
		</g>
		<g>
			
				<ellipse transform="matrix(0.7071 -0.7071 0.7071 0.7071 -12.1722 390.6046)" class="st2" cx="465.4" cy="210" rx="71.3" ry="71.3"/>
		</g>
		<g>
			<circle class="st2" cx="182.2" cy="37.5" r="9.8"/>
		</g>
	</g>
	<g>
		
			<radialGradient id="SVGID_1_" cx="6177.6558" cy="88906.0625" r="56.1619" gradientTransform="matrix(0.3917 -0.1363 0.4269 7.813422e-02 -40279.2148 -5839.5225)" gradientUnits="userSpaceOnUse">
			<stop  offset="0" style="stop-color:#5C5C5C"/>
			<stop  offset="0.1273" style="stop-color:#686868;stop-opacity:0.8727"/>
			<stop  offset="0.3611" style="stop-color:#8A8A8A;stop-opacity:0.6389"/>
			<stop  offset="0.6754" style="stop-color:#C0C0C0;stop-opacity:0.3246"/>
			<stop  offset="1" style="stop-color:#FFFFFF;stop-opacity:0"/>
		</radialGradient>
		<path class="st3" d="M113.5,257.5c16.1,2.9,19,8.9,6.5,13.2s-35.7,5.5-51.8,2.5c-16.1-2.9-19-8.9-6.5-13.2
			C74.1,255.7,97.3,254.6,113.5,257.5z"/>
	</g>
	<g>
		
			<radialGradient id="SVGID_2_" cx="6504.2051" cy="89455.8438" r="56.1619" gradientTransform="matrix(0.3917 -0.1363 0.4269 7.813422e-02 -40279.2148 -5839.5225)" gradientUnits="userSpaceOnUse">
			<stop  offset="0" style="stop-color:#5C5C5C"/>
			<stop  offset="0.1273" style="stop-color:#686868;stop-opacity:0.8727"/>
			<stop  offset="0.3611" style="stop-color:#8A8A8A;stop-opacity:0.6389"/>
			<stop  offset="0.6754" style="stop-color:#C0C0C0;stop-opacity:0.3246"/>
			<stop  offset="1" style="stop-color:#FFFFFF;stop-opacity:0"/>
		</radialGradient>
		<path class="st4" d="M476,256c16.1,2.9,19,8.9,6.5,13.2c-12.5,4.4-35.7,5.5-51.8,2.5c-16.1-2.9-19-8.9-6.5-13.2
			C436.7,254.1,459.9,253,476,256z"/>
	</g>
	<g>
		<g>
			<g>
				<path class="st5" d="M467.7,269.3h-96.1c-2.3,0-4.5-0.6-6.4-1.8c-3.6-2.2-6-6.1-6-10.6V111.1c0-2.9,1-5.6,2.7-7.8
					c2.3-2.8,5.8-4.6,9.7-4.6h96.1c4.7,0,8.8,2.6,10.9,6.4c1,1.8,1.5,3.8,1.5,6v145.8c0,2.6-0.8,5.1-2.2,7.1
					C475.6,267.2,471.9,269.3,467.7,269.3z"/>
				<rect x="368" y="108.7" class="st6" width="103.2" height="150.7"/>
				<g class="st1">
					<path class="st7" d="M403.8,146.7h-24.7V122h24.7V146.7z M380.8,145.1h21.4v-21.4h-21.4V145.1z"/>
				</g>
				<rect x="450.4" y="122.1" class="st8" width="8.8" height="2.7"/>
				<rect x="439.1" y="122.1" class="st8" width="10" height="2.7"/>
				<rect x="427" y="122.1" class="st8" width="10.8" height="2.7"/>
				<rect x="409.4" y="122.1" class="st8" width="16.3" height="2.7"/>
				<rect x="409.5" y="127.6" class="st8" width="12.6" height="2.7"/>
				<rect x="423.3" y="127.6" class="st8" width="23.7" height="2.7"/>
				<rect x="448.4" y="127.7" class="st8" width="10.8" height="2.7"/>
				<rect x="450.4" y="138.5" class="st8" width="8.8" height="2.7"/>
				<rect x="439.1" y="138.5" class="st8" width="10" height="2.7"/>
				<rect x="427" y="138.5" class="st8" width="10.8" height="2.7"/>
				<rect x="409.4" y="138.5" class="st8" width="16.3" height="2.7"/>
				<rect x="409.5" y="144" class="st8" width="12.6" height="2.7"/>
				<rect x="423.3" y="144" class="st8" width="23.7" height="2.7"/>
				<rect x="448.9" y="133.2" class="st8" width="10.3" height="2.7"/>
				<rect x="436.8" y="133.2" class="st8" width="10.8" height="2.7"/>
				<rect x="409.4" y="133.2" class="st8" width="26.1" height="2.7"/>
				<g class="st9">
					<rect x="450.4" y="167.7" class="st8" width="8.8" height="2.7"/>
					<rect x="439.1" y="167.7" class="st8" width="10" height="2.7"/>
					<rect x="427" y="167.8" class="st8" width="10.8" height="2.7"/>
					<rect x="409.4" y="167.8" class="st8" width="16.3" height="2.7"/>
					<rect x="409.5" y="173.3" class="st8" width="12.6" height="2.7"/>
					<rect x="423.3" y="173.3" class="st8" width="23.7" height="2.7"/>
					<rect x="448.4" y="173.3" class="st8" width="10.8" height="2.7"/>
					<rect x="450.4" y="184.1" class="st8" width="8.8" height="2.7"/>
					<rect x="439.1" y="184.1" class="st8" width="10" height="2.7"/>
					<rect x="427" y="184.2" class="st8" width="10.8" height="2.7"/>
					<rect x="409.4" y="184.2" class="st8" width="16.3" height="2.7"/>
					<rect x="409.5" y="189.7" class="st8" width="12.6" height="2.7"/>
					<rect x="423.3" y="189.7" class="st8" width="23.7" height="2.7"/>
					<rect x="448.9" y="178.9" class="st8" width="10.3" height="2.7"/>
					<rect x="436.8" y="178.8" class="st8" width="10.8" height="2.7"/>
					<rect x="409.4" y="178.8" class="st8" width="26.1" height="2.7"/>
				</g>
				<g class="st9">
					<rect x="450.4" y="211.8" class="st8" width="8.8" height="2.7"/>
					<rect x="439.1" y="211.8" class="st8" width="10" height="2.7"/>
					<rect x="427" y="211.7" class="st8" width="10.8" height="2.7"/>
					<rect x="409.4" y="211.7" class="st8" width="16.3" height="2.7"/>
					<rect x="409.5" y="217.3" class="st8" width="12.6" height="2.7"/>
					<rect x="423.3" y="217.3" class="st8" width="23.7" height="2.7"/>
					<rect x="448.4" y="217.4" class="st8" width="10.8" height="2.7"/>
					<rect x="450.4" y="228.2" class="st8" width="8.8" height="2.7"/>
					<rect x="439.1" y="228.2" class="st8" width="10" height="2.7"/>
					<rect x="427" y="228.1" class="st8" width="10.8" height="2.7"/>
					<rect x="409.4" y="228.1" class="st8" width="16.3" height="2.7"/>
					<rect x="409.5" y="233.7" class="st8" width="12.6" height="2.7"/>
					<rect x="423.3" y="233.7" class="st8" width="23.7" height="2.7"/>
					<rect x="448.9" y="222.9" class="st8" width="10.3" height="2.7"/>
					<rect x="436.8" y="222.9" class="st8" width="10.8" height="2.7"/>
					<rect x="409.4" y="222.9" class="st8" width="26.1" height="2.7"/>
				</g>
			</g>
			<path class="st10" d="M407,126l-1.9-1.9c-0.4-0.4-0.9-0.4-1.3,0l-11.6,11.6l-5.5-5.6c-0.4-0.4-0.9-0.4-1.3,0l-1.9,1.9
				c-0.4,0.4-0.4,0.9,0,1.3l6.1,6.2l0,0l1.3,1.3l0.3,0.3l0,0l0.3,0.3c0.4,0.4,0.9,0.4,1.3,0l14.2-14.2
				C407.4,127,407.4,126.4,407,126z"/>
			<path class="st10" d="M407,176.7l-1.9-1.9c-0.4-0.4-0.9-0.4-1.3,0l-11.6,11.6l-5.5-5.6c-0.4-0.4-0.9-0.4-1.3,0l-1.9,1.9
				c-0.4,0.4-0.4,0.9,0,1.3l6.1,6.2l0,0l1.3,1.3l0.3,0.3l0,0l0.3,0.3c0.4,0.4,0.9,0.4,1.3,0L407,178
				C407.4,177.7,407.4,177.1,407,176.7z"/>
			<path class="st10" d="M407,218.7l-1.9-1.9c-0.4-0.4-0.9-0.4-1.3,0l-11.6,11.6l-5.5-5.6c-0.4-0.4-0.9-0.4-1.3,0l-1.9,1.9
				c-0.4,0.4-0.4,0.9,0,1.3l6.1,6.2l0,0l1.3,1.3l0.3,0.3l0,0l0.3,0.3c0.4,0.4,0.9,0.4,1.3,0l14.2-14.2
				C407.4,219.6,407.4,219,407,218.7z"/>
		</g>
		<path class="st11" d="M361.3,255h-165c-6.5,0-11.8-5.3-11.8-11.8V76.1c0-6.5,5.3-11.8,11.8-11.8h165c6.5,0,11.8,5.3,11.8,11.8
			v167.1C373,249.7,367.8,255,361.3,255z"/>
		<rect x="192.6" y="78" class="st12" width="172.1" height="169.5"/>
		<path class="st13" d="M311,57.3h-16.1c0-8.8-7.2-16-16-16s-16,7.2-16,16h-16.1c-3.8,0-7,3.1-7,7v20H318v-20
			C318,60.5,314.9,57.3,311,57.3z M278.9,62.7c-2.9,0-5.3-2.4-5.3-5.3c0-2.9,2.4-5.3,5.3-5.3s5.3,2.4,5.3,5.3
			C284.2,60.3,281.9,62.7,278.9,62.7z"/>
		<rect x="239.8" y="78" class="st14" width="78.2" height="6.3"/>
		<rect x="202.9" y="121.7" class="st7" width="151.5" height="1.1"/>
		<rect x="305.6" y="231.8" class="st8" width="35.9" height="1.1"/>
		<rect x="229.2" y="231.8" class="st8" width="33.4" height="1.1"/>
		<rect x="202.9" y="159.5" class="st15" width="7.3" height="8.2"/>
		<rect x="212.3" y="159.5" class="st15" width="33.7" height="8.2"/>
		<rect x="248.4" y="159.5" class="st15" width="33.7" height="8.2"/>
		<rect x="284.6" y="159.5" class="st15" width="33.7" height="8.2"/>
		<rect x="320.7" y="159.4" class="st15" width="33.7" height="8.2"/>
		<rect x="202.9" y="169.3" class="st8" width="7.3" height="8.2"/>
		<rect x="212.3" y="169.3" class="st8" width="33.7" height="8.2"/>
		<rect x="248.4" y="169.3" class="st8" width="33.7" height="8.2"/>
		<rect x="284.6" y="169.3" class="st8" width="33.7" height="8.2"/>
		<rect x="320.7" y="169.3" class="st8" width="33.7" height="8.2"/>
		<rect x="202.9" y="178.7" class="st8" width="7.3" height="8.2"/>
		<rect x="212.3" y="178.7" class="st8" width="33.7" height="8.2"/>
		<rect x="248.4" y="178.7" class="st8" width="33.7" height="8.2"/>
		<rect x="284.6" y="178.7" class="st8" width="33.7" height="8.2"/>
		<rect x="320.7" y="178.7" class="st8" width="33.7" height="8.2"/>
		<rect x="202.9" y="188.1" class="st8" width="7.3" height="8.2"/>
		<rect x="212.3" y="188.1" class="st8" width="33.7" height="8.2"/>
		<rect x="248.4" y="188.1" class="st8" width="33.7" height="8.2"/>
		<rect x="284.6" y="188.1" class="st8" width="33.7" height="8.2"/>
		<rect x="320.7" y="188.1" class="st8" width="33.7" height="8.2"/>
		<rect x="293.5" y="203.8" class="st15" width="17.2" height="3.4"/>
		<rect x="312.1" y="203.8" class="st15" width="22.9" height="3.4"/>
		<rect x="305.7" y="227" class="st15" width="12.7" height="3.4"/>
		<rect x="319.7" y="226.9" class="st15" width="21.8" height="3.4"/>
		<rect x="247.1" y="203.8" class="st15" width="45" height="3.4"/>
		<rect x="230.9" y="203.8" class="st15" width="14.8" height="3.4"/>
		<rect x="202.8" y="203.8" class="st15" width="26.7" height="3.4"/>
		<rect x="247.8" y="227" class="st15" width="14.8" height="3.4"/>
		<rect x="219.8" y="227" class="st15" width="26.7" height="3.4"/>
		<rect x="218.1" y="131.2" class="st15" width="33.9" height="3.4"/>
		<rect x="202.9" y="131.3" class="st15" width="13.8" height="3.4"/>
		<rect x="253.4" y="131.3" class="st15" width="19.4" height="3.4"/>
		<rect x="274.1" y="131.2" class="st15" width="36" height="3.4"/>
		<rect x="340.8" y="136.7" class="st8" width="13.6" height="3.4"/>
		<rect x="313.8" y="136.7" class="st8" width="25.6" height="3.4"/>
		<rect x="278.4" y="136.7" class="st8" width="14.2" height="3.4"/>
		<rect x="294.1" y="136.8" class="st8" width="18.3" height="3.4"/>
		<rect x="247.1" y="136.8" class="st8" width="30" height="3.4"/>
		<rect x="234.9" y="136.8" class="st8" width="10.9" height="3.4"/>
		<rect x="221.9" y="136.7" class="st8" width="11.6" height="3.4"/>
		<rect x="202.8" y="136.7" class="st8" width="17.6" height="3.4"/>
		<rect x="202.9" y="142.3" class="st8" width="13.6" height="3.4"/>
		<rect x="217.8" y="142.3" class="st8" width="25.6" height="3.4"/>
		<rect x="264.6" y="142.3" class="st8" width="14.2" height="3.4"/>
		<rect x="244.8" y="142.3" class="st8" width="18.3" height="3.4"/>
		<rect x="280.1" y="142.3" class="st8" width="30" height="3.4"/>
		<rect x="311.5" y="142.3" class="st8" width="10.9" height="3.4"/>
		<rect x="323.8" y="142.3" class="st8" width="11.6" height="3.4"/>
		<rect x="336.8" y="142.3" class="st8" width="17.6" height="3.4"/>
		<rect x="289" y="147.8" class="st8" width="14.2" height="3.4"/>
		<rect x="304.7" y="147.8" class="st8" width="21.4" height="3.4"/>
		<rect x="257.7" y="147.8" class="st8" width="30" height="3.4"/>
		<rect x="245.5" y="147.8" class="st8" width="10.9" height="3.4"/>
		<rect x="232.5" y="147.8" class="st8" width="11.6" height="3.4"/>
		<rect x="202.8" y="147.8" class="st8" width="28.2" height="3.4"/>
		<rect x="202.9" y="210.1" class="st8" width="13.6" height="3.4"/>
		<rect x="217.8" y="210.1" class="st8" width="25.6" height="3.4"/>
		<rect x="264.6" y="210.1" class="st8" width="14.2" height="3.4"/>
		<rect x="244.8" y="210.1" class="st8" width="18.3" height="3.4"/>
		<rect x="280.1" y="210.1" class="st8" width="30" height="3.4"/>
		<rect x="311.5" y="210.1" class="st8" width="10.9" height="3.4"/>
		<rect x="323.8" y="210.1" class="st8" width="11.6" height="3.4"/>
		<rect x="336.8" y="210.1" class="st8" width="17.6" height="3.4"/>
		<rect x="289" y="215.6" class="st8" width="14.2" height="3.4"/>
		<rect x="304.7" y="215.6" class="st8" width="21.4" height="3.4"/>
		<rect x="257.7" y="215.6" class="st8" width="30" height="3.4"/>
		<rect x="245.5" y="215.6" class="st8" width="10.9" height="3.4"/>
		<rect x="232.5" y="215.6" class="st8" width="11.6" height="3.4"/>
		<rect x="202.8" y="215.6" class="st8" width="28.2" height="3.4"/>
		<g>
			<path class="st16" d="M202.6,109.3l1.8-2.1c1,0.8,2.2,1.4,3.3,1.4c1.3,0,1.9-0.5,1.9-1.3c0-0.9-0.8-1.1-2-1.6l-1.8-0.8
				c-1.4-0.6-2.8-1.7-2.8-3.7c0-2.3,2-4.1,4.9-4.1c1.6,0,3.2,0.6,4.4,1.8l-1.6,1.9c-0.9-0.7-1.8-1.1-2.8-1.1c-1.1,0-1.7,0.4-1.7,1.2
				c0,0.8,0.9,1.1,2.1,1.6l1.7,0.7c1.7,0.7,2.7,1.8,2.7,3.7c0,2.3-1.9,4.2-5.1,4.2C205.9,111.2,204,110.6,202.6,109.3z"/>
			<path class="st16" d="M215.1,97.4h3.1v5.3h4.7v-5.3h3.1V111h-3.1v-5.7h-4.7v5.7h-3.1V97.4z"/>
			<path class="st16" d="M229.2,97.4h3.1V111h-3.1V97.4z"/>
			<path class="st16" d="M235.5,97.4h4.7c3,0,5.4,1.1,5.4,4.4c0,3.2-2.4,4.6-5.3,4.6h-1.7v4.6h-3.1L235.5,97.4L235.5,97.4z
				 M240.1,103.9c1.7,0,2.5-0.8,2.5-2.2c0-1.4-0.9-1.9-2.6-1.9h-1.4v4.1H240.1z"/>
			<path class="st16" d="M248,97.4h4.7c3,0,5.4,1.1,5.4,4.4c0,3.2-2.4,4.6-5.3,4.6H251v4.6h-3V97.4z M252.5,103.9
				c1.7,0,2.5-0.8,2.5-2.2c0-1.4-0.9-1.9-2.6-1.9H251v4.1H252.5z"/>
			<path class="st16" d="M260.4,97.4h3.1V111h-3.1V97.4z"/>
			<path class="st16" d="M266.7,97.4h3.2l3.6,6.8l1.3,3h0.1c-0.1-1.4-0.4-3.4-0.4-5v-4.8h2.9V111h-3.2l-3.6-6.8l-1.3-3h-0.1
				c0.1,1.5,0.4,3.3,0.4,4.9v4.8h-2.9V97.4z"/>
			<path class="st16" d="M280,104.3c0-4.5,3-7.1,6.6-7.1c2,0,3.4,0.8,4.3,1.8l-1.6,2c-0.7-0.6-1.4-1.1-2.6-1.1
				c-2.1,0-3.6,1.6-3.6,4.4s1.3,4.4,3.8,4.4c0.5,0,1.1-0.1,1.4-0.4v-2.4H286v-2.5h5v6.3c-0.9,0.9-2.6,1.7-4.5,1.7
				C282.9,111.2,280,108.9,280,104.3z"/>
			<path class="st16" d="M298.2,97.4h4.9c2.9,0,5.3,1,5.3,4.2c0,3.1-2.4,4.5-5.3,4.5h-1.8v4.9h-3.1V97.4z M302.8,103.6
				c1.6,0,2.5-0.7,2.5-2s-0.9-1.8-2.5-1.8h-1.6v3.8H302.8z M302.5,105.3l2.1-2l4.4,7.7h-3.4L302.5,105.3z"/>
			<path class="st16" d="M313.3,97.4h3.7l4.3,13.6H318l-1.8-6.9c-0.4-1.4-0.7-3-1.1-4.4H315c-0.3,1.4-0.7,3-1.1,4.4l-1.8,6.9h-3.2
				L313.3,97.4z M311.9,105.4h6.6v2.4h-6.6V105.4z"/>
			<path class="st16" d="M323.9,99.9h-3.8v-2.6h10.6v2.6H327v11h-3.1V99.9z"/>
			<path class="st16" d="M332.9,97.4h8.5v2.6H336v2.7h4.6v2.6H336v3.1h5.7v2.6h-8.8L332.9,97.4L332.9,97.4z"/>
			<path class="st16" d="M343.5,109.3l1.8-2.1c1,0.8,2.2,1.4,3.3,1.4c1.3,0,1.9-0.5,1.9-1.3c0-0.9-0.8-1.1-2-1.6l-1.8-0.8
				c-1.4-0.6-2.8-1.7-2.8-3.7c0-2.3,2-4.1,4.9-4.1c1.6,0,3.2,0.6,4.4,1.8l-1.6,1.9c-0.9-0.7-1.8-1.1-2.8-1.1c-1.1,0-1.7,0.4-1.7,1.2
				c0,0.8,0.9,1.1,2.1,1.6l1.7,0.7c1.7,0.7,2.7,1.8,2.7,3.7c0,2.3-1.9,4.2-5.1,4.2C346.8,111.2,344.9,110.6,343.5,109.3z"/>
		</g>
		<g>
			<path class="st17" d="M195.2,245.4H89c-1.6,0-2.9-1.3-2.9-2.9V99.1c0-1.6,1.3-2.9,2.9-2.9h106.1c1.6,0,2.9,1.3,2.9,2.9v143.4
				C198.1,244.1,196.8,245.4,195.2,245.4z"/>
			<path class="st18" d="M112.4,177.4h-18c-1.1,0-2.1-0.9-2.1-2.1v-12.4c0-1.1,0.9-2.1,2.1-2.1h18c1.1,0,2.1,0.9,2.1,2.1v12.4
				C114.5,176.5,113.5,177.4,112.4,177.4z"/>
			<path class="st18" d="M112.4,198.2h-18c-1.1,0-2.1-0.9-2.1-2.1v-12.4c0-1.1,0.9-2.1,2.1-2.1h18c1.1,0,2.1,0.9,2.1,2.1v12.4
				C114.5,197.2,113.5,198.2,112.4,198.2z"/>
			<path class="st18" d="M112.4,218.9h-18c-1.1,0-2.1-0.9-2.1-2.1v-12.4c0-1.1,0.9-2.1,2.1-2.1h18c1.1,0,2.1,0.9,2.1,2.1v12.4
				C114.5,218,113.5,218.9,112.4,218.9z"/>
			<path class="st18" d="M138.2,177.4h-18c-1.1,0-2.1-0.9-2.1-2.1v-12.4c0-1.1,0.9-2.1,2.1-2.1h18c1.1,0,2.1,0.9,2.1,2.1v12.4
				C140.2,176.5,139.3,177.4,138.2,177.4z"/>
			<path class="st18" d="M138.2,198.2h-18c-1.1,0-2.1-0.9-2.1-2.1v-12.4c0-1.1,0.9-2.1,2.1-2.1h18c1.1,0,2.1,0.9,2.1,2.1v12.4
				C140.2,197.2,139.3,198.2,138.2,198.2z"/>
			<path class="st18" d="M138.2,218.9h-18c-1.1,0-2.1-0.9-2.1-2.1v-12.4c0-1.1,0.9-2.1,2.1-2.1h18c1.1,0,2.1,0.9,2.1,2.1v12.4
				C140.2,218,139.3,218.9,138.2,218.9z"/>
			<path class="st18" d="M164,177.4h-18c-1.1,0-2.1-0.9-2.1-2.1v-12.4c0-1.1,0.9-2.1,2.1-2.1h18c1.1,0,2.1,0.9,2.1,2.1v12.4
				C166,176.5,165.1,177.4,164,177.4z"/>
			<path class="st18" d="M164,198.2h-18c-1.1,0-2.1-0.9-2.1-2.1v-12.4c0-1.1,0.9-2.1,2.1-2.1h18c1.1,0,2.1,0.9,2.1,2.1v12.4
				C166,197.2,165.1,198.2,164,198.2z"/>
			<path class="st18" d="M164,218.9h-18c-1.1,0-2.1-0.9-2.1-2.1v-12.4c0-1.1,0.9-2.1,2.1-2.1h18c1.1,0,2.1,0.9,2.1,2.1v12.4
				C166,218,165.1,218.9,164,218.9z"/>
			<path class="st18" d="M189.8,177.4h-18c-1.1,0-2.1-0.9-2.1-2.1v-12.4c0-1.1,0.9-2.1,2.1-2.1h18c1.1,0,2.1,0.9,2.1,2.1v12.4
				C191.8,176.5,190.9,177.4,189.8,177.4z"/>
			<path class="st18" d="M189.8,198.2h-18c-1.1,0-2.1-0.9-2.1-2.1v-12.4c0-1.1,0.9-2.1,2.1-2.1h18c1.1,0,2.1,0.9,2.1,2.1v12.4
				C191.8,197.2,190.9,198.2,189.8,198.2z"/>
			<path class="st18" d="M189.8,239.4h-18c-1.1,0-2.1-0.9-2.1-2.1v-33c0-1.1,0.9-2.1,2.1-2.1h18c1.1,0,2.1,0.9,2.1,2.1v33
				C191.8,238.5,190.9,239.4,189.8,239.4z"/>
			<path class="st18" d="M112.4,156.7h-18c-1.1,0-2.1-0.9-2.1-2.1v-12.4c0-1.1,0.9-2.1,2.1-2.1h18c1.1,0,2.1,0.9,2.1,2.1v12.4
				C114.5,155.8,113.5,156.7,112.4,156.7z"/>
			<path class="st18" d="M138.2,156.7h-18c-1.1,0-2.1-0.9-2.1-2.1v-12.4c0-1.1,0.9-2.1,2.1-2.1h18c1.1,0,2.1,0.9,2.1,2.1v12.4
				C140.2,155.8,139.3,156.7,138.2,156.7z"/>
			<path class="st18" d="M164,156.7h-18c-1.1,0-2.1-0.9-2.1-2.1v-12.4c0-1.1,0.9-2.1,2.1-2.1h18c1.1,0,2.1,0.9,2.1,2.1v12.4
				C166,155.8,165.1,156.7,164,156.7z"/>
			<path class="st18" d="M189.8,156.7h-18c-1.1,0-2.1-0.9-2.1-2.1v-12.4c0-1.1,0.9-2.1,2.1-2.1h18c1.1,0,2.1,0.9,2.1,2.1v12.4
				C191.8,155.8,190.9,156.7,189.8,156.7z"/>
			<path class="st18" d="M138.2,239.6H94.4c-1.1,0-2.1-0.9-2.1-2.1v-12.4c0-1.1,0.9-2.1,2.1-2.1h43.8c1.1,0,2.1,0.9,2.1,2.1v12.4
				C140.2,238.7,139.3,239.6,138.2,239.6z"/>
			<path class="st18" d="M164,239.6h-18c-1.1,0-2.1-0.9-2.1-2.1v-12.4c0-1.1,0.9-2.1,2.1-2.1h18c1.1,0,2.1,0.9,2.1,2.1v12.4
				C166,238.7,165.1,239.6,164,239.6z"/>
			<path class="st19" d="M189.8,130.2H94.4c-1.1,0-2.1-0.9-2.1-2.1v-23.4c0-1.1,0.9-2.1,2.1-2.1h95.3c1.1,0,2.1,0.9,2.1,2.1v23.4
				C191.8,129.3,190.9,130.2,189.8,130.2z"/>
			<g>
				<path class="st20" d="M99.9,148.4c0-2.4,1.5-3.8,3.8-3.8c1.5,0,2.5,0.5,3.2,1.4l-1.1,1c-0.4-0.6-1.1-1-2-1
					c-1.4,0-2.3,0.9-2.3,2.4s0.9,2.4,2.3,2.4c0.9,0,1.6-0.4,2-1l1.1,1c-0.7,0.9-1.7,1.4-3.2,1.4C101.3,152.2,99.9,150.8,99.9,148.4z
					"/>
			</g>
			<g>
				<path class="st20" d="M124.6,146.9c0-1.3,0.8-2.2,2-2.2s2,0.8,2,2.2c0,1.3-0.8,2.1-2,2.1C125.4,149,124.6,148.2,124.6,146.9z
					 M127.7,146.9c0-0.9-0.4-1.4-1.1-1.4s-1.1,0.5-1.1,1.4s0.4,1.4,1.1,1.4C127.2,148.2,127.7,147.7,127.7,146.9z M132.2,144.8
					l-5,7.3h-1l5-7.3H132.2z M129.8,150c0-1.3,0.8-2.2,2-2.2s2,0.8,2,2.2c0,1.3-0.8,2.1-2,2.1C130.6,152.2,129.8,151.3,129.8,150z
					 M132.9,150c0-0.9-0.4-1.4-1.1-1.4c-0.7,0-1.1,0.5-1.1,1.4s0.4,1.4,1.1,1.4S132.9,150.9,132.9,150z"/>
			</g>
			<g>
				<path class="st20" d="M180.7,149.4l-1.3,1.8h-1.6l2.1-2.9l-2.1-2.8h1.7l1.2,1.8l1.3-1.8h1.6l-2,2.8l2.1,2.9h-1.6L180.7,149.4z"
					/>
			</g>
			<g>
				<path class="st20" d="M106.1,166.2l-3.5,6.6H101l3.2-6h-3.5v-1.3h5.4V166.2z"/>
			</g>
			<g>
				<path class="st20" d="M132.2,170.7c0,1.6-1.3,2.2-3,2.2c-1.8,0-3.1-0.7-3.1-2.2c0-0.8,0.5-1.6,1.4-1.8c-0.6-0.3-1.1-0.8-1.1-1.6
					c0-1.3,1.2-2,2.7-2c1.5,0,2.7,0.6,2.7,2c0,0.8-0.4,1.3-1.1,1.6C131.7,169.2,132.2,169.9,132.2,170.7z M130.8,170.6
					c0-0.7-0.6-1.1-1.6-1.1s-1.6,0.4-1.6,1.1c0,0.8,0.7,1.1,1.6,1.1C130.1,171.7,130.8,171.4,130.8,170.6z M127.8,167.5
					c0,0.6,0.5,0.9,1.4,0.9s1.4-0.4,1.4-0.9c0-0.7-0.5-1-1.4-1S127.8,166.8,127.8,167.5z"/>
			</g>
			<g>
				<path class="st20" d="M157.9,169c0,2.7-1.3,4-3.2,4c-1.8,0-2.7-0.9-2.7-2v-0.1h1.4c0,0.5,0.4,0.9,1.3,0.9c1.2,0,1.7-0.8,1.8-2.1
					c-0.4,0.4-1.1,0.6-1.8,0.6c-1.5,0-2.8-0.7-2.8-2.3s1.2-2.6,2.9-2.6C156.8,165.4,157.9,166.6,157.9,169z M156.3,167.9
					c0-0.7-0.6-1.3-1.6-1.3s-1.4,0.6-1.4,1.3c0,0.8,0.7,1.3,1.5,1.3C155.7,169.2,156.3,168.7,156.3,167.9z"/>
			</g>
			<g>
				<path class="st20" d="M183.5,168.7v1.3H178v-1.3H183.5z"/>
			</g>
			<g>
				<path class="st20" d="M106.6,192.2h-1.2v1.3H104v-1.3h-4v-0.7l4.5-5.4h0.9v4.8h1.2V192.2z M104.1,188.5L102,191h2.1V188.5z"/>
			</g>
			<g>
				<path class="st20" d="M132.1,191.1c0,1.7-1.2,2.5-2.9,2.5c-1.8,0-3-0.9-3-2.3v-0.1h1.4v0.1c0,0.7,0.6,1.1,1.6,1.1
					c0.9,0,1.5-0.5,1.5-1.3c0-0.9-0.6-1.3-1.6-1.3c-0.5,0-1.1,0.1-1.3,0.4h-1.2l0.2-4h4.9v1.3H128l-0.1,1.5c0.4-0.2,0.9-0.3,1.4-0.3
					C130.9,188.6,132.1,189.6,132.1,191.1z"/>
			</g>
			<g>
				<path class="st20" d="M157.9,191.1c0,1.7-1.2,2.6-2.9,2.6c-2.1,0-3.2-1.3-3.2-3.7c0-2.7,1.4-3.9,3.2-3.9c1.6,0,2.6,0.9,2.6,1.9
					v0.1h-1.4c0-0.5-0.4-0.8-1.2-0.8c-1.1,0-1.7,0.9-1.7,2.1c0.4-0.4,1.1-0.7,1.9-0.7C156.6,188.8,157.9,189.5,157.9,191.1z
					 M156.4,191.2c0-0.8-0.7-1.3-1.5-1.3s-1.5,0.5-1.5,1.2s0.6,1.4,1.6,1.4C155.9,192.4,156.4,191.9,156.4,191.2z"/>
			</g>
			<g>
				<path class="st20" d="M178.1,190.5v-1.2h2v-2h1.2v2h2v1.2h-2v2h-1.2v-2H178.1z"/>
			</g>
			<g>
				<path class="st20" d="M102.1,208.7l-0.3-1.2l2.4-0.6h0.7v7.3h-1.5v-5.9L102.1,208.7z"/>
			</g>
			<g>
				<path class="st20" d="M132,214.3h-5.7V214c0.1-1.2,0.8-2.1,2.4-3c0.8-0.5,1.8-1,1.8-1.8c0-0.6-0.5-0.9-1.2-0.9
					c-0.9,0-1.5,0.5-1.5,1.4v0.1h-1.4v-0.2c0-1.6,1.2-2.6,2.9-2.6c1.5,0,2.7,0.7,2.7,2.2c0,1.3-1,2.1-2.5,2.9
					c-0.8,0.4-1.2,0.7-1.5,1.1h4V214.3z"/>
			</g>
			<g>
				<path class="st20" d="M157.8,211.9c0,1.6-1.2,2.4-2.9,2.4c-1.8,0-2.9-0.9-2.9-2.3v-0.1h1.4v0.1c0,0.7,0.6,1.1,1.5,1.1
					s1.5-0.5,1.5-1.2c0-0.8-0.7-1.2-1.5-1.2c-0.3,0-0.7,0.1-1,0.2l-0.5-0.7l2.2-2.1h-3.1v-1.3h5.2v0.6l-2.2,2.1l0,0
					C157,209.6,157.8,210.7,157.8,211.9z"/>
			</g>
			<g>
				<path class="st20" d="M183.2,218.8v1.2h-5v-1.2H183.2z M183.2,221.7v1.2h-5v-1.2H183.2z"/>
			</g>
			<g>
				<path class="st20" d="M113,231.3c0-2.4,1.3-3.8,3.3-3.8c2.1,0,3.3,1.4,3.3,3.8c0,2.4-1.3,3.8-3.3,3.8
					C114.2,235.1,113,233.7,113,231.3z M118.2,231.3c0-1.6-0.7-2.5-1.9-2.5c-1.2,0-1.9,0.9-1.9,2.5c0,1.5,0.7,2.4,1.9,2.4
					C117.4,233.8,118.2,232.9,118.2,231.3z"/>
			</g>
			<g>
				<path class="st20" d="M154.1,234.3c0-0.5,0.4-0.9,0.9-0.9s0.9,0.4,0.9,0.9s-0.4,0.9-0.9,0.9
					C154.4,235.1,154.1,234.7,154.1,234.3z"/>
			</g>
			<path class="st20" d="M158.1,147.8v1.3h-6.4v-1.3H158.1z M154,145.7c0-0.5,0.4-0.9,0.9-0.9s0.9,0.4,0.9,0.9s-0.4,0.9-0.9,0.9
				C154.4,146.6,154,146.2,154,145.7z M154,151.1c0-0.5,0.4-0.9,0.9-0.9s0.9,0.4,0.9,0.9s-0.4,0.9-0.9,0.9S154,151.6,154,151.1z"/>
			<g>
				<path class="st20" d="M183.2,122.1c-0.7,0.7-1.8,1.1-3.2,1.1v1.1h-1.3v-1.1c-0.9,0-1.6-0.1-2.3-0.3c-0.7-0.2-1.4-0.5-2.2-0.8
					l0.9-2.1c0.7,0.3,1.3,0.6,1.9,0.7c0.6,0.2,1.2,0.3,1.8,0.4v-3.3c-1.5-0.4-2.6-0.8-3.3-1.4s-1.1-1.4-1.1-2.5
					c0-0.7,0.2-1.3,0.5-1.9s0.8-1,1.5-1.3s1.5-0.5,2.4-0.6v-0.8h1.3v0.8c1.4,0.1,2.7,0.4,3.8,1l-1,2.1c-1-0.4-1.9-0.7-2.8-0.8v3.2
					h0.1c1.3,0.3,2.4,0.8,3.1,1.3c0.7,0.6,1.1,1.3,1.1,2.4C184.3,120.5,183.9,121.4,183.2,122.1z M177.2,114.6
					c0.3,0.2,0.8,0.4,1.5,0.6v-2.9c-0.6,0-1.1,0.2-1.5,0.4c-0.3,0.3-0.5,0.6-0.5,1S176.9,114.4,177.2,114.6z M181.3,120.6
					c0.3-0.2,0.5-0.6,0.5-1c0-0.3-0.2-0.6-0.5-0.8c-0.3-0.2-0.8-0.4-1.4-0.6v2.9C180.5,121,181,120.8,181.3,120.6z"/>
			</g>
		</g>
		<g>
			<path class="st21" d="M44,83.5c0.4-9.1,4-17.3,9.8-23.6l23.6,23.6H44z"/>
			<path class="st22" d="M79.8,83.1L58.5,61.8c5.6-5.2,13.1-8.3,21.3-8.3s15.7,3.2,21.3,8.3L79.8,83.1z"/>
			<path class="st23" d="M78.8,85.6v27.5c-14.9-0.6-26.9-12.6-27.5-27.5H78.8z"/>
			<path class="st24" d="M80.9,85l18-18c4.3,4.6,6.9,10.8,6.9,17.6c0,14-11.1,25.4-24.9,25.9V85z"/>
		</g>
		<g>
			<ellipse class="st25" cx="399.4" cy="80.7" rx="3.3" ry="3.3"/>
			<path class="st26" d="M399.4,77.4c-0.3,0-0.7,0.1-1,0.1c1.4,0.4,2.4,1.7,2.4,3.2s-1,2.8-2.4,3.2c0.3,0.1,0.6,0.1,1,0.1
				c1.8,0,3.3-1.5,3.3-3.3C402.8,78.9,401.3,77.4,399.4,77.4z"/>
			<path class="st25" d="M399.8,61.3c-1.1,0.2-2.1-0.5-2.3-1.5c-0.2-1.1,0.5-2.1,1.6-2.3s2.1,0.5,2.3,1.5
				C401.6,60,400.9,61,399.8,61.3z"/>
			<path class="st26" d="M401.4,58.9c-0.2-1.1-1.3-1.8-2.3-1.5c-0.1,0-0.2,0-0.3,0.1c0.6,0.2,1.1,0.8,1.3,1.5c0.2,1-0.4,1.9-1.3,2.2
				c0.3,0.1,0.7,0.2,1.1,0.1C400.9,61,401.6,60,401.4,58.9z"/>
			<path class="st27" d="M407.7,80.2h-16.5c-1.5,0-2.7-1.2-2.7-2.7c0-0.8,0.4-1.6,1-2.1L390,75c1.2-1,1.9-2.5,1.9-4.1v-2.8
				c0-4.1,3.4-7.5,7.5-7.5c4.2,0,7.5,3.4,7.5,7.5V71c0,1.5,0.7,3,1.9,4l0.5,0.4c0.6,0.5,1,1.3,1,2.1l0,0
				C410.4,79,409.2,80.2,407.7,80.2z"/>
			<path class="st13" d="M409.4,75.4l-0.5-0.4c-1.2-1-1.9-2.5-1.9-4v-2.9c0-4.1-3.4-7.5-7.5-7.5c-0.7,0-1.4,0.1-2.1,0.3
				c3.1,0.9,5.4,3.8,5.4,7.2V71c0,1.5,0.7,3,1.9,4l0.5,0.4c0.6,0.5,1,1.3,1,2.1l0,0c0,1.5-1.2,2.7-2.7,2.7h4.2
				c1.5,0,2.7-1.2,2.7-2.7l0,0C410.4,76.7,410,75.9,409.4,75.4z"/>
			<g>
				<path class="st27" d="M384.8,70.4c-0.6-1.4-0.9-2.8-0.7-4.4c0.2-1.9,0.9-3.3,2.1-4.4c0.2-0.2,0.3-0.4,0.3-0.6
					c0-0.3-0.2-0.6-0.5-0.7c-0.3-0.2-0.6-0.1-0.9,0.1c-0.7,0.6-1.3,1.4-1.7,2.3c-0.9,1.9-1.2,4-0.7,6.2c0.3,1.8,1.2,3.3,2.4,4.5
					c0.2,0.2,0.4,0.3,0.6,0.3l0,0c0.2,0,0.4-0.1,0.6-0.3c0.2-0.2,0.2-0.4,0.2-0.6s-0.1-0.5-0.3-0.7
					C385.5,71.7,385.1,71.1,384.8,70.4z"/>
				<path class="st13" d="M416.4,64.5L416.4,64.5c-0.4-1.7-1.2-3.1-2.3-4.1c-0.4-0.4-0.9-0.4-1.3,0c-0.2,0.2-0.2,0.4-0.2,0.6
					c0,0.2,0.1,0.5,0.4,0.7c0.5,0.4,0.9,1,1.2,1.6c0.7,1.4,0.9,2.9,0.8,4.5c-0.2,1.9-0.9,3.3-2,4.5c-0.4,0.4-0.4,0.9-0.1,1.2
					c0.2,0.2,0.4,0.3,0.6,0.3s0.4-0.1,0.6-0.3c0.3-0.2,0.5-0.5,0.7-0.8c1.3-1.6,1.9-3.5,1.9-5.8C416.7,66.1,416.6,65.3,416.4,64.5z"
					/>
				<path class="st27" d="M385.5,66.9L385.5,66.9c0,0.4,0,0.7,0.1,1c0.3,1.5,1,2.8,2.1,3.7c0.2,0.2,0.4,0.2,0.6,0.2h0.1
					c0.3-0.1,0.6-0.3,0.7-0.6c0.1-0.3,0-0.7-0.3-0.9c-1.3-1.1-1.8-2.6-1.5-4.4c0.2-1,0.7-1.8,1.5-2.4c0.3-0.2,0.4-0.5,0.3-0.9
					c-0.1-0.3-0.3-0.5-0.6-0.6c-0.4-0.1-0.7,0.1-0.9,0.2C386.3,63.4,385.6,64.9,385.5,66.9C385.5,66.8,385.5,66.9,385.5,66.9z"/>
				<path class="st13" d="M410.2,63.6c0.3,0.2,0.6,0.5,0.8,0.8c1.3,1.8,0.9,4.5-0.7,5.9c-0.1,0.1-0.4,0.3-0.4,0.6
					c0,0.4,0.1,0.7,0.4,0.9c0.1,0.1,0.3,0.1,0.4,0.1c0.2,0,0.4-0.1,0.6-0.2c1.4-1.2,2.1-2.8,2.2-4.7l0,0v-0.2c0-0.1,0-0.3,0-0.4
					s0-0.2-0.1-0.4c-0.3-1.6-1-2.8-2.1-3.7c-0.4-0.3-0.9-0.3-1.2,0.1c-0.1,0.2-0.2,0.4-0.2,0.6C409.9,63.2,410,63.4,410.2,63.6z"/>
			</g>
		</g>
		<g>
			<path class="st28" d="M84.6,258.5c0.5,0.2,1,0.5,1.3,1c0.2,0.4,0.3,0.9,0.3,1.4c0,0.4-0.2,0.8-0.4,1.1c-0.2,0.4-0.5,0.6-0.9,0.8
				c-0.8,0.4-1.6,0.8-2.1,1.6c-0.3,0.6-0.8,1.4-1.3,1.8c-0.9,0.6-2.7,0.5-3.7,0.4c-0.4-0.1-1.1-0.3-1.3-0.6
				c-0.3-0.5-0.1-1.2-0.1-1.5c-0.2-1.4-0.1-3.2,0.3-5.1c0.2-0.9,0.5-0.8,0.9-1.2c0.4-0.4,0.5-0.2,1.1-0.4c1.2-0.2,2-0.6,3.2-0.6
				c0.4,0,0.7-0.1,1.1,0.2C83.5,257.9,84,258.2,84.6,258.5z"/>
			<path class="st29" d="M76.4,264.4v-0.1c0.4,0.4,0.9,0.7,1.6,0.8c1.2,0.2,2.8,0.2,3.9-0.5c0.5-0.3,0.7-0.9,1.2-1.3
				c0.4-0.4,0.9-0.7,1.4-0.9c0.5-0.3,1.3-0.8,1.7-1.5c0,0.4-0.2,0.9-0.4,1.2c-0.2,0.4-0.5,0.6-0.9,0.8c-0.8,0.4-1.6,0.8-2.1,1.6
				c-0.3,0.6-0.4,1.2-1.2,1.8c-0.8,0.6-2.9,0.5-3.8,0.4c-0.4-0.1-1.1-0.3-1.3-0.6C76.2,265.3,76.5,264.7,76.4,264.4z"/>
			<path class="st28" d="M98,255.5c0.4,0.3,0.7,0.7,1.1,1c0.9,0.5,1.7,0.6,2.6,0.7s1.9,0.3,2.5,0.9c0.4,0.4,0.5,0.9,0.6,1.4
				c0,0.5-0.1,1.1-0.3,1.6c-0.5,0.9-1.5,1.5-2.5,1.9s-2.1,0.5-3.1,0.7c-2.5,0.5-4.8,1.4-7.5,0.9c-0.4-0.1-0.7-0.2-1-0.5
				c-0.2-0.2-0.3-0.7-0.3-1.4c0-0.6,0.2-1.1,0.3-1.4c0.2-0.9,0.4-2.2,0.7-3.3c0.1-0.3,0.1-0.6,0.4-0.9s0.7-0.3,1-0.3
				c1-0.1,2.1-0.5,3-0.9c0.5-0.2,0.7-0.6,1.1-0.8C96.9,255,97.6,255.2,98,255.5z"/>
			<path class="st29" d="M90.1,262.8c0.6,0.5,1.4,0.6,2.2,0.7c1.8,0.1,3.6-0.1,5.4-0.4c1.7-0.3,3.6-0.7,5.2-1.5
				c1.2-0.6,1.7-1.6,1.8-2.9c0.1,0.3,0.2,0.6,0.2,0.9c0,0.5-0.1,1.1-0.3,1.6c-0.5,0.9-1.5,1.5-2.5,1.9s-2.1,0.5-3.1,0.7
				c-2.5,0.5-4.8,1.4-7.5,0.9c-0.4-0.1-0.7-0.2-1-0.5C90.1,263.9,90,263.5,90.1,262.8C90,262.8,90,262.8,90.1,262.8L90.1,262.8z"/>
			<path class="st30" d="M91.7,256.3c0,0.5-0.1,0.8-0.1,1.1c0.7,0.1,1.1,0.2,1.5,0.4c0.9,0.4,1.3,1,2.7,0.9c1.1-0.1,2-1.3,2-2.2
				c0-0.7-0.6-0.9-0.9-1.6c-0.6-1.2-0.3-2.8-0.4-4.1c-0.1-1.6-0.1-2.9-0.1-4.2c-1.6,0.1-2.9,0.5-4.5,0.6c-0.9,0.1-1.4-1.2-1.2-0.4
				c0.2,0.9,0.6,3.2,0.7,4.1C91.8,252.8,91.8,254.6,91.7,256.3z"/>
			<path class="st30" d="M82.6,257.7c0.1,0.5,0.3,0.7-0.1,1.3c-0.4,0.5-1.2,0.4-1.9,0.3c-1.2-0.2-2.5-0.4-3.7-0.1
				c0.3-0.9,0.6-2.1,0.6-3.5c0.1-3-0.4-4.7-0.5-9.8c1.1,0,2.6,0.9,3.6,0.9c0.5,0,0.9-0.3,1.4-0.3c0.1,0,0.5-0.1,0.6,0.1
				c0.1,0.1,0.2,0.4,0.2,0.5c-0.3,2.1-0.7,5.6-0.7,7.6C82.2,255.9,82.4,256.6,82.6,257.7z"/>
			<path class="st30" d="M67.7,175c-0.1-1.2,0.2-2.8,0.3-4.2c1.2,0.2,2.3,0.5,3.5,0.7c1,0.1,2.1,0.3,3.1,0.5c0,0.1,0,0.2,0,0.4
				c-0.1,1.1-0.6,4.6-0.8,5.7c-0.1,0.9-0.3,1.8-0.4,2.6c-0.1,0.9,0,2.2,0,3.1c0,1.8-0.1,3-0.3,4.8c-0.1,1.3-0.2,2.6-0.2,3.9
				c0,0.7,0,1.3,0,2c0,0.5,0.5,3.2,0.8,3.9c0.2,0.4,0.4,0.9,0.7,1.3c0.3,0.4,0.6,0.7,0.8,1.2c0.2,0.6,0.3,1.2,0.3,1.8
				c0,0.7-0.1,1.3,0,2c0.1,0.5,0.3,1,0.3,1.5c0.1,0.5,0.1,1.1-0.2,1.5c-0.2-0.1-0.4-0.1-0.6-0.3s-0.2-0.5-0.3-0.7
				c-0.1-0.5-0.2-0.9-0.2-1.4c0-0.3,0.2-0.8-0.3-0.9c-0.3-0.1-0.5,0.1-0.7,0.3c-0.1,0.2-0.2,0.5-0.1,0.8c0,0.3,0.1,0.5,0.1,0.8
				c0.1,0.7-0.1,1.4,0.1,2.1c0.2,0.5,0.5,0.9,0.8,1.2s0.8,0.5,0.9,1c0,0.1,0,0.3,0,0.4c-0.1,0.1-0.3,0.2-0.4,0.2
				c-0.5,0-1-0.4-1.5-0.6c-0.2-0.1-1.5-0.6-1.5-0.7c-0.5-0.2-0.9-0.4-1.3-0.8c-0.4-0.4-0.7-0.9-0.9-1.5c-0.3-0.8-0.3-1.6-0.4-2.3
				c-0.2-2.4,0.7-4.2,0.5-6.2c0-0.5-0.1-1-0.3-1.6c-0.2-0.7-1.3-5-1.4-5.9c-0.6-4.2-0.7-8.5-0.3-11.8C67.9,178,67.8,176.5,67.7,175z
				"/>
			<path class="st31" d="M75.6,206.5c1,6.3,2.8,11.3,2.7,17.8c-0.1,5.4-1.3,5.4-1.9,11.5c-0.2,2.5,0.2,6.6,0.5,11.7
				c1.3,0.4,4.7,0.4,6,0.1c0.5-4.5,1.4-8.5,1.9-12.3c1.4-10.4,2.7-18.5,2.7-29.4c1.2,7.6,3.5,15,2.8,22.6c-0.3,2.9-0.7,5-0.7,8.3
				c0,2.5,0.8,5.4,1.2,11.6c1.7,0.7,5.5,0.2,6-0.4c0.2-3.9,1.1-10.6,1.6-14.9c0.1-1.2,0.9-4.1,1-5.2c0.7-4.9,1.2-8.5,1.7-14.5
				c0.9-9.5,0.6-18.2-1.3-27.2c-5.9,0.4-11.8,0.6-17.7,0.4c-1.4,0-2.9-0.1-4.3-0.2c-0.9-0.1-0.3-2.4-0.8-1.8
				c-0.3,0.5-1.6,4.3-1.7,4.9c-0.6,3.1-0.8,5.7-0.8,8.3C74.8,200.7,75.1,203.6,75.6,206.5z"/>
			<path class="st32" d="M77,199.1c0.5,0.4,1,0.6,1.6,0.9c1.1,0.6,2.2,1.1,3.5,1.4c1.3,0.3,4.1,0.4,4.6,0.3c0.5,1.4,0.9,4,0.9,4.1
				c0,10.8-1.2,19.1-2.7,29.4c-0.5,3.8-1.5,7.9-1.9,12.3c-0.3,0.1-0.6,0.1-1.2,0.2c0.4-5.8,1-8.6,1.1-10.7c0.3-6,0.2-5.1,0.1-8.1
				c-0.2-2.7,1.6-5.1,1.6-9.5c0-2.4,0.3-5,0.1-7.5c-0.2-3.2-0.8-6.8-3.1-9.3c-1.7-1.9-3.2-2.2-4.8-3.7C76.9,199,77,199,77,199.1z"/>
			<path class="st30" d="M110.8,159.3c0.6-0.1,1.1-0.6,1.5-1c0.9-0.9,2-1.5,3-2.4c1.3-1.1,3-2.3,3.3-4.1c0.1-0.7,0.3-1.4,1.1-2.3
				c0.1-0.2,0.5-0.3,0.7-0.4c0.2-0.1,0.4-0.1,0.6-0.2c0.2-0.1,0.3-0.2,0.5-0.3c0.1-0.1,0.2-0.1,0.3-0.1c0.1,0,0.2,0.2,0.1,0.3
				c0,0.1-0.2,0.3-0.2,0.4c0.3-0.1,1-0.6,1.1-0.7c0.5-0.3,2.6-2.5,3.1-2.5c0.3,0,0.5,0.2,0.5,0.4s-0.4,0.6-0.6,0.8
				c-0.3,0.3-0.8,0.9-1.2,1.2c0.2-0.2,0.6-0.1,0.8,0.2c0.2,0.3,0.1,0.6-0.2,0.8c0.3,0,0.5,0.3,0.5,0.5c0,0.3-0.1,0.5-0.3,0.7
				c0,0,0.2,0,0.4,0.2c0.3,0.4-0.4,1.2-0.6,1.5c-0.3,0.5-1.3,1.3-1.7,1.7c-0.2,0.2-1.8,1-2.5,1.4c-1.4,0.8-2.1,1.8-3,3.1
				c-0.9,1.2-1.6,2.5-2.6,3.6c-0.5,0.6-1,1.3-1.6,1.8c-0.2,0.2-1.4,1.1-1.8,1.3c-0.9,0.4-1.6,0.4-2.5,0.2c-1.4-0.3-2.3-0.6-3.4-0.9
				c-1.3-0.4-2.2-0.7-3.5-1.2c0.1-0.1,0.3-0.2,0.3-0.3c0.1-0.2,0-0.1,0-0.2c0-0.2-0.1-0.3-0.1-0.6c0-0.2,0.2-0.5,0.3-0.7
				c0.3-0.5,0.8-0.9,1.2-1.3c0.8-0.7,1.5-1.4,2.3-2.1c0.2-0.2-2-0.8-1.8-0.9c0.4-0.1,2.5,0.3,2.8,0.5c0.4,0.3,1.4,0.9,1.9,1.2
				c0.3,0.2,0.6,0.4,1,0.5C110.7,159.4,110.7,159.4,110.8,159.3z"/>
			<path class="st21" d="M90.9,150.1c-2.8-2.3-7.2-2.4-10-0.2c-0.7,0.6-0.7,0.8-1.4,1.5c-1.2,1.3-2.6,0.6-6.6,2.9
				c-1.2,0.7-2.3,1.3-3,3.4c-0.5,1.5-1.1,6.5-1.3,7.5c-0.1,1-0.3,2-0.4,3.1c-0.1,1-0.7,5.4-0.8,5.9c2.3,0.3,4.6,0.6,6.9,1.1
				c0.3-2.4,0.4-3.9,0.9-6c1.6,3.3,3.1,7.3,2.4,11.8c-0.1,0.8-0.8,2.8-1.5,5.2c-0.3,1-0.4,1.3,0,1.2s1.3-0.2,1.5-0.2
				c1.3-0.1,2.3-0.2,3.7-0.2c1.3,0,2.6,0.1,3.9,0.2c1.4,0.1,3.9,0.6,5.3,0.7c1.7,0.1,4.2,0.6,8.8,0c0.3,0,0.9-0.2,1.1-0.3
				c0.5-0.4,0.1-1.4-0.1-1.9c-0.4-1.3-0.5-1.6-0.8-2.7c-1.3-4.6-2-7.4-1.8-10.4v-0.1c0.1-1.6,0.8-6.8,0.9-7.9c0-0.5,0.2-3.3,0.1-3.3
				c0.8,0.6,1.7,0.9,2.6,1.3c0.5,0.2,0.9,0.4,1.4,0.5c0.5,0.2,1,0.4,1.5,0.4c2.1,0.2,4.9-3,3.5-5.9c-1.6-1.1-1.8-1.5-3.4-2.7
				c-1.8-1.2-3.5-3.2-5.6-3.8c-3-0.9-3.9,0-7.3-0.9C91.2,150.2,91.1,150.1,90.9,150.1z"/>
			<path class="st33" d="M73.9,164.8c0.3,1.2,0.6,2.5,1.4,4.5c-0.5,2.1-0.6,4.4-0.9,6c-0.7-0.1-1.5-0.3-2.2-0.4c0.2-1.1,1-7.7,1-8.1
				c0.1-1.7-0.3-5.2-0.4-5.9C73.6,163.7,73.7,163.8,73.9,164.8z"/>
			<path class="st30" d="M94.8,137.8c0,0.3,0,0.5-0.1,0.8s-0.1,0.5-0.2,0.8c0,0.5,0.1,1,0.2,1.4c0.1,0.5,0,1.1-0.1,1.6
				c-0.1,0.4-0.4,0.8-0.5,1.2c-0.2,0.5-0.4,1.1-0.4,1.7c0,0.3,0,0.7-0.1,1s-0.2,0.6-0.5,0.8c-0.4,0.3-1,0.2-1.5,0.2
				c-0.6-0.1-1.2-0.2-1.7,0.1c-0.1,0-0.2,0.6-0.2,0.8c0,0.5,0.1,1,0.1,1.4c0,0.1,0,0.2,0,0.2c-0.1,0-0.1,0-0.2,0
				c-0.6,0-6.9-0.2-6.9-0.2c-0.2-1.9-0.3-4,0.6-5.7c0.5-1,1.3-1.7,2-2.6c2-2.4,3.3-5.4,5.4-7.8c0.3-0.3,0.6-0.6,1-0.7
				c0.4-0.1,0.8,0.1,1.1,0.4c0.7,0.6,1.1,1.1,1.5,1.9C94.6,136.1,94.7,137,94.8,137.8z"/>
			<path class="st34" d="M96.4,140.7c-0.1,0.5-0.2,1-0.4,1.5c-0.7,2.5-2,4.9-1.9,7.5c0.1,2.2,2,4.1,1.3,6.3c-0.9,3-5.1,3.7-6.2,6.6
				c-0.5,1.3,0,2.1,0,3.4c0,1.1-0.3,2.3-0.9,3.2c-0.9,1.4-2.3,2.3-3.9,2.6c-1.3,0.2-2.7-0.1-3.7-0.9c-0.7-0.6-1.2-1.5-1.7-2.3
				c-1.2-2.2-2.5-4.5-3.7-6.7c-1-1.8-2-3.6-2.1-5.6c-0.3-2.9,1.1-5.6,2.8-7.8c1.6-2.2,1.7-5,1.9-7.7c0-0.5,0.1-1.1,0.2-1.6
				c0.1-0.4,0-0.9,0.1-1.3c0.2-0.9,0.5-1.9,0.9-2.7c0.8-1.8,1.9-3.4,3.4-4.7c1.8-1.6,4.3-2.5,6.7-2.4c1.2,0,2.4,0.3,3.6,0.8
				s1.8,1.4,2.4,2.5c0.1,0.2,0.3,0.5,0.4,0.7C96.8,134.6,96.9,137.9,96.4,140.7z"/>
		</g>
		<g>
			<rect x="156.2" y="39" class="st35" width="5.3" height="37.2"/>
			<rect x="149.4" y="50.7" class="st13" width="5.3" height="25.5"/>
			<rect x="142.6" y="49.4" class="st36" width="5.3" height="26.8"/>
			<rect x="135.9" y="57.6" class="st37" width="5.3" height="18.6"/>
			<rect x="129.1" y="61.5" class="st38" width="5.3" height="14.7"/>
			<rect x="125.3" y="37.3" class="st39" width="1.1" height="44.1"/>
			<rect x="123.2" y="78.4" class="st39" width="43" height="1.1"/>
		</g>
		<g>
			
				<ellipse transform="matrix(0.1743 -0.9847 0.9847 0.1743 282.0987 547.5649)" class="st7" cx="467.5" cy="105.6" rx="30.7" ry="30.7"/>
			<circle class="st40" cx="467.5" cy="105.6" r="27"/>
			<g>
				<circle class="st41" cx="467.5" cy="105.6" r="25"/>
				<g>
					<g>
						<g>
							<path class="st21" d="M468.5,83.8c0,0.5-0.4,1-1,1c-0.5,0-1-0.4-1-1c0-0.5,0.4-1,1-1S468.5,83.2,468.5,83.8z"/>
							<path class="st21" d="M468.5,127.4c0,0.5-0.4,1-1,1c-0.5,0-1-0.4-1-1c0-0.5,0.4-1,1-1C468.1,126.4,468.5,126.8,468.5,127.4z"
								/>
						</g>
						<g>
							<ellipse class="st21" cx="489.3" cy="105.6" rx="1" ry="1"/>
							<path class="st21" d="M445.7,106.6c-0.5,0-1-0.4-1-1c0-0.5,0.4-1,1-1s1,0.4,1,1C446.7,106.1,446.3,106.6,445.7,106.6z"/>
						</g>
					</g>
					<g>
						<g>
							<path class="st16" d="M457.1,87.8c-0.1,0-0.2-0.1-0.3-0.1l-1-1.7c-0.1-0.1,0-0.3,0.1-0.4s0.3,0,0.4,0.1l1,1.7
								c0.1,0.1,0,0.3-0.1,0.4C457.2,87.8,457.2,87.8,457.1,87.8z"/>
						</g>
						<g>
							<path class="st16" d="M478.9,125.6c-0.1,0-0.2-0.1-0.3-0.1l-1-1.7c-0.1-0.1,0-0.3,0.1-0.4s0.3,0,0.4,0.1l1,1.7
								c0.1,0.1,0,0.3-0.1,0.4C479,125.6,479,125.6,478.9,125.6z"/>
						</g>
					</g>
					<g>
						<g>
							<path class="st16" d="M449.5,95.5h-0.1l-1.7-1c-0.1-0.1-0.2-0.3-0.1-0.4s0.3-0.2,0.4-0.1l1.7,1c0.1,0.1,0.2,0.3,0.1,0.4
								C449.7,95.4,449.6,95.5,449.5,95.5z"/>
						</g>
						<g>
							<path class="st16" d="M487.3,117.3h-0.1l-1.7-1c-0.1-0.1-0.2-0.3-0.1-0.4s0.3-0.2,0.4-0.1l1.7,1c0.1,0.1,0.2,0.3,0.1,0.4
								C487.5,117.2,487.4,117.3,487.3,117.3z"/>
						</g>
					</g>
					<g>
						<g>
							<path class="st16" d="M485.6,95.5c-0.1,0-0.2-0.1-0.3-0.1c-0.1-0.1,0-0.3,0.1-0.4l1.7-1c0.1-0.1,0.3,0,0.4,0.1s0,0.3-0.1,0.4
								l-1.7,1C485.7,95.4,485.6,95.5,485.6,95.5z"/>
						</g>
						<g>
							<path class="st16" d="M447.8,117.3c-0.1,0-0.2-0.1-0.3-0.1c-0.1-0.1,0-0.3,0.1-0.4l1.7-1c0.1-0.1,0.3,0,0.4,0.1
								s0,0.3-0.1,0.4l-1.7,1C447.9,117.2,447.9,117.3,447.8,117.3z"/>
						</g>
					</g>
					<g>
						<g>
							<path class="st16" d="M478,87.8h-0.1c-0.1-0.1-0.2-0.3-0.1-0.4l1-1.7c0.1-0.1,0.3-0.2,0.4-0.1s0.2,0.3,0.1,0.4l-1,1.7
								C478.2,87.8,478.1,87.8,478,87.8z"/>
						</g>
						<g>
							<path class="st16" d="M456.2,125.6h-0.1c-0.1-0.1-0.2-0.3-0.1-0.4l1-1.7c0.1-0.1,0.3-0.2,0.4-0.1s0.2,0.3,0.1,0.4l-1,1.7
								C456.4,125.5,456.3,125.6,456.2,125.6z"/>
						</g>
					</g>
				</g>
				<path class="st21" d="M470.2,105.6c0,1.5-1.2,2.7-2.7,2.7s-2.7-1.2-2.7-2.7s1.2-2.7,2.7-2.7S470.2,104.1,470.2,105.6z"/>
				<g>
					<path class="st16" d="M466.6,106.9l-11.4-8.6l13,6c0.8,0.4,1.1,1.3,0.8,2.1c-0.4,0.8-1.3,1.1-2.1,0.8
						C466.8,107,466.7,107,466.6,106.9z"/>
					<path class="st16" d="M466.8,104.3l14.7-9.3l-12.9,11.8c-0.6,0.6-1.6,0.5-2.2-0.1s-0.5-1.6,0.1-2.2
						C466.6,104.4,466.7,104.4,466.8,104.3z"/>
				</g>
			</g>
		</g>
	</g>
	<g>
		<g>
			
				<radialGradient id="SVGID_3_" cx="1209.1987" cy="93771.0313" r="64.091" gradientTransform="matrix(0.4461 -0.1001 0.4862 5.740000e-02 -45921.9727 -4993.9531)" gradientUnits="userSpaceOnUse">
				<stop  offset="0" style="stop-color:#000000"/>
				<stop  offset="9.866170e-02" style="stop-color:#111111;stop-opacity:0.9013"/>
				<stop  offset="0.2933" style="stop-color:#3C3C3C;stop-opacity:0.7067"/>
				<stop  offset="0.5654" style="stop-color:#828282;stop-opacity:0.4346"/>
				<stop  offset="0.9012" style="stop-color:#E2E2E2;stop-opacity:9.881842e-02"/>
				<stop  offset="1" style="stop-color:#FFFFFF;stop-opacity:0"/>
			</radialGradient>
			<path class="st42" d="M238.4,260.9c20.9,2.5,24.7,7.4,8.5,11.1c-16.3,3.6-46.4,4.6-67.4,2.1c-20.9-2.5-24.7-7.4-8.5-11.1
				C187.3,259.3,217.4,258.4,238.4,260.9z"/>
		</g>
		<g>
			<g>
				<g>
					<path class="st43" d="M223.5,264.1L223.5,264.1c-1.7,0.9-3.9,0.7-3.9,0.7c0.7,0,1.3-0.2,1.8-0.7c1.8-1.4,2.8-4.9,2.4-9
						c-0.4-4.7-2.5-8.5-4.9-9.5c-0.3-0.1-0.7-0.2-1.1-0.2c-0.4,0-0.8,0.1-1.1,0.2c0.1-0.1,1.6-1,4.2-0.7c0.1,0,0.2,0,0.3,0
						c2.6,0.5,5,4.6,5.4,9.6C227.2,259.3,225.8,263.2,223.5,264.1z"/>
				</g>
				<g>
					<path class="st44" d="M221.5,264.1c-0.6,0.4-1.2,0.7-1.8,0.7c-2.8,0-5.5-4.3-5.9-9.7c-0.4-4.6,1-8.4,3.2-9.4l0,0
						c0.4-0.2,0.7-0.2,1.1-0.2c0.4,0,0.7,0.1,1.1,0.2c2.4,0.9,4.5,4.8,4.9,9.5C224.2,259.2,223.2,262.7,221.5,264.1z"/>
				</g>
				<g>
					<path class="st45" d="M222.7,255.2c0.3,3.9-1,7-2.9,7s-3.7-3.1-4-7s1-7,2.9-7C220.6,248.2,222.4,251.3,222.7,255.2z"/>
				</g>
				<g>
					
						<ellipse transform="matrix(0.9945 -0.1046 0.1046 0.9945 -25.4909 24.3387)" class="st44" cx="219.3" cy="255.2" rx="1.2" ry="2.4"/>
				</g>
				<g>
					<polygon class="st43" points="216.9,245.8 216.8,245.7 216.8,245.7 					"/>
				</g>
			</g>
			<g>
				<g>
					<g>
						<g>
							<g>
								<path class="st46" d="M222.8,255.2l-2.4,0.3l-14.7-49.2c-1.2-4.1-3.2-7.9-5.7-11.4l-0.6-0.8c-1.8-2.4-4.6-3.9-7.7-4l-21-0.8
									c-0.4,0-0.6,0.2-0.6,0.3c-0.1,0.1-0.2,0.4,0,0.7l4.6,7c1.3,2,2.2,4.1,2.8,6.3l16.9,61.5l-1.8,1c0,0-0.1,0.1,0,0.1l0.1,0.4
									c-0.2-0.1-0.3-0.4-0.4-0.6l-16.9-61.7c-0.6-2-1.4-3.9-2.5-5.7l-4.6-7l0,0c-0.6-1-0.6-2.2,0-3.1c0.6-1,1.6-1.5,2.7-1.5
									l21,0.8c3.8,0.1,7.2,2,9.5,5l0.6,0.8c2.7,3.7,4.8,7.7,6.1,12.1L222.8,255.2z"/>
							</g>
						</g>
						<g>
							<path class="st47" d="M222.8,255.2l-2.4,0.3l-14.7-49.2c-1.2-4.1-3.2-7.9-5.7-11.4l-0.6-0.8c-1.8-2.4-4.6-3.9-7.7-4l-21-0.8
								c-0.1,0-0.1,0-0.2,0c-0.1-0.3,0-0.5,0-0.6c0.1-0.1,0.3-0.4,0.6-0.3l21,0.8c3.1,0.1,5.9,1.6,7.7,4l0.6,0.8
								c2.6,3.4,4.5,7.3,5.7,11.4l14.7,49.2l1.6-0.2L222.8,255.2z"/>
						</g>
					</g>
					<g>
						<g>
							<polygon class="st46" points="180.6,215.3 208.6,213.2 209.2,215.3 181.3,217.8 							"/>
						</g>
						<g>
							<polygon class="st47" points="181.3,217.8 181.5,218.3 209.3,215.6 209.2,215.3 							"/>
						</g>
					</g>
					<g>
						<g>
							<polygon class="st47" points="190.8,252.3 218.9,247.5 218.7,247.1 190.6,251.7 							"/>
						</g>
						<g>
							<polygon class="st46" points="189.8,248.9 218.1,244.9 218.7,247.1 190.6,251.7 							"/>
						</g>
					</g>
				</g>
				<g>
					<g>
						<path class="st46" d="M193.2,267.4c-0.1,0-0.2,0-0.3-0.1l-9-4.3c-0.3-0.1-0.4-0.5-0.3-0.8l4.6-10.9c0.1-0.3,0.5-0.5,0.8-0.3
							c0.3,0.1,0.5,0.5,0.3,0.8l-4.3,10.4l8.5,4.1c0.3,0.1,0.4,0.5,0.3,0.8C193.6,267.2,193.4,267.4,193.2,267.4z"/>
					</g>
				</g>
			</g>
			<g>
				<g>
					<path class="st43" d="M184.7,270.3L184.7,270.3c-1.7,0.9-3.9,0.7-3.9,0.7c0.7,0,1.3-0.2,1.8-0.7c1.8-1.4,2.8-4.9,2.4-9
						c-0.4-4.7-2.5-8.5-4.9-9.5c-0.3-0.1-0.7-0.2-1.1-0.2c-0.4,0-0.8,0.1-1.1,0.2c0.1-0.1,1.6-1,4.2-0.7c0.1,0,0.2,0,0.3,0
						c2.6,0.5,5,4.6,5.4,9.6C188.4,265.5,187,269.4,184.7,270.3z"/>
				</g>
				<g>
					<path class="st44" d="M182.6,270.3c-0.6,0.4-1.2,0.7-1.8,0.7c-2.8,0-5.5-4.3-5.9-9.7c-0.4-4.6,1-8.4,3.2-9.4l0,0
						c0.4-0.2,0.7-0.2,1.1-0.2c0.4,0,0.7,0.1,1.1,0.2c2.4,0.9,4.5,4.8,4.9,9.5C185.4,265.4,184.4,268.9,182.6,270.3z"/>
				</g>
				<g>
					
						<ellipse transform="matrix(0.9945 -0.1046 0.1046 0.9945 -26.3528 20.3037)" class="st45" cx="180.4" cy="261.4" rx="3.5" ry="7"/>
				</g>
				<g>
					<path class="st47" d="M181.6,261.4c0.1,1.3-0.3,2.4-1,2.4c-0.6,0-1.2-1.1-1.4-2.4c-0.1-1.3,0.3-2.4,1-2.4
						C180.9,259,181.5,260.1,181.6,261.4z"/>
				</g>
				<g>
					<path class="st43" d="M178,251.9L178,251.9L178,251.9z"/>
				</g>
			</g>
			<g>
				<g>
					<g>
						<polygon class="st48" points="190.6,246.7 195.6,264.4 218.1,253.7 211.7,233.2 						"/>
					</g>
					<g>
						<polygon class="st49" points="238.8,231.3 211.7,233.2 218.1,253.7 245.1,249.9 						"/>
					</g>
					<g>
						<polygon class="st50" points="245.1,249.9 224,261.7 195.6,264.4 218.1,253.7 						"/>
					</g>
					<g>
						<polygon class="st50" points="198.1,241.9 198.7,244.8 199.1,243.7 199.7,244.3 200.1,242.9 201.2,243.7 201.2,242.1 
							202.1,242.5 201.5,239.7 						"/>
					</g>
				</g>
				<g>
					<g>
						<polygon class="st48" points="185.6,227.3 181.1,210.6 198.1,195.1 203.5,213.8 						"/>
					</g>
					<g>
						<polygon class="st49" points="227.1,195.1 198.1,195.1 203.5,213.8 232.7,212.3 						"/>
					</g>
					<g>
						<polygon class="st50" points="185.6,227.3 230.8,214 232.7,212.3 203.5,213.8 						"/>
					</g>
					<g>
						<polygon class="st50" points="187.1,205.1 187.7,207.5 188,206.3 188.7,206.9 189.1,205.6 190.1,206.3 190.1,204.7 
							191.1,205.1 190.3,202.3 						"/>
					</g>
					<g>
						<g>
							<path class="st50" d="M226.1,196.5c0,0.1-0.1,0.2-0.1,0.3c-0.1,0.1-0.2,0.1-0.3,0.1h-8.8c-0.3,0-0.5-0.2-0.5-0.5
								c0-0.1,0.1-0.2,0.1-0.3c0.1-0.1,0.2-0.1,0.3-0.1h8.8C225.9,196.1,226.1,196.3,226.1,196.5z"/>
						</g>
						<g>
							<path class="st50" d="M226.1,198c0,0.1-0.1,0.2-0.1,0.3c-0.1,0.1-0.2,0.1-0.3,0.1H221c-0.3,0-0.5-0.2-0.5-0.5
								c0-0.1,0.1-0.2,0.1-0.3c0.1-0.1,0.2-0.1,0.3-0.1h4.7C225.9,197.5,226.1,197.7,226.1,198z"/>
						</g>
					</g>
				</g>
				<g>
					<g>
						<polygon class="st50" points="189.1,246 191.9,245.9 211.7,233.2 237.7,231.4 212,232.7 						"/>
					</g>
					<g>
						<polygon class="st49" points="232.3,214.1 206.3,213.4 212,232.7 237.7,231.4 						"/>
					</g>
					<g>
						<polygon class="st48" points="184.2,228.2 206.3,213.4 212,232.7 189.1,246 						"/>
					</g>
					<g>
						<polygon class="st50" points="192.3,222.8 193,225.7 193.3,224.5 193.9,225.1 194.4,223.7 195.4,224.5 195.4,222.9 
							196.4,223.3 195.7,220.5 						"/>
					</g>
				</g>
			</g>
			<g>
				<g>
					<path class="st47" d="M241.9,254l-17.1,8.3c-0.1,0.1-0.2,0.1-0.4,0.1l-31.6,5c0,0-0.1,0-0.1-0.1l0,0l0,0v-0.1l2.8-1.5l13.2-7
						c0.8-0.4,1.6-0.7,2.4-0.8l27.8-3.9l2.8-0.4c0.1,0,0.1,0,0.2,0.1l0,0C242,253.9,241.9,254,241.9,254z"/>
				</g>
				<g>
					<path class="st46" d="M241.9,253.8c0,0-0.1-0.1-0.2-0.1l-2.8,0.4l-15.9,2.2l-2.4,0.3l-9.6,1.3c-0.9,0.1-1.7,0.4-2.4,0.8
						l-13.2,7l-1.5,0.8l-0.4,0.2l-0.9,0.5c0,0,0,0,0,0.1l-0.1-0.7l-0.1-0.4v-0.1l1.8-1l14.2-7.5c0.8-0.4,1.6-0.7,2.4-0.8l9.5-1.3
						l2.4-0.3l18.8-2.6c0.1,0,0.1,0,0.2,0.1l0,0v0.1L241.9,253.8z"/>
				</g>
			</g>
		</g>
	</g>
	<g>
		<g>
			<rect x="328.7" y="212.3" class="st51" width="107.8" height="62.7"/>
			<path class="st52" d="M433.8,274.8"/>
			<path class="st52" d="M433.8,212.3"/>
			<path class="st52" d="M331.5,274.6"/>
			<path class="st52" d="M331.5,212.3"/>
			<path class="st52" d="M331.5,272.3"/>
			<path class="st52" d="M433.6,272.3"/>
			
				<linearGradient id="SVGID_4_" gradientUnits="userSpaceOnUse" x1="330.9" y1="766.0398" x2="434.3" y2="766.0398" gradientTransform="matrix(1 0 0 1 0 -541.8898)">
				<stop  offset="0" style="stop-color:#130C0E;stop-opacity:0"/>
				<stop  offset="0.2842" style="stop-color:#130C0E;stop-opacity:0"/>
				<stop  offset="1" style="stop-color:#130C0E;stop-opacity:0.1"/>
			</linearGradient>
			<polygon class="st53" points="330.9,212.3 434.3,212.3 425.5,236 340.8,236 			"/>
			<g>
				<polygon class="st51" points="447.1,237.7 437.1,212.3 442.8,212.3 452,235.8 				"/>
			</g>
			<g>
				<polygon class="st51" points="318.2,237.5 313.2,235.5 322.3,212.3 328,212.3 				"/>
			</g>
			<g>
				<polygon class="st54" points="419,259.6 414.5,250.3 409.9,259.6 412.9,259.6 412.9,265.1 416.1,265.1 416.1,259.6 				"/>
				<polygon class="st54" points="429.8,259.6 425.3,250.3 420.7,259.6 423.7,259.6 423.7,265.1 426.9,265.1 426.9,259.6 				"/>
				<g>
					<rect x="410.2" y="267.1" class="st54" width="18.6" height="3.2"/>
				</g>
			</g>
			<g>
				<polygon class="st55" points="423.7,243.9 338.1,243.9 339.9,238.6 423.7,238.6 				"/>
			</g>
			<g>
				<polygon class="st55" points="338.1,243.9 330.7,214.2 330.9,212.3 330.9,212.3 342.3,240.3 				"/>
			</g>
			<polyline class="st54" points="329.9,212.3 340.4,239.2 425.1,239.2 433.1,218.7 435.6,212.3 429.9,212.3 421.4,233.8 
				344.1,233.8 335.6,212.3 			"/>
		</g>
		<path class="st56" d="M340.1,152.3h83.8c5.5,0,10,4.5,10,10V185c0,5.5-4.5,10-10,10h-83.8c-5.5,0-10-4.5-10-10v-22.7
			C330.1,156.7,334.6,152.3,340.1,152.3z"/>
		<g class="st57">
			<path class="st58" d="M358,177.2h-5.2c0.1,1.5,0.5,2.5,1.2,3.2c0.7,0.7,2,1,3.7,1c1.1,0,2.1-0.2,2.9-0.5l0.7,4.5
				c-1.5,0.3-2.9,0.5-4.4,0.5c-3,0-5.4-0.8-7.2-2.3c-1.8-1.6-2.7-3.7-2.8-6.4h-2.7v-2.7h2.7v-2h-2.7v-2.7h2.8
				c0.2-2.8,1.2-4.9,3.1-6.4c1.9-1.5,4.3-2.3,7.3-2.3c1.2,0,2.5,0.2,3.9,0.5l-0.7,4.5c-0.9-0.3-1.8-0.5-2.8-0.5
				c-1.5,0-2.7,0.3-3.5,1c-0.8,0.7-1.3,1.8-1.4,3.2h5.1v2.7h-5.2v2h5.2V177.2z"/>
			<path class="st58" d="M383.6,179.3c0-0.9-0.2-1.6-0.6-2.1c-0.4-0.5-1.2-1-2.3-1.4c-1.1-0.4-2.1-0.9-3-1.3s-1.7-1-2.4-1.6
				c-0.7-0.6-1.2-1.3-1.5-2.1c-0.4-0.8-0.5-1.7-0.5-2.9c0-1.9,0.6-3.4,1.9-4.6s3-1.9,5.1-2.1v-3.5h2.6v3.6c2,0.3,3.6,1.1,4.8,2.5
				s1.7,3.1,1.7,5.2h-5.6c0-1.2-0.2-2-0.7-2.7c-0.4-0.6-1.1-0.9-1.9-0.9c-0.7,0-1.3,0.2-1.7,0.7c-0.4,0.5-0.6,1.1-0.6,1.9
				c0,0.8,0.2,1.5,0.7,2s1.2,0.9,2.2,1.4c1,0.4,2,0.9,2.9,1.4s1.7,1,2.4,1.6c0.7,0.6,1.2,1.3,1.6,2.1s0.6,1.8,0.6,2.9
				c0,1.9-0.6,3.4-1.8,4.6c-1.2,1.2-2.8,1.9-4.9,2.1v3.3h-2.6V186c-2.4-0.3-4.3-1.1-5.6-2.5c-1.3-1.4-1.9-3.3-1.9-5.5h5.6
				c0,1.3,0.3,2.2,0.8,2.9c0.6,0.7,1.4,1,2.4,1c0.8,0,1.3-0.2,1.8-0.7S383.6,180,383.6,179.3z"/>
			<path class="st58" d="M409.7,171l3.9-9.6h6.3l-6,11.9h3.4v3.2h-4.8v1.7h4.8v3.1h-4.8v4.4h-5.8v-4.4h-5.3v-3.1h5.3v-1.7h-5.3v-3.2
				h4l-6-11.9h6.3L409.7,171z"/>
		</g>
		<polygon class="st56" points="418.9,191.6 403.2,204.5 405.3,191.6 		"/>
		<g>
			<g>
				<path class="st59" d="M305.4,189h53.8c1.9,0,3.7,0.8,5,2.2s2.1,3.2,2.1,5.3v78.7c0,2.1-0.8,3.9-2.1,5.3c-1.3,1.4-3,2.2-5,2.2
					h-53.8c-1.9,0-3.7-0.8-5-2.2c-1.3-1.4-2.1-3.2-2.1-5.3v-78.7c0-2.1,0.8-3.9,2.1-5.3C301.7,189.9,303.5,189,305.4,189L305.4,189z
					"/>
				<path class="st60" d="M303.8,187.7h53.8c1.9,0,3.7,0.8,5,2.2s2.1,3.2,2.1,5.3v78.7c0,2.1-0.8,3.9-2.1,5.3c-1.3,1.4-3,2.2-5,2.2
					h-53.8c-1.9,0-3.7-0.8-5-2.2c-1.3-1.4-2.1-3.2-2.1-5.3v-78.7c0-2.1,0.8-3.9,2.1-5.3C300.1,188.5,301.9,187.7,303.8,187.7
					L303.8,187.7z"/>
				<path class="st61" d="M308.9,194h43.7c1.6,0,3,0.6,4.1,1.7c1,1,1.7,2.5,1.7,4.1v13.4c0,1.6-0.6,3-1.7,4.1c-1,1-2.5,1.7-4.1,1.7
					h-43.7c-1.6,0-3-0.6-4.1-1.7c-1-1-1.7-2.5-1.7-4.1v-13.4c0-1.6,0.6-3,1.7-4.1C305.8,194.6,307.3,194,308.9,194L308.9,194z"/>
				<path class="st58" d="M307.4,223h6.9c1.2,0,2.3,0.5,3.1,1.3c0.8,0.8,1.3,1.9,1.3,3.1v6.4c0,1.2-0.5,2.3-1.3,3.1
					s-1.9,1.3-3.1,1.3h-6.9c-1.2,0-2.3-0.5-3.1-1.3c-0.8-0.8-1.3-1.9-1.3-3.1v-6.4c0-1.2,0.5-2.3,1.3-3.1
					C305.2,223.5,306.3,223,307.4,223L307.4,223z"/>
				<path class="st58" d="M327.2,223h6.9c1.2,0,2.3,0.5,3.1,1.3c0.8,0.8,1.3,1.9,1.3,3.1v6.4c0,1.2-0.5,2.3-1.3,3.1
					s-1.9,1.3-3.1,1.3h-6.9c-1.2,0-2.3-0.5-3.1-1.3c-0.8-0.8-1.3-1.9-1.3-3.1v-6.4c0-1.2,0.5-2.3,1.3-3.1
					C325,223.5,326.1,223,327.2,223L327.2,223z"/>
				<path class="st58" d="M347,223h6.9c1.2,0,2.3,0.5,3.1,1.3c0.8,0.8,1.3,1.9,1.3,3.1v6.4c0,1.2-0.5,2.3-1.3,3.1s-1.9,1.3-3.1,1.3
					H347c-1.2,0-2.3-0.5-3.1-1.3c-0.8-0.8-1.3-1.9-1.3-3.1v-6.4c0-1.2,0.5-2.3,1.3-3.1C344.8,223.5,345.9,223,347,223L347,223z"/>
				<path class="st58" d="M307.4,241.1h6.9c1.2,0,2.3,0.5,3.1,1.3c0.8,0.8,1.3,1.9,1.3,3.1v6.4c0,1.2-0.5,2.3-1.3,3.1
					s-1.9,1.3-3.1,1.3h-6.9c-1.2,0-2.3-0.5-3.1-1.3c-0.8-0.8-1.3-1.9-1.3-3.1v-6.4c0-1.2,0.5-2.3,1.3-3.1
					C305.2,241.5,306.3,241.1,307.4,241.1L307.4,241.1z"/>
				<path class="st58" d="M327.2,241.1h6.9c1.2,0,2.3,0.5,3.1,1.3c0.8,0.8,1.3,1.9,1.3,3.1v6.4c0,1.2-0.5,2.3-1.3,3.1
					s-1.9,1.3-3.1,1.3h-6.9c-1.2,0-2.3-0.5-3.1-1.3c-0.8-0.8-1.3-1.9-1.3-3.1v-6.4c0-1.2,0.5-2.3,1.3-3.1
					C325,241.5,326.1,241.1,327.2,241.1L327.2,241.1z"/>
				<path class="st58" d="M347,241.1h6.9c1.2,0,2.3,0.5,3.1,1.3c0.8,0.8,1.3,1.9,1.3,3.1v6.4c0,1.2-0.5,2.3-1.3,3.1
					s-1.9,1.3-3.1,1.3H347c-1.2,0-2.3-0.5-3.1-1.3c-0.8-0.8-1.3-1.9-1.3-3.1v-6.4c0-1.2,0.5-2.3,1.3-3.1
					C344.8,241.5,345.9,241.1,347,241.1L347,241.1z"/>
				<path class="st58" d="M307.4,259.1h6.9c1.2,0,2.3,0.5,3.1,1.3c0.8,0.8,1.3,1.9,1.3,3.1v6.4c0,1.2-0.5,2.3-1.3,3.1
					c-0.8,0.8-1.9,1.3-3.1,1.3h-6.9c-1.2,0-2.3-0.5-3.1-1.3c-0.8-0.8-1.3-1.9-1.3-3.1v-6.4c0-1.2,0.5-2.3,1.3-3.1
					C305.2,259.6,306.3,259.1,307.4,259.1L307.4,259.1z"/>
				<path class="st58" d="M327.2,259.1h6.9c1.2,0,2.3,0.5,3.1,1.3c0.8,0.8,1.3,1.9,1.3,3.1v6.4c0,1.2-0.5,2.3-1.3,3.1
					c-0.8,0.8-1.9,1.3-3.1,1.3h-6.9c-1.2,0-2.3-0.5-3.1-1.3c-0.8-0.8-1.3-1.9-1.3-3.1v-6.4c0-1.2,0.5-2.3,1.3-3.1
					C325,259.6,326.1,259.1,327.2,259.1L327.2,259.1z"/>
				<path class="st58" d="M347,259.1h6.9c1.2,0,2.3,0.5,3.1,1.3c0.8,0.8,1.3,1.9,1.3,3.1v6.4c0,1.2-0.5,2.3-1.3,3.1
					c-0.8,0.8-1.9,1.3-3.1,1.3H347c-1.2,0-2.3-0.5-3.1-1.3c-0.8-0.8-1.3-1.9-1.3-3.1v-6.4c0-1.2,0.5-2.3,1.3-3.1
					C344.8,259.6,345.9,259.1,347,259.1L347,259.1z"/>
			</g>
			<g>
				<rect x="317.5" y="199.6" width="1.8" height="13.6"/>
				<rect x="323.8" y="199.6" width="1.8" height="13.6"/>
				<rect x="333.3" y="199.6" width="1.8" height="13.6"/>
				<rect x="326.1" y="197.2" width="6.2" height="1.7"/>
				<rect x="326.2" y="213.7" width="6.2" height="1.7"/>
				<rect x="339.3" y="199.6" width="1.8" height="13.6"/>
				<rect x="348.8" y="199.6" width="1.8" height="13.6"/>
				<rect x="341.7" y="197.1" width="6.2" height="1.7"/>
				<rect x="341.8" y="213.7" width="6.2" height="1.7"/>
			</g>
		</g>
	</g>
</g>
</svg>
